<svg version="1.1" xmlns="http://www.w3.org/2000/svg" viewBox="0 0 618.6315789473682 477.07894736842115" width="1855.8947368421045" height="1431.2368421052633">
  <!-- svg-source:excalidraw -->
  <!-- payload-type:application/vnd.excalidraw+json --><!-- payload-version:2 --><!-- payload-start -->eyJ2ZXJzaW9uIjoiMSIsImVuY29kaW5nIjoiYnN0cmluZyIsImNvbXByZXNzZWQiOnRydWUsImVuY29kZWQiOiJ4nO1bWXfayFx1MDAxMn7Pr+B4XoOm9yVvxsvYsa83PHaSmTk5XHUwMDAyZKxBSERgYzIn//1Wg6G1XHUwMDAxgmDHnlx0XHUwMDBmOUl3q1XdVfXVV1XKP28qla3BqOdtvatseVx1MDAwZk038FuxO9x6a8bvvbjvRyFMkfG/+9Fd3Fx1MDAxY6+8XHUwMDFkXGZ6/Xe//mqfcJpRd/KUXHUwMDE3eF0vXHUwMDFj9GHdXHUwMDFm8O9K5Z/xnzDjt8yze73OddDYvYxO9k6H6u/a9Tl+XHUwMDFmjlx1MDAxZlx1MDAxZC+aXG5cdTAwMTN7zYFcdTAwMWK2XHUwMDAzz049wDjFxMGIXHUwMDEzQTGXSjM1m1x1MDAxZJlZQZzEpKRsNj30W4NbWIKJXHUwMDFku/X89u1cdTAwMDBcdTAwMDaV3WbyzndcdTAwMTU0XHUwMDFi6Vx1MDAwZuKo4+1EQVx1MDAxNFx1MDAxYsF+8Vx1MDAxMMVcdTAwMTRbsVx1MDAxYW6z046ju7A1WzOI3bDfc2O4XHUwMDA3u+7GXHUwMDBmgvpgXHUwMDE0TG7Qbd7exYnDTd5y/SglyYzPnutHcN/2KXht+zb0+v2UxFHPbfpcdTAwMDNzIVx1MDAxONlRI2PvsDVWzF9WqtjteodGM+FdXHUwMDEwJDdcdTAwMGVbj1x1MDAxYk9cdTAwMTVotUNcdTAwMWZHvlkxPc/sQaXgTEhu79NcdTAwMWGRpNnBkyhcdTAwMWPbXHUwMDEzJkhIrFx1MDAxMVx1MDAxM7NcdTAwMTV+f1x1MDAxN1xmaTDe9MZccvqevW4j2V7WyJKGlrKjgfdgdZAww0698TvS8VHvJjpsftKf97372vHWbN23t8XbTlx1MDAxZb68+rC3M9o5rX6t4cuLWlx1MDAxY7Xc9376LdP3u3FcdTAwMWNccsvue1x1MDAxZZ2NvoieYJ+P45Z3UWuHuMk2sK+4PL84+XRb/dL+XHUwMDFitVx1MDAwZsXo49mevtzAvurL+e75dr3bXHUwMDBmXHUwMDFivro6Oa6dNt9Xy+37+DdriHe9ljvRN1x1MDAxNlx1MDAxYVNCXHUwMDE1U4ro2Xzgh52slVx1MDAwNlGzY03kTULgXGboXHUwMDE0aztcdTAwMDc6KWOZ4FxylVx1MDAwZaOIccUkojm80czhi/FGUocyLZCmkueBh1ifeL3Ag59cbnhSXHUwMDEzj1xig1x1MDAxNcNIc9BJXHUwMDAxxFCeXHUwMDFknEKMIERoxJE9X3mESYmRN1OCmVQrmKm1OmNtcLWAXHUwMDFmw75cdTAwMTcnXHUwMDE0XHUwMDE2hYO6/9XITVBqdN/t+sEopSezy3bgt835t5ogcnInuIWBXHUwMDBmMXq2oOu3WsmY2nD7XHUwMDFliDxGYXuIJrzKhdH4sEzIjmK/7YducDnvPOZcdTAwMDVcdTAwMDdTk8dcdTAwMGXmhZ66IPJbXHJjQuapXHUwMDE4a6GMTjAroeNcdCzU9EP3pvr5pnvEz37z9q9rlJ9cdTAwMGZfTsTOQ4KBJKaslY+fwDrzblx1MDAwYlx1MDAxOVhL3CSrQ0ZZtjR1Slx0Lqml4s/ENjbEXHUwMDAxWtf1j1x1MDAwN3uN6/vmTq9zundMTkN58Yo5QImYiiTDXCLpmOvE1OJwaZ1U43k+qlx1MDAwMCsxo7K8i1x1MDAxNuvoxcS2Ylx1MDAxN+WEO0pcdTAwMDGnVTLjq1x1MDAxYzv8ybyVXHUwMDExXHUwMDA3wlx1MDAxY1x1MDAxN2Qx03h0Wqk1hkCqyPf7bGpcIuecm7TH9WOkub3dk/pWanD9wJlcdJFLXCJJNkSmXHUwMDA0yYXH4ui8gN4uxqJcZl6k+a1gXHUwMDBlRYDcXHUwMDFhTFx1MDAxNegsTpkr5WJpPo2xIzRwIFx1MDAwNLFCIJ5cYlx1MDAwZTPbw5I7mkFiSDF4P9Pq38B6nzHdJrlcdTAwMDA4jbuCY4HhQouYXHUwMDEyl3OZktKIXG6eXGbXT55v759cdTAwMWRcdTAwMDWN/32t794ySk/3dlx1MDAxYqfNi2i12KVVkv2tgFx1MDAxNb3Iz8r+R0JClFx1MDAxNFx1MDAxN83+/tfbwtVcdTAwMTRl7J0nXHUwMDFmr2JKMy6zbMP5XHUwMDFlNNkw5zx2w9ylXHUwMDA1bn+wXHUwMDEzdbv+XHUwMDAwru7MXHUwMDFjO5dGXHLceFDzw5ZcdTAwMWa208b2WLgrQ/nHSNu8M1daRVx1MDAwZdFcXHCCJVx1MDAwNTUhRkliVdvtmeQrZ79e2Fouw2JMTchcdTAwMDBcIlxiYdI7zVx1MDAxNVx1MDAxNZQwzHMy6LxcdTAwMGaZm9g2kHjruTmPXHUwMDA0XHSTc0muVYzBxVx1MDAwNp7D4IJcdTAwMTKDosVkgeAkWZhcdTAwMDIuKVx1MDAxN+R/XHUwMDAy63TjheVcdTAwMDSNOXgpk0XVXHUwMDA0nVx1MDAxZLOZJuVaXHUwMDEzRNapVy6rJlAhLHCvUU24i4OXW0lYQlSyNCl1lnJVhDJJ1FwiQsQ1cSjoglx1MDAxM0204NyqeHxZiVucMSDF4Vx0oSjCXHUwMDE0MF9Ke6OWXHUwMDAxMTSPSC131HXTglfrqCswIEmlVEghkTTUaddKzc1DMVwiWCtVKlx1MDAwZt1cdTAwMTBcdTAwMDHq6v1cdTAwMDBv71x1MDAxZYr+ff3DwcP25e/8w8NrJEBVjHXKRSzRND9Olm8w12PML+8rz0F4SpONKnaQwohpXHUwMDA2pIchUUQ2cL5kVYrxrMK6XHUwMDEwXHUwMDE2glx0JSkmXHUwMDE0XHRJOMuJUeA1m+U8xTZdgvMwTFx1MDAxYy05pCCpvshcdTAwMThimY27tlxmXHTnNe0gcIBcdTAwMDLak+hcdTAwMWL+RNPpxlx1MDAwYmmPQEJcdTAwMDGJRLliulx1MDAxMT6HpVPU5IJcdTAwMTFKZVwi3dxcdTAwMTjtQVx1MDAxY6PvaqJcdTAwMWOeVdxWK4Yj/1x1MDAxOUY3laHXqPS9+P7Ht1VcdTAwMTIllVxmXHUwMDE5WkJSsmSoxFx0N9loSVCUbPBkwJlcdTAwMTWE3TLNtFx0UKAzXHUwMDFjtk+HqM/1wW7nyKPiS129XHUwMDFj3yqu4kolXHUwMDFjSYViZPLFSVxupihnTlwiRon5PVx1MDAxOHKjPcZWXHUwMDA3nFV7MFhBPFx1MDAxMMna+mvowXRHw6hZjU84c48/XZ42j0ef7/i/+7tcdTAwMDaOOVslxVvoxPN6MDhPiWe9cFxipYRoXFxcdTAwMDbGXHUwMDE3KenZ3He9JozUwlx1MDAwMapqPkgqcF/j28/jvog7hLJln3/MOqlMXHSCN+DD6/ZkgJpcdFwin68nc1xycayeiWNcdTAwMWJtzSyJPdkwWyTP93doXHUwMDE2I9Wiglx1MDAwNGPSsTFcYmdcblx1MDAxMlxmXHUwMDExh1x1MDAxNVx1MDAwNqmp/VGKnGQ2lVDtzFx1MDAwZZFcdTAwMDOsXHUwMDE4UYmYwFx1MDAxMrbB/GchcTP1XHSOXHUwMDAxiCUt7NCIXFzR0ZYnXHUwMDE00Zxxss7nSut+XGahOj3mf/1wcXfvXG6/9dvRoTqsvcb6xHyDN79qga3bXHUwMDFkc4f8IVxyXHUwMDE1XHUwMDA01FpyZjJ8IHRcXCdWPdZcdTAwMTewM1xyXFzg+EitW29YXGaNXHUwMDE5oTTCilGlpFx1MDAwNGVcdTAwMTMqc1Kp1LVDrph3is2WXHUwMDFmik02XHUwMDA3qvnyXHUwMDAzXHUwMDE33KFcdTAwMDQxU8Iy5CBdgaBcdTAwMWE5LFx0qjlM1Vx1MDAxMNI5LPvZhPk+WjIlPYzBNVx1MDAxMK2Kqrh4flx1MDAxMVx1MDAxN4hcdTAwMTJFwK2e4KNOqlx021A94kdcdTAwMTcg5ndjlpCS+Vx1MDAwNYj1mjKLs6pFXHUwMDFjXGLU4ShTIYJcdTAwMDRXysSHXHJjXG7EsaNcdTAwMTPuamdn30VJkFxmM8JcYlx1MDAxN4RphlxuXHUwMDEyaoyJk1x1MDAwMC/FVunQrJsjvFovXoFcdTAwMDFcdTAwMTHEwUl18mOThHOL+Z/zmvK6XHUwMDA2zT9jj4ZcdTAwMWZeXHUwMDA3XHUwMDFme59cdTAwMGVcdTAwMWUu8FUj6oSaXFxddV4jXHUwMDA3qlx1MDAwMio6RFx1MDAwMj5KojWlXHUwMDAyp1ssOWNfuuF8XHUwMDFmMj/hJHdcdTAwMDPK+1x1MDAxY5RqXHUwMDE19lwiXHUwMDA0yIZcYmhJXG64kTx50akkS1G5XHUwMDFloypN85AjXHUwMDA1olpcdTAwMGJqXHUwMDFhYIiQfFx1MDAxN0k5JPVf3Z6aTlx1MDAxNVt/XHUwMDE5OsWlXHUwMDAzbFxiLlghrlx0ssWU0XiWOsiyVWuJlk6B+UihOS3s7qzEp/5zSFxcyKeAvFDj+4WQO5dPaVx1MDAwZVxihvhcdTAwMTN0d4RCiZLWXHUwMDFhbMpcdTAwMTRlem7bq7xcXDK1hN1cdTAwMTSVmTInmsOl3jyC55bb69VcdTAwMDdwszP42br3vWEtb+G/3Ix/xtfHnm6s21x1MDAxYoftb2++/Vx1MDAxZjbilZYifQ==<!-- payload-end -->
  <defs>
    <style class="style-fonts">
      @font-face {
        font-family: "Virgil";
        src: url("https://excalidraw.com/Virgil.woff2");
      }
      @font-face {
        font-family: "Cascadia";
        src: url("https://excalidraw.com/Cascadia.woff2");
      }
    </style>
    
  </defs>
  <rect x="0" y="0" width="618.6315789473682" height="477.07894736842115" fill="#ffffff"></rect><g stroke-linecap="round" transform="translate(10 253.05263157894734) rotate(0 62 44)"><path d="M22 0 M22 0 C53.9 0, 85.81 0, 102 0 M22 0 C38.63 0, 55.26 0, 102 0 M102 0 C116.67 0, 124 7.33, 124 22 M102 0 C116.67 0, 124 7.33, 124 22 M124 22 C124 35.11, 124 48.23, 124 66 M124 22 C124 37.78, 124 53.57, 124 66 M124 66 C124 80.67, 116.67 88, 102 88 M124 66 C124 80.67, 116.67 88, 102 88 M102 88 C84.83 88, 67.66 88, 22 88 M102 88 C73.95 88, 45.89 88, 22 88 M22 88 C7.33 88, 0 80.67, 0 66 M22 88 C7.33 88, 0 80.67, 0 66 M0 66 C0 51.28, 0 36.56, 0 22 M0 66 C0 51.08, 0 36.16, 0 22 M0 22 C0 7.33, 7.33 0, 22 0 M0 22 C0 7.33, 7.33 0, 22 0" stroke="#e03131" stroke-width="2" fill="none"></path></g><g transform="translate(35.3251953125 285.55263157894734) rotate(0 36.6748046875 11.5)"><text x="36.6748046875" y="0" font-family="Helvetica, Segoe UI Emoji" font-size="20px" fill="#e03131" text-anchor="middle" style="white-space: pre;" direction="ltr" dominant-baseline="text-before-edge">Browser</text></g><g stroke-linecap="round" transform="translate(182.8947368421052 10) rotate(0 62 44)"><path d="M22 0 M22 0 C41.7 0, 61.39 0, 102 0 M22 0 C40.66 0, 59.32 0, 102 0 M102 0 C116.67 0, 124 7.33, 124 22 M102 0 C116.67 0, 124 7.33, 124 22 M124 22 C124 32.35, 124 42.7, 124 66 M124 22 C124 39.52, 124 57.05, 124 66 M124 66 C124 80.67, 116.67 88, 102 88 M124 66 C124 80.67, 116.67 88, 102 88 M102 88 C76.19 88, 50.37 88, 22 88 M102 88 C72.76 88, 43.51 88, 22 88 M22 88 C7.33 88, 0 80.67, 0 66 M22 88 C7.33 88, 0 80.67, 0 66 M0 66 C0 54.72, 0 43.45, 0 22 M0 66 C0 49.19, 0 32.39, 0 22 M0 22 C0 7.33, 7.33 0, 22 0 M0 22 C0 7.33, 7.33 0, 22 0" stroke="#1971c2" stroke-width="2" fill="none"></path></g><g transform="translate(223.7814555921052 42.5) rotate(0 21.11328125 11.5)"><text x="21.11328125" y="0" font-family="Helvetica, Segoe UI Emoji" font-size="20px" fill="#1971c2" text-anchor="middle" style="white-space: pre;" direction="ltr" dominant-baseline="text-before-edge">DNS</text></g><g mask="url(#mask-TVXECyCO-zB1TRBrodaJi)" stroke-linecap="round"><g transform="translate(62.20259671749932 247.05263157894734) rotate(0 55.84607006230294 -87.97273158572492)"><path d="M0 0 C5.12 -22.18, 12.08 -103.73, 30.69 -133.05 C49.31 -162.38, 98.19 -168.8, 111.69 -175.95 M0 0 C5.12 -22.18, 12.08 -103.73, 30.69 -133.05 C49.31 -162.38, 98.19 -168.8, 111.69 -175.95" stroke="#e03131" stroke-width="2" fill="none"></path></g><g transform="translate(62.20259671749932 247.05263157894734) rotate(0 55.84607006230294 -87.97273158572492)"><path d="M88.39 -157.05 C95.33 -162.68, 102.27 -168.31, 111.69 -175.95 M88.39 -157.05 C94.05 -161.64, 99.71 -166.23, 111.69 -175.95" stroke="#e03131" stroke-width="2" fill="none"></path></g><g transform="translate(62.20259671749932 247.05263157894734) rotate(0 55.84607006230294 -87.97273158572492)"><path d="M81.7 -176.45 C90.63 -176.3, 99.57 -176.15, 111.69 -175.95 M81.7 -176.45 C88.98 -176.33, 96.27 -176.21, 111.69 -175.95" stroke="#e03131" stroke-width="2" fill="none"></path></g></g><mask id="mask-TVXECyCO-zB1TRBrodaJi"><rect x="0" y="0" fill="#fff" width="273.8947368421052" height="522.9980947503972"></rect><rect x="81.7814555921052" y="102.5" fill="#000" width="22.2265625" height="23" opacity="1"></rect></mask><g transform="translate(81.7814555921052 102.5) rotate(0 36.26721118769706 56.579899993222426)"><text x="11.11328125" y="0" font-family="Helvetica, Segoe UI Emoji" font-size="20px" fill="#e03131" text-anchor="middle" style="white-space: pre;" direction="ltr" dominant-baseline="text-before-edge">url</text></g><g mask="url(#mask-QoPyq6p64_LrdeRBgn1c4)" stroke-linecap="round"><g transform="translate(290.2638897717608 111) rotate(0 -92.68341506789386 70.02631578947367)"><path d="M0 0 C-19.89 8.67, -88.47 28.66, -119.37 52 C-150.26 75.34, -174.37 125.38, -185.37 140.05 M0 0 C-19.89 8.67, -88.47 28.66, -119.37 52 C-150.26 75.34, -174.37 125.38, -185.37 140.05" stroke="#1971c2" stroke-width="2" fill="none"></path></g><g transform="translate(290.2638897717608 111) rotate(0 -92.68341506789386 70.02631578947367)"><path d="M-179.03 110.73 C-181.3 121.23, -183.57 131.72, -185.37 140.05 M-179.03 110.73 C-181.43 121.82, -183.82 132.9, -185.37 140.05" stroke="#1971c2" stroke-width="2" fill="none"></path></g><g transform="translate(290.2638897717608 111) rotate(0 -92.68341506789386 70.02631578947367)"><path d="M-161.67 121.66 C-170.15 128.24, -178.63 134.83, -185.37 140.05 M-161.67 121.66 C-170.63 128.61, -179.59 135.57, -185.37 140.05" stroke="#1971c2" stroke-width="2" fill="none"></path></g></g><mask id="mask-QoPyq6p64_LrdeRBgn1c4"><rect x="0" y="0" fill="#fff" width="575.6307199075485" height="351.05263157894734"></rect><rect x="110.8703227796052" y="140" fill="#000" width="120.048828125" height="46" opacity="1"></rect></mask><g transform="translate(110.8703227796052 140) rotate(0 86.71015192426171 41.02631578947367)"><text x="60.0244140625" y="0" font-family="Helvetica, Segoe UI Emoji" font-size="20px" fill="#1971c2" text-anchor="middle" style="white-space: pre;" direction="ltr" dominant-baseline="text-before-edge">IP address</text><text x="60.0244140625" y="23" font-family="Helvetica, Segoe UI Emoji" font-size="20px" fill="#1971c2" text-anchor="middle" style="white-space: pre;" direction="ltr" dominant-baseline="text-before-edge">of web server</text></g><g stroke-linecap="round" transform="translate(484.6315789473682 245.26315789473688) rotate(0 62 44)"><path d="M22 0 M22 0 C43.04 0, 64.09 0, 102 0 M22 0 C38.84 0, 55.68 0, 102 0 M102 0 C116.67 0, 124 7.33, 124 22 M102 0 C116.67 0, 124 7.33, 124 22 M124 22 C124 35.31, 124 48.63, 124 66 M124 22 C124 38.03, 124 54.07, 124 66 M124 66 C124 80.67, 116.67 88, 102 88 M124 66 C124 80.67, 116.67 88, 102 88 M102 88 C73.16 88, 44.33 88, 22 88 M102 88 C75.31 88, 48.63 88, 22 88 M22 88 C7.33 88, 0 80.67, 0 66 M22 88 C7.33 88, 0 80.67, 0 66 M0 66 C0 49.69, 0 33.38, 0 22 M0 66 C0 54.71, 0 43.41, 0 22 M0 22 C0 7.33, 7.33 0, 22 0 M0 22 C0 7.33, 7.33 0, 22 0" stroke="#2f9e44" stroke-width="2" fill="none"></path></g><g transform="translate(494.0143914473682 277.7631578947369) rotate(0 52.6171875 11.5)"><text x="52.6171875" y="0" font-family="Helvetica, Segoe UI Emoji" font-size="20px" fill="#2f9e44" text-anchor="middle" style="white-space: pre;" direction="ltr" dominant-baseline="text-before-edge">Web Server</text></g><g mask="url(#mask-6TQRNZh-qgj0gI6yYPE9T)" stroke-linecap="round"><g transform="translate(145.5789473684208 293.4736842105263) rotate(0 165.26315789473688 -0.09851852308526077)"><path d="M0 0 C55.09 -0.03, 275.44 -0.16, 330.53 -0.2 M0 0 C55.09 -0.03, 275.44 -0.16, 330.53 -0.2" stroke="#e03131" stroke-width="2" fill="none"></path></g><g transform="translate(145.5789473684208 293.4736842105263) rotate(0 165.26315789473688 -0.09851852308526077)"><path d="M302.34 10.08 C312.15 6.5, 321.96 2.93, 330.53 -0.2 M302.34 10.08 C308.25 7.92, 314.16 5.77, 330.53 -0.2" stroke="#e03131" stroke-width="2" fill="none"></path></g><g transform="translate(145.5789473684208 293.4736842105263) rotate(0 165.26315789473688 -0.09851852308526077)"><path d="M302.33 -10.44 C312.14 -6.88, 321.96 -3.31, 330.53 -0.2 M302.33 -10.44 C308.24 -8.29, 314.16 -6.14, 330.53 -0.2" stroke="#e03131" stroke-width="2" fill="none"></path></g></g><mask id="mask-6TQRNZh-qgj0gI6yYPE9T"><rect x="0" y="0" fill="#fff" width="576.1052631578946" height="393.6707212566968"></rect><rect x="263.2151521381577" y="281.875165687441" fill="#000" width="95.25390625" height="23" opacity="1"></rect></mask><g transform="translate(263.2151521381577 281.87516568744104) rotate(0 47.626953125 11.5)"><text x="47.626953125" y="0" font-family="Helvetica, Segoe UI Emoji" font-size="20px" fill="#e03131" text-anchor="middle" style="white-space: pre;" direction="ltr" dominant-baseline="text-before-edge">IP address</text></g><g mask="url(#mask-8qQDQASmsnbi8VNLBOcJ-)" stroke-linecap="round"><g transform="translate(537.7458215098623 342.9473684210527) rotate(0 -235.55712128124702 56.320386572096254)"><path d="M0 0 C-39.05 18.77, -155.75 111.58, -234.27 112.63 C-312.79 113.68, -431.64 24.04, -471.11 6.32 M0 0 C-39.05 18.77, -155.75 111.58, -234.27 112.63 C-312.79 113.68, -431.64 24.04, -471.11 6.32" stroke="#2f9e44" stroke-width="2" fill="none"></path></g><g transform="translate(537.7458215098623 342.9473684210527) rotate(0 -235.55712128124702 56.320386572096254)"><path d="M-441.57 11.51 C-452.64 9.56, -463.71 7.62, -471.11 6.32 M-441.57 11.51 C-451.03 9.84, -460.5 8.18, -471.11 6.32" stroke="#2f9e44" stroke-width="2" fill="none"></path></g><g transform="translate(537.7458215098623 342.9473684210527) rotate(0 -235.55712128124702 56.320386572096254)"><path d="M-451.82 29.29 C-459.05 20.68, -466.28 12.07, -471.11 6.32 M-451.82 29.29 C-458 21.93, -464.18 14.57, -471.11 6.32" stroke="#2f9e44" stroke-width="2" fill="none"></path></g></g><mask id="mask-8qQDQASmsnbi8VNLBOcJ-"><rect x="0" y="0" fill="#fff" width="1108.8600640723562" height="555.5789473684212"></rect><rect x="255.28520764802602" y="444.07894736842115" fill="#000" width="96.376953125" height="23" opacity="1"></rect></mask><g transform="translate(255.28520764802613 444.07894736842115) rotate(0 46.9034925805891 -44.811192375272185)"><text x="48.1884765625" y="0" font-family="Helvetica, Segoe UI Emoji" font-size="20px" fill="#2f9e44" text-anchor="middle" style="white-space: pre;" direction="ltr" dominant-baseline="text-before-edge">Web page </text></g></svg>