<svg version="1.1" xmlns="http://www.w3.org/2000/svg" viewBox="0 0 1583.5167197027317 897.4634001053992" width="4750.550159108196" height="2692.3902003161975">
  <!-- svg-source:excalidraw -->
  <!-- payload-type:application/vnd.excalidraw+json --><!-- payload-version:2 --><!-- payload-start -->eyJ2ZXJzaW9uIjoiMSIsImVuY29kaW5nIjoiYnN0cmluZyIsImNvbXByZXNzZWQiOnRydWUsImVuY29kZWQiOiJ4nO1daVdcdTAwMWHL1v5+foUr9+uxb1XtXHUwMDFhzzdncVx1MDAxNo2a3PMuXHUwMDE3k4hcIiDgeNf57+/eOND03Nii3oQkJqGborpqXHUwMDBmz1x1MDAxZeu/f8zNfVx1MDAxYj70XHUwMDFh3/6a+9a4r1XarXq/cvftT3r/ttFcdTAwMWa0ulx1MDAxZLwkRv9cdTAwMWZ0b/q10Z3nw2Fv8Ne//z3+hFfrXj19qtFuXFw1OsNcdTAwMDHe91x1MDAxZvz/3Nx/Rz/xSqtOn13pXVx1MDAxZbery4fdnZXdO3uxeLzPNzqjj45ueplMv1FcdTAwMWJWOs12Y3zpXHUwMDFl31x1MDAwNy48zpTQwJWxTtrXq1x1MDAwZnRVXHUwMDBiz3fRgHy9fNeqXHUwMDBmz/FcdTAwMTYuxu+dN1rN8yG+acfDPH3nX3Ps9Z3BsN+9bCx1290+TexfXHJcdTAwMDZcdTAwMWP4eFrVSu2y2e/edOqv91xm+5XOoFfp4zqM7ztrtdtcdTAwMDfDh/bTXG5Wauc3fd/DPX3L8fMsReD9189ccrq43uNP4dc2zzuNwWBixt1epdZcdTAwMWHSgnA2fpfm2CvVR1x1MDAxYvN/41n1K1eNXHUwMDEy7Uznpt32XHUwMDBm3Kk/XHUwMDBm/LKB492B53f+XHUwMDE5T7PRoDHAaCW1UeP1XHUwMDFjXHUwMDEzkXHBN3e6nVx1MDAxMT3hhlqwWsL4Y63BMlx1MDAxMtJwNOhZpT1ojJebZrZcdTAwMTIkMj+hTdDRsHE/3lx1MDAwM1x1MDAxZlx1MDAxOV5cdTAwMWVUvzPX3+yddUu1n+50tXG7uPXt9b5//oxcdTAwMWX26cOHRycrS1x1MDAwZku784+L/LC82O/WK1x1MDAxYq3Jb3n5/kq/373LOu5+d+/hWve0PN3q11x1MDAxYuXFZofXZFx1MDAwMePqw/3yzs/z+evmXHUwMDA1a5b0w4+9XHUwMDE1d1jAuPZ6f3l/4eBq0Km27NHO1uJubWO+gHFcdTAwMWZFa+uOd/dP1eZcdTAwMTk0zo7XTlx1MDAxZlx1MDAxZppcdTAwMDWMu7G6vy9cdTAwMWWulzbvjpeP93auXHUwMDFm7ZoqXHUwMDE3MO78Y3twaG5gk69De2XdlMXa0VW2cZ//NWbIm1698kT3XFw7XHUwMDBlQlx1MDAxYWucXHUwMDFhXHUwMDBihHarc1x1MDAxOeTWdrd2OWaVP3xcdTAwMTNcdTAwMGVcYt9oqlx1MDAwZlx031x0pnmSu2A8XHRMKitccoOQ3HXSU8ly14BcdTAwMDfSaebAqLBcdTAwMDBcdTAwMTbwPyCA+XtcdOCJXHUwMDBiz5KWW8mZU7gnXHUwMDExolx1MDAxNnSsqNVcdTAwMDKQroRcdTAwMWM/YHZROzGPXHUwMDEwnYLmoG1cdTAwMGU6XHUwMDFkk1x1MDAxZJFcdTAwMWKuLVxu0rtBo+/bsW5neNB6pIlcdTAwMGI28e5q5arVfpjYKFx1MDAxYWWh3WrSXHUwMDAyfKvhlP0j4TJcZltcYlZeb7hq1et+cFGtXGZcdTAwMWE45dFcdTAwMWGNXHUwMDFmooZfVcF3+6Us2KXbbzVbnUr7MO556Fx1MDAwYtZfaJ57XFxFsmpcdTAwMDJcdTAwMDTyQTJcdTAwMTXa+Jc9NsKBcoxl2eInsbDo7q/O5k/PrjbV3lpj9XhcdTAwMTHU/t3nQS5hkUBcIklo7Vx0LZhzgqFoXHUwMDAxNyZ6XHUwMDFhQEvPKu1QLElcdTAwMDRcdTAwMTdOq8DExvKEO8NrXCK/PMlcbilfONYgvzpj1YwgWUFAqX588GN9pXp8W1vqXe6ubIndjil/YaCUrnA1/nbSz7TTKNxoXepjYJ6AhyWXmlx0n2xP4+DoXfo0qi+ag4FcdTAwMTmPS2s5XHUwMDAynFxiXHUwMDBldsaD2XCwXHUwMDE0nlx1MDAxMFppkVxmTZ5cdTAwMTnZOMdR81rxdj6euFx1MDAxMGLYXCJpdHqdSqu3vHPwbeLN6Vx1MDAxNW1ApaaonqBKnZhISJ1Ga/NcdTAwMDQ8nCyfXHUwMDAyMmSSdjUgzUjnrLNcZrSYoFxcJNs0P4RyXHUwMDFlt1xuuORcdTAwMWGYxjt0mPQ4wmqkNG00XHUwMDAwU8qY/1x1MDAwMZA8Qy+FXGKpxFx1MDAxN02sXHUwMDE111xcuigvXHUwMDA1+EytoFhGrMFp08a7+e5uitW9zXZ1+/Fg+VxcXHUwMDAy7K4sV3dr5W5ObYZw3/l5Jquk6HVbwbn/xzdD5p8ue/33//1cdTAwMTl593w8wY8uc4FcZiw57otcdTAwMDFEr2hqpo7InceEQmmsXHUwMDE0M9zysVH6fDnAPeNcdTAwMDFDq9auXGaGS92rq9ZcdTAwMTDXbo+eO2R2XHIr/eFiq1NvdZqT1Pbs8MxiIYxcdTAwMDRt7WbEXHUwMDA3XHUwMDFlmmI4e1BSg7JcdTAwMDZ8k//WrPRcYsGG6LfRqadPIVmi+qYwzzwlXHUwMDA0ajIjrDVcdTAwMTYt+9BcdTAwMTRcXJiFaFx1MDAxZFx1MDAxNkhcdTAwMWWeNyohhsRcdPqv+cFXtFx1MDAwMI6m75BcdTAwMDCOcEhY4aHgtShglXTa51xcXHUwMDFjaTDOvbE2eJG5XCKbmv8tXFxfXHUwMDA2TvRAOK5Qt0lcdTAwMTPlgOA8+OarXHUwMDEwRf7WuF+ZsG0+XHUwMDA3XHUwMDA07quw42GncEDc9Nuf1/mQglWCSGniWbI5XHUwMDFlsthWSZhIMuYxXHUwMDBlivSrXHUwMDA1h7Jtgilx6z3FuVx1MDAxMswyyZzx+aBeUZHwJGpcdTAwMDKhpVHOMVx1MDAxM1x1MDAwMYpcdTAwMDSCdYWKgjNjpEVcdTAwMDCWh3GnNVx1MDAxNL4s4+ZARVx1MDAwNoyxuDUh3yHtXHUwMDBiQPDdXHUwMDE3hsbdtFx1MDAwZUCoXHUwMDE5oqIrt9rmXHUwMDBiyyU9uD04Wb9fOPyuTu5zolwip8xUsqJQVFx1MDAxNEvv9NLS00jmaGQwi3pa8rTRtOesxVxyXHUwMDE0XHUwMDA2dTqTTvlHXHUwMDBi880s8FBcdTAwMWUwolGAO2O01MimToZcdTAwMDGR84xCjGhcdTAwMTBEOlx1MDAwNuDCpJxcdCDlwGhcYowsIUznjFx1MDAxNVrwMEKKYKdiXHUwMDExUjStZ0BISFieM0pZNVx1MDAxMXNcdTAwMTnpLTmGS2MvJlxub2mtsDxcblx1MDAxZvns099i9mXgRHykmUaaUSxkT9LkQ6bn2PdcdTAwMDdosvB3gEdvj8+U9uYq9XpcdTAwMWZcdTAwMWb57073bO6uUZ1cdTAwMWI0+rdcdTAwMWZcdTAwMWaxkWO4XHUwMDE5XHUwMDAwTSlgJlximjI8YZExXHUwMDFjXHUwMDE572vgXHUwMDAwXHUwMDEyrYwsSvVJTrA93mnu3rGBcuvLl5tcctDXXHUwMDA39vOwVrRcdTAwMDfYWOkpw1H2XHUwMDAwV9zZSTGFmsBD41iRhVx1MDAwZlx1MDAxMnxejKDAsSMj+v1DONzinDSY8d1fIYRz9XDXrc33d5SsbP083K1tPZzeqP/V3JF+o7VcXFx1MDAxZZxtXFycXHUwMDFmlkvVlf7D7ZndLWDco1x1MDAwM9U/LPXr263l+atWg4vNm2Yj27ipcFRcdTAwMDHTWuZx0iVcbp3YkJOIzVx1MDAwYpDcXCJto1x1MDAwMZBZ3kRcdTAwMTPVzOTNdFx1MDAxMSe0bzyBdqhUkfJGm1x1MDAxOclcdTAwMWKjPcNtVCaMXHUwMDBmZ73GjaVF6FmAyJk22qRcdTAwMDQ5WGdcdTAwMTdt2upW6nN/d6qVdlx1MDAwNanTp3tcdTAwMGKNPKUozCA0XHUwMDE4TSo8pUwxqGfTLVx1MDAxYeAnXHUwMDBi2ER/i0R6tVK8JMROhk8lak/GQDDK91GgtVx1MDAwZZEhXGLrgWZoIKCFI5nPlTJ2tzDjKaWksPhcctxcdTAwMTjxO1W2XHUwMDE4d4tCS1xcXHUwMDFiiFxmQlx0XHUwMDE3m1x1MDAxYiBcdTAwMWN+zLpZelvq9rInW48n5Zvbim7V1zZLtrSYz9uiuNHGzzNcdTAwMWbibYkld3qFXHR9PFxc6Fx0Z1x1MDAxZi+aR+vcMvLsID/jXHUwMDBilPPd9eSLoKDHU7yZpFx1MDAwMrM8jCgzOUiSJWNgUo5xK8Fag0arXHUwMDEwXHUwMDEw9pBYz1x1MDAxZlx01/LdPSbR9Fx1MDAxYVx1MDAxMqhhj4nSykN5KblcdTAwMTJcdTAwMGXJREyiXHUwMDAzcMyTz2s7krghceqUh4LWsd9cdTAwMDGmt0GTXHUwMDE34CPJXHUwMDAyXHUwMDE2zkZ5pHm86azIS6i0b4M+o1x1MDAwYuWjfSbxgaZcdTAwMTRAXHUwMDEy7zOZLt6UbFxiJuFcdTAwMWZjzESazdgmXHUwMDE4oXlkR+RViUZcctpXzoVdniCdZyVcdTAwMDfGueRcdTAwMTTKXHUwMDFjq6gx26LOMFxuJZwwzlx1MDAxMtvnwT/Tmlx0X5aNc+BcdTAwMWbBcFeQucN5zIRdff6YIHtLkFxm/9hpMtinRECqdNz+0fu5fl/mR9XuZceJo6PLXFxcdTAwMDa+UJIz8PPHx2ThcOU8XHUwMDE0jWhOXHUwMDAygTI+mYSjnVx1MDAwN1ZI5aQ2qOWMSlx1MDAxZC+ehUaXw9wzXHUwMDBiUJVcdTAwMDe/SGe44soqqZn0OUhe4Vx1MDAwYsWsrUR8XHUwMDAzqNa5fMlcInq/mFx1MDAxMzfMXHUwMDFhjVhKa0dRwTDM01x1MDAxZc5cdTAwMDZcdTAwMTddXHUwMDFhnLNcdTAwMTHvnqRcdTAwMTNN/llcdTAwMDCV4p4zXHUwMDFhXHUwMDAxK4A/mP/wclxyYZbViKnAhqWz01x1MDAxZVx1MDAxOFx1MDAxNOJcdTAwMTBcdTAwMTmPylx1MDAwNad+OTlcdTAwMWNcdKdcdTAwMWNcdTAwMDJcdTAwMTjBITphR1x1MDAwNd9cdTAwMWNXkyhG2rPwgNRcdTAwMWJk4lx1MDAwYpo6blTnepVmY+7zgqlcdTAwMTR0XHUwMDEzXHUwMDA0U1x1MDAxMU9UZMBJJyS3guNcXGeqXHUwMDBie5Jcbm2ze6y2Wkvdcr3ZWds41+rhfP3z8E60XHUwMDAzXHUwMDE4hasnmUapT1lcdTAwMTKMqclCRiOY56jewKLdIS3wwMRmXjQkmHFcdTAwMDBKuq9cdTAwMTVx2lmDk/v7ypGp7F5tMHF8u6aX9j66+vd4eH/qulx1MDAxN4c7e+3m7sXxwtH2+tFtUVx1MDAxMVx1MDAxY8bQNnz/XGLO2L9cdTAwMTJkYOVwXCJcYsSyM3D0Js2MgaeL4Fxizjwj0b63SuOih1x1MDAxOFiBJ2fCwFx1MDAxMjxcdTAwMDQ1zESny4SrhrjAW1x1MDAxZEJI+3ZOnjqQk5tKp9ertIBLyzvvXHUwMDE0vElRPkG1OjGRt5dcciVLqMSyISBcdTAwMTNLKnLiU4rsZN1cdTAwMTDCVJyOJNc0XHUwMDEzXGaRWkT/XHUwMDEyqT1cdTAwMGXWUNol7ij3lav4UmSp1kI7hl9cdTAwMDNMM/27cKigwiG0zLhmTkTmdEF80ruW2llnMlx054JU8LZim+e8eztfv37obK5cdTAwMWNcYmt3ckZtpNA+3+vH+SyE85wkXHUwMDBiUjJqXHUwMDEzM8ZC9FLGQ+SKaE6CNkw7odNcdTAwMDeM5SF6hblnPGBo0T4kXHUwMDEwhLqPMyU1Vc5yLn2zf/FcdTAwMTCgXHUwMDE4YdzgS1x1MDAwMLNcYlxmpvRaJEvZyUlRSFxu6VxcXHUwMDFhpan9gFxuTcpSNjM3YNBcZrVcbnR4Tlx1MDAwNbstojkgJKXDblx1MDAwYsGkJzVuvlx1MDAwMECTSYpJKa1AesZIXFxdRkkkvtT410IjbjyUXHUwMDE0Mc1O9FhcdTAwMDH/XHUwMDE2xy9cdTAwMDMnuy6Mc1xmLabISFB8wSau3LSFXHTJcSDJXHUwMDFkn676+lx1MDAwNVx1MDAxOa12+3NI7oh5/u5cdTAwMTC0oa+da7cuXHUwMDFic1x1MDAxN4M/51pXlWZcdTAwMDP/xmuDwVxcY1j7aP+GXHUwMDFlP2xcdTAwMDCIpUChIFx1MDAxMMv23KGnzlx1MDAxM09KNvOSwJnQ0uMoxoxcdTAwMDWjwfjSYUamXHUwMDA1SlXBXHUwMDFko15cdTAwMDXcWJ+t7rPpPYO3oEnAncZcdTAwMWZR+TT4XHUwMDFkSJTcKqVcdTAwMDTqXHUwMDE4myev/ozZXHUwMDFhY7+QMMiBzbS2KJF5ZOs5XHUwMDEx31x1MDAxMFx0rUhgyswyn2ZcdTAwMGZcdTAwMGX26jedI1t5eFTbtZv18sJiOScyM9p8fD6NRCiCyt5cdTAwMTLwclxipyBQ0lxyylx1MDAxM5ZL4KNcdTAwMDCAsVwibcB4XHUwMDA2XHUwMDFhXHJcdTAwMTjmnVkgs8wgiKF40Fxm8Vx1MDAxNkWjhTFcdTAwMTFcdTAwMTjIeFx1MDAwNqhwyVijnURk8Vx1MDAxMmGLXHUwMDAxZuH5XHUwMDE2XHUwMDA3j6LJMFx1MDAwMzySTHiaYn5cdTAwMDC4sShcbse8M4JHUnl2XHUwMDE08EFqRVx1MDAxYndsXHUwMDE1vUZ2mMeCZUnTXHUwMDA1dn45gVx1MDAxOIWOlNZaKVx1MDAxZdlcdI7Hdlx001ZRott71GFLXHUwMDEwvszqKdBRuTHodTuDxkfDnviwTlxuyFxiwp7wXHUwMDAzXHUwMDE1XHUwMDE41ZEq1inMXHUwMDE1mrhKsEydVZ/Ewo/5+rC2s3fgrtt7UNFnTdU9m2Fe/5R1REZ5XHUwMDE0zVx1MDAxMUIyVFx1MDAxMGJSXCKhXHTgKUVJ/UJcdTAwMTlqQFx1MDAxMitPZlVHpLhcdTAwMDArjC9F7StEdU5OZP3mdGV1u7XTXHUwMDFmnJ6W7rbWjzPXXHUwMDExfcLeq4njft/7cbTeNv3u2kL3dqO3O7QtVS1g3Fx1MDAxZNM6WNtdXlG31/Nsb909XtzVdGF1REBusFx1MDAxY6I3UerERaGkTMjOMlZr1PzZw1DRVDUzgTNdXHUwMDE4yjg3alckTaTAIXE0XHUwMDEzgZOrkIgxx1x1MDAxZMK2onFInlxiXHUwMDE0pyZcdTAwMTNTNV74xKVEKTpzZqVEyTI2uZSIwpmOI5bk1JIx4PtcdTAwMDBjyDDTZNgwalx1MDAxN1x1MDAxNfZ5XHUwMDAyd1x1MDAxZY7iNDKEVMzXXHUwMDAx6JUkXHLzgILUXHUwMDE2VZ9Ee10kMNkv71x1MDAwN82TSlx1MDAwYoYqvHhkPztcdTAwMWTfZpTajpE7a1x1MDAxYVx1MDAxM2BKXGJRqlx1MDAwMdTWxWJ9cXCoL/a6tav5+8dcXCqOWy7sVL7XQn1cdTAwMWYo8z1cdTAwMDSb1L+NXHUwMDEy0MVk3qvWXHUwMDFlMotx0lx0XHUwMDEwjNm00WKZZzRaiG/Gw4XW60NcdTAwMDJSnGkqmLXcKeou46KyaFx1MDAwNSV54sOBcpJDit8jblLJgjYwqaeaSMs4XG4tZXREmEyg8kRcdTAwMDXOjTJC4E6FXHUwMDE5rFiXSzT1h+Rz2OWiuVx1MDAxYVx1MDAxNachSVx1MDAxOeRXPplKK1x1MDAxY8UzUXozQVltXHUwMDEw7nxni+vt8stcdOLI3nfgwFBXplxiietiXS4kcLVRzlx1MDAxNFx1MDAxZZFCWIU0/qbKpHLj+qYxXHUwMDE4/vV3p93tNOc+QSu8+K4uKTgn7H2Jf7Q8kaVkUzNcdF5ZbjzaKO1QJVx1MDAwMFx1MDAwZiStgeJcdTAwMWX1vFx1MDAwMsM5/nFjd84ruKJeYExLrYSlWu6xTp9cdTAwMDBXXHUwMDE2bVx1MDAwZfwqw1x1MDAxY6jf+fFFtcWTTHBcdTAwMWXmapqLjfW8IZ+jwjOZXHUwMDFh+Fx1MDAxNISt9KD5c/7cqe71et/Ublx1MDAxN6rXp1edfO5cdTAwMDOpea6jZt5cdTAwMDdbzXMhUF8pLSR1hlx1MDAxNyje/J+XXHUwMDE2bVx1MDAxMYt6W1x1MDAxOC2RnWR6q+BY/qFXiHNmXHUwMDAxr/IgXHUwMDE5jVaZc1x1MDAxNKbEeUpcdTAwMTauXGJyXHUwMDFl01xic4ByYtG8Ni948/2KlCSuPCXDSUc1PDqySMlcdTAwMTnEsyNcdTAwMGY0VYi9N7aKpv4s2Eo9I3mnXHUwMDA1V3Lc4+/5SDmDi0tVyKNcdTAwMTIwyFx1MDAxOc3KXHUwMDA1rX45MVx1MDAxY1x1MDAxZM1iaOMwXHUwMDEzcjHS5GOrlNA2XHUwMDAyaizupjlCLlx1MDAwNVppire/XHJaPUV//u5cZs67/eHnxlYpICcuslx1MDAxNflsRVx1MDAwNrlMvKq1jiRMjsqHUqukhs1DsfejdFu7XllcdTAwMTWdyo+Hz8NPMaVLnDq4Olx1MDAwNlx1MDAxYTVcdTAwMTVSJptcdTAwMTRUXHUwMDFjbTy0XHUwMDAxXHUwMDE4XHUwMDE1cklHlaqxcsbVQFdVfjkzjnJFJJ2Ho1xcXHUwMDEyNVx1MDAxMWJa/bWCXFxcdTAwMGay39Vm7/tcdTAwMTnsm5/yulJeXFzsneer9UbEmCv+nchcdTAwMTVxQVx1MDAxOMVigzBA+Vx1MDAwMJazLFxyMJJcdTAwMWV6ZlxmMV1cZoZcdTAwMWPVnkIzXHUwMDFjXHUwMDEwKoZcdTAwMTlCcPDkjFx1MDAxOIIjXHUwMDA2yND45bVcdTAwMTSIkzNPm48sXHUwMDA1yk2l02ssWr+FvdJzK9U5n/Oo0ChMilRcdTAwMGZqruhcdTAwMTm9pTgom1wic/HZXHUwMDFhXGZ3RFmbKVx1MDAxOfGJcfnp5sVpu27uj+u34qh115YrO80voMnQXHUwMDFjM9TiYFx1MDAxNFx1MDAxZFx1MDAxNYHDO1CT0fFayLFgXHUwMDFjl/Hnfs1IkXHEpMg1yldcdTAwMWP9XHUwMDE1NNlCW+xcdTAwMGaO9torpfPDy5YqXHUwMDFmVy+XclVcdTAwMDDNSpPFN3vRjiGBiExcdTAwMGXTpIf+9JpMkZVcdTAwMGZEYzrMXHUwMDEwgJqMzYYh8ikyNP2ZUPK3XHUwMDFlK1SPpcj0T6LHXHUwMDE0i9VjgkkqO5M5ulx077TUbfNi62q7Wl36XHUwMDAx67vDk3al+lx1MDAwNfSY81x1MDAxOJPaMOGkcHwyXHUwMDBiXGIsXHUwMDAyUD46PEJT0Mcn5j5IkVHJo0Hu/lpcdTAwMTaZ1ff8dKuxgyb+ebneXWv86J1WP6NcdTAwMWWLrzJxQFx1MDAwN99cdTAwMTmb3Vwii37oz6/HpOes4qhCZJghJFeem1x1MDAxMUPkU2RcdTAwMTZAUlx1MDAxOcuHNtn+MEXWeSdFllwi1Fx1MDAxM1x1MDAxNFmnXHUwMDE4RfacYLrhmlx1MDAwYnZjs7d409pmi1x1MDAwNz97Z5f+42zjtd1cdTAwMTNNj/qtUUXLqFR8slx1MDAxNpgr7lx0JHbDXHUwMDE1XGJD7UHDpGjo3FwiOsRJXHUwMDE5irBFpYiDNJ5yXHUwMDE2/1x1MDAwMkZxQ5XAaEWxSiFcIqTepUDYh0dvI6JLz6abZZZr46KiXHQqVlxc45ZJajeQKYs5o5Z7c/b3n4nj3rbW71x1MDAxZr+vziOl7u5edPYvSnurxWSVI0VSPV6e5JJcdTAwMDRmTE6rT8qhcJRxR3kuaCBRXHUwMDAz0IDTwNmJlGtcdTAwMTVunVwimPKMXHUwMDA0ZVx1MDAxOFOac1x1MDAwN1x1MDAxMZgpScP98uG6PJ1SJDOWwG9U2kS45evYclx1MDAxMHQwXHUwMDA36Gl6N0+bNlH//v1od3e9cf3QPd1evVjaOTA/86VNXGKn2FTJV8WmpMbSd+DjoSf6gKxcdTAwMDZSm9w6ZS0lyHIrRGOeh1x1MDAwYmZcdTAwMDMpmiqt/+p7XHUwMDE2zEZcdTAwMTNKSHSFM1xmnDGepebhSoKVTlx1MDAwNrI3LXWxTpRcXEZ60onoOo/fjVAzo/GXTlx1MDAwMVQ8Ln1cdTAwMDeQZ6qXXHUwMDE1TFwiW9Fx3VOIpuRcZlx1MDAwMzRcdTAwMGW5naorWyB586OzXG7i62VT1H5Mxua7ZFx1MDAxMqj4o1x1MDAwM7SSXGLSMymf57jp9s5GXHUwMDA1ylx1MDAxN2W+fdCtXHUwMDBl6vLu4eBcdTAwMGIkXHUwMDEyKOFcdTAwMDGKI+qBhWY6m5RHaKB4oGgp6KhcdTAwMTnJ4o10ceZcdTAwMWFS5pcmOb1WiFx1MDAwNoRcdTAwMDT3xVqgfq+pxdXBwfXiRok1qt3G6kmrOszntbJKQJ5szESeiPVaydikKkFcdTAwMGVOLSGHXHUwMDFmN/qpZ8ZcdTAwMTBTu62cp6k9vXGgXYghpJpcdTAwMTVDMONJxXn2kk60UolO4EMjMHnpdHotRSt4/Hoo69zfnfeKwaRcYvaott1TxmBiXG46s6kyiFVlRlikW56dc80+LNmF+fJ1XHJcdTAwMWW264vzXHUwMDA3h0u3d19AlSE0RvBkJDXUUYGOXVx1MDAwMihcdNmgxlegXHUwMDE5xMdNZ6TJXHUwMDE0XHUwMDE4p7R1M/KBXHUwMDE1pMl6N4+355XVysPF9kq3tFXa2F4+2f6MmkzHN2C1nNxGOkeOaPRTf3pNprmnXHUwMDFkgKV8aFx1MDAxN+RcdTAwMDcpZ8VcdTAwMGb5XHUwMDE1mbBcdTAwMDJcdTAwMTCLXHUwMDE2kGLzW5H5XHUwMDE0WYpY/yyKLP4kdCtcdTAwMTChOuE7tSQ1l+DnzkWvpX8osy/c/fF6t3xyuvxcdTAwMDU0XHUwMDE5XHUwMDFklcRQmYGkWqTJ0KlcdTAwMTXas4oj21xuS930glx1MDAxM5u5KuOCoW2ghStcdTAwMDB5zlCXNUrbu/PfV35cXOzcXbbuL/lcdFx1MDAxY3duP6MuM1x1MDAxMMdcdTAwMTBcdTAwMWNQVqJkzWGVRT/159dl2mNCWkDVTaeZXHUwMDA2OEKaWXFEbmVmqY+K8Dc4+bWU2bslXHUwMDE0JEv2XHUwMDA0ZZY3oeAtyszFwlDN0U5hOtPRhU+ce79zs9rd7+9dLW6VTra/715cdTAwMWatlXc/UVxmP451UV2R085yMNryQE2lctTmlfqiMGml8p1cdTAwMDFWOOu+KffihZ01OUpcdTAwMTnoXHUwMDAy2LlAVfdEIP1Ga7k8ONu4OD8sl6or/YfbM7s7qfmmSig4OlD9w1K/vt1anr9qNbjYvGk2so2brkOBaS3ffFhSllx1MDAwNUhOKEDERfXJ1Fx1MDAwMlx0tchkZlx1MDAwZprpnjRcdTAwMDJA4y8k4nBTXHUwMDE1NFY86aSz1LiB+c6O9OEm4Vx0SnSzeFlKf2Thd6zuZeDpXHUwMDBlYlx1MDAxMdTYn0U2YNHxeT1cdTAwMTZcdTAwMDG2YTJTZVxcQYjztNWUXHUwMDBiJ1x1MDAwN9/L8+X5ymJl+b7H19bycVx1MDAwYpfSTZVcdTAwMThYaHpcdTAwMDFn2kNcdTAwMWNcdTAwMDaaTnpHgDPZ8kpYb1x1MDAxNN5cdTAwMDZBXHUwMDA1ecg3acPFclx1MDAwZr1CfDNcdTAwMWUttF5cdTAwMWZybCwga1x1MDAxYStcdTAwMWND0eAryJh7zVtgXHUwMDFlp35ejlpcbuCjsJcnyNmSIVn/T86JKEVrjVQjca/GcPl1UsqTOClGZ7RwOniVh9mr2IyJaNpcdTAwMGbJ5oiMXHSLOtk6lLzSgbG+XHUwMDEw1ciPNaJEbbjD65qpcL+c31x0XHUwMDEzRSZMSM65o3ZXXHUwMDExwjbUc/BcdTAwMTXrXG4y23imlPec6Vx1MDAxMtTo4Y1cclx1MDAxOT55ukRcbqgpKF1cIlx1MDAwYtJLXHUwMDAyUEhcdTAwMTbg4V4wxVx1MDAxMCRJoSbZ1Fwim0qBulx1MDAwMpgwQuowm1xutKxcdTAwMWRzlFx0JjX1r1x0c6smlzXXXG5cZqOMNt8t6cw7rfXwZZk3XHUwMDE3gnK4aVJGnpdiY1NcdTAwMDK4I7bGz81cdTAwMTBB7ba293dP9d3W8SNfvm/y4cNJez4ngnKcfXzP0HkuXHUwMDE0XHUwMDFkgmY1WFx1MDAwMYZCMP7Pz1tPo1x1MDAxOTI6YpBcdTAwMWFWuvST7GJcdTAwMTlodDXEO7NAUblcdTAwMTCLdIjymHbM4D98Z7nO+fI/ne/sP8Feen3lxFGZsVx1MDAxZOI2hFx1MDAxNVZSXHUwMDA1I+JSJmS4t5X2LJdMOVx1MDAwNMJ0gKBcdDczLVx1MDAxOEdFc0BcdTAwMTZcdTAwMWMlcf0svpwjXHUwMDFi1lx1MDAwNXCU1VxiXHUwMDFhLVxubqvpfMqQfC7uoJZfTlx1MDAxNEfhKIvkhMjWRInc+MRTjkaGXCJPWvGtraaXi1/npJZcdTAwMTR4U9RJLVnKe5KxXHUwMDE0oiVcdTAwMDRSKHDQXHUwMDFlXHUwMDE2jE16o0AxT4G2Rlx1MDAxM6RGuybsjuLW0Vx1MDAxOSjULFx1MDAxMEZ4LMyyXHUwMDFj+Z3KMlx1MDAwMVmeXHUwMDBlx/b1evzkdWafXHUwMDFkTTkjqFNcdTAwMDWLyimPP6BcdTAwMTJBXHUwMDE4biZ+coZcdTAwMWTYt5duXHUwMDE27W6/ZEranlVvL+xcdTAwMDFAI2eXUOs/WP3D0JSjsJyRliklqFx1MDAwNZz/05x5VlhNvl1cdTAwMDZCMJ3eIzSWf0ZXJ3wnXHUwMDFjx51cdTAwMDWWSq5cXJ3EUsxcdTAwMThljJFUeaVExNlzk0vC3Xu3YEeB5YCQrNTUMVxcqYgmoWbUllxc0rk1QFXj746koqk/XHUwMDBiktLgKU2nm43gaLDVg3SeXHUwMDFkVVx1MDAwZiCPMObCVcDFQalfTlx1MDAwZUeeXGLstNS40CzKJ1x1MDAxNV/gIVx1MDAwNJ1cdDzdOewpUGpqofh1oFRcbrop+tC70XxcIrZXWFx1MDAxMVx1MDAwZpaZXHUwMDE2ZLtB9o5Rt7W1pc2tw/Uh3HX6+zvt6/u19n5cZttcdTAwMDTI/8OSxZRcdTAwMTZcdTAwMWXQ8e/A8Yc/z+Pp+CnuUUyTXHUwMDA0PZXhQnznQ1x1MDAwNC68Jlx1MDAxMoXJv2qNuqxXovJiuCeR9KktteTG8YjEMU6N73GGXG5tXHUwMDFmo6lXd4iTcZ74S8U0pVx1MDAxOauMO3vHj06O7naGW3u7J6668mjv9vyKZ6/VWitfXHUwMDFloLV7IPlpeflele+bL8imcOSXPVx1MDAxN1x1MDAwN9FcdTAwMDSuj5qqwC9cdTAwMDBcdTAwMTSCyi/mSkZcdTAwMDCSVa1OXFwrXHUwMDE0w03cbTlaJ4pJZTVcdTAwMTmmUqV9mntcYniQ4Z1zdGj3OIeUXk55jlx1MDAwZVRgTFxuOvokNSDJqVhAKUkqnHNU1Vx1MDAxM/FNXCJ2XHUwMDAwJZigXHUwMDAzeCxXqeNcdTAwMDG1XHUwMDE1V8iDyIKUgFx1MDAxMsCnytNcdTAwMTRLlVx1MDAwZXA4merqU5ya3jurhKBHnjwhiGxHw5RDwUhtd2zqeUPaeoDrhmiXUSN9K8NzQ1x1MDAxY4MrKlxmQpa00SyunJbkXHUwMDE4RiHgO1x1MDAxNOVpMOFZnLfjyo6+Mlx1MDAxNYg7hOGoT8m3hoPayTCzo1Isy6itsEQxlz5cdTAwMWHuP0VcdTAwMTLxTslwdbQybyO5WJk3uso9prViXHUwMDAyXHUwMDFjkojVxmSZXHUwMDFlV7ho1mnDcYEmPcJcZp9cdTAwMTZcZpr7TFx1MDAxOMe4Tj1Bm+KmXHUwMDEyXHUwMDFjyVpLXHRWk8NpT1wialx1MDAxMshcdTAwMTfkXHUwMDA2sNqlXHJnwFx1MDAwM4ew3IJAiOtrsT1cdTAwMWFcdTAwMGUxL6pcdTAwMGbyVlxipEjQqatH3aFcdTAwMWNcdTAwMWRcdTAwMDZgLOCoevLQLDRQkPGI4jReRashbTg6s05cYmdQXHUwMDAxkt7XXFxcdTAwMDfHI1x1MDAxNYmmnEVcdTAwMWSjcf9Td8N6uD7UkoA6WFx0NknK5J/HPWXSoU1Dh3ukjlx1MDAxNydcZv/w/1x1MDAxZFx1MDAwN39cdTAwMWHtdqs3iERAnJl4n1x1MDAwMipUjSsoslcxXHUwMDFmXHLXXHUwMDE3jkFcdTAwMGVcdTAwMTC/yWFr5ara+361+lx1MDAwNVx1MDAxMFx1MDAxMFphhuJYUvpbXHI+nfjrPMrokjhcdTAwMTKgRcxcdTAwMDNcdTAwMTPLXHUwMDA3gM5Gr2hcdTAwMDAk0NZGjcBcdTAwMDBpLCpzXiBD0oFd5GxDRWRCrce0ITFsYmrCPlx1MDAwNP5MmXM8XHUwMDA1zklkgLjceGDx4UlU39RjI1x1MDAwN/F/b13UNy9PxdlefdDWO5ft+/uzlU9P/EBH1miOlI9cdTAwMTIzcFx1MDAxY1x1MDAxY5hcdTAwMDDxx9d5ZaF+IWy1ocPUbymWSV3r0lxcXHUwMDFhL6dUckQ6XFzbmFrlr03I09vstMbLlWGFLPBp0+aH3V5cXM78xJyDXHUwMDE2evh7395tL7lcdTAwMTNZYlxiXHUwMDA0OOV1odFKxqKUgYRcXFx1MDAxMFx1MDAwZWGmUNyJUdl7RFxiRID1XHUwMDEwXHUwMDEwUN5cdTAwMWQzXGK5NURcdTAwMTCmx1x1MDAxMVx1MDAwNFIjMVx1MDAxNLtcdTAwMTL88a9031tcdTAwMDZ++d/yveWIgSCMdlxmIDIlXHUwMDE3pVCsyJaIbjVzhZ/cQzDIKTFcdTAwMTVcdTAwMTdcdTAwMTfblyuWKuk1XHUwMDFmJsgwUMxr2Vx1MDAxN1x1MDAxOFqgPqqgqUVcdTAwMTeTdPZcZviOXHUwMDEwnXt15DtcdTAwMGbNXHUwMDAz6TTa28o4tClDVJKjTVdQOCR5+f94Xp1vlV7vYIj7//rM325bjbvFeDj3x/PsiDlcdTAwMWIjWv/nj3/+XHUwMDFmmPTuSSJ9<!-- payload-end -->
  <defs>
    <style class="style-fonts">
      @font-face {
        font-family: "Virgil";
        src: url("https://excalidraw.com/Virgil.woff2");
      }
      @font-face {
        font-family: "Cascadia";
        src: url("https://excalidraw.com/Cascadia.woff2");
      }
    </style>
    
  </defs>
  <rect x="0" y="0" width="1583.5167197027317" height="897.4634001053992" fill="#ffffff"></rect><g stroke-linecap="round" transform="translate(221.59960674836253 307.1956763305577) rotate(0 62 44)"><path d="M22 0 M22 0 C53.9 0, 85.81 0, 102 0 M22 0 C38.63 0, 55.26 0, 102 0 M102 0 C116.67 0, 124 7.33, 124 22 M102 0 C116.67 0, 124 7.33, 124 22 M124 22 C124 35.11, 124 48.23, 124 66 M124 22 C124 37.78, 124 53.57, 124 66 M124 66 C124 80.67, 116.67 88, 102 88 M124 66 C124 80.67, 116.67 88, 102 88 M102 88 C84.83 88, 67.66 88, 22 88 M102 88 C73.95 88, 45.89 88, 22 88 M22 88 C7.33 88, 0 80.67, 0 66 M22 88 C7.33 88, 0 80.67, 0 66 M0 66 C0 51.28, 0 36.56, 0 22 M0 66 C0 51.08, 0 36.16, 0 22 M0 22 C0 7.33, 7.33 0, 22 0 M0 22 C0 7.33, 7.33 0, 22 0" stroke="#e03131" stroke-width="2" fill="none"></path></g><g transform="translate(246.92480206086253 339.6956763305577) rotate(0 36.6748046875 11.5)"><text x="36.6748046875" y="0" font-family="Helvetica, Segoe UI Emoji" font-size="20px" fill="#e03131" text-anchor="middle" style="white-space: pre;" direction="ltr" dominant-baseline="text-before-edge">Browser</text></g><g stroke-linecap="round" transform="translate(175.7564427939617 10) rotate(0 62 44)"><path d="M22 0 M22 0 C41.7 0, 61.39 0, 102 0 M22 0 C40.66 0, 59.32 0, 102 0 M102 0 C116.67 0, 124 7.33, 124 22 M102 0 C116.67 0, 124 7.33, 124 22 M124 22 C124 32.35, 124 42.7, 124 66 M124 22 C124 39.52, 124 57.05, 124 66 M124 66 C124 80.67, 116.67 88, 102 88 M124 66 C124 80.67, 116.67 88, 102 88 M102 88 C76.19 88, 50.37 88, 22 88 M102 88 C72.76 88, 43.51 88, 22 88 M22 88 C7.33 88, 0 80.67, 0 66 M22 88 C7.33 88, 0 80.67, 0 66 M0 66 C0 54.72, 0 43.45, 0 22 M0 66 C0 49.19, 0 32.39, 0 22 M0 22 C0 7.33, 7.33 0, 22 0 M0 22 C0 7.33, 7.33 0, 22 0" stroke="#1971c2" stroke-width="2" fill="none"></path></g><g transform="translate(216.6431615439617 42.5) rotate(0 21.11328125 11.5)"><text x="21.11328125" y="0" font-family="Helvetica, Segoe UI Emoji" font-size="20px" fill="#1971c2" text-anchor="middle" style="white-space: pre;" direction="ltr" dominant-baseline="text-before-edge">DNS</text></g><g mask="url(#mask-TVXECyCO-zB1TRBrodaJi)" stroke-linecap="round"><g transform="translate(272.7193425708297 301.1956763305577) rotate(0 -29.68970467890631 -97.09783816527884)"><path d="M0 0 C-9.86 -20.19, -56.01 -88.78, -59.19 -121.14 C-62.36 -153.51, -25.72 -182.02, -19.03 -194.2 M0 0 C-9.86 -20.19, -56.01 -88.78, -59.19 -121.14 C-62.36 -153.51, -25.72 -182.02, -19.03 -194.2" stroke="#e03131" stroke-width="2" fill="none"></path></g><g transform="translate(272.7193425708297 301.1956763305577) rotate(0 -29.68970467890631 -97.09783816527884)"><path d="M-28.85 -165.85 C-25.93 -174.3, -23 -182.74, -19.03 -194.2 M-28.85 -165.85 C-26.47 -172.74, -24.08 -179.62, -19.03 -194.2" stroke="#e03131" stroke-width="2" fill="none"></path></g><g transform="translate(272.7193425708297 301.1956763305577) rotate(0 -29.68970467890631 -97.09783816527884)"><path d="M-44.77 -178.8 C-37.1 -183.39, -29.43 -187.97, -19.03 -194.2 M-44.77 -178.8 C-38.52 -182.54, -32.26 -186.28, -19.03 -194.2" stroke="#e03131" stroke-width="2" fill="none"></path></g></g><mask id="mask-TVXECyCO-zB1TRBrodaJi"><rect x="0" y="0" fill="#fff" width="431.90465673389707" height="595.3913526611154"></rect><rect x="202.42074715776243" y="168.55451459696468" fill="#000" width="22.2265625" height="23" opacity="1"></rect></mask><g transform="translate(202.42074715776243 168.55451459696462) rotate(0 40.60889073416104 35.54332356831419)"><text x="11.11328125" y="0" font-family="Helvetica, Segoe UI Emoji" font-size="20px" fill="#e03131" text-anchor="middle" style="white-space: pre;" direction="ltr" dominant-baseline="text-before-edge">url</text></g><g mask="url(#mask-QoPyq6p64_LrdeRBgn1c4)" stroke-linecap="round"><g transform="translate(309.5078601088651 62.65456555570776) rotate(0 26.218836366321966 121.27055538742496)"><path d="M0 0 C8.74 10.77, 51.25 24.19, 52.41 64.61 C53.58 105.03, 14.56 212.89, 6.99 242.54 M0 0 C8.74 10.77, 51.25 24.19, 52.41 64.61 C53.58 105.03, 14.56 212.89, 6.99 242.54" stroke="#1971c2" stroke-width="2" fill="none"></path></g><g transform="translate(309.5078601088651 62.65456555570776) rotate(0 26.218836366321966 121.27055538742496)"><path d="M5.39 212.58 C5.96 223.31, 6.54 234.03, 6.99 242.54 M5.39 212.58 C6 223.91, 6.6 235.24, 6.99 242.54" stroke="#1971c2" stroke-width="2" fill="none"></path></g><g transform="translate(309.5078601088651 62.65456555570776) rotate(0 26.218836366321966 121.27055538742496)"><path d="M25.02 218.57 C18.57 227.15, 12.11 235.73, 6.99 242.54 M25.02 218.57 C18.2 227.63, 11.38 236.7, 6.99 242.54" stroke="#1971c2" stroke-width="2" fill="none"></path></g></g><mask id="mask-QoPyq6p64_LrdeRBgn1c4"><rect x="0" y="0" fill="#fff" width="461.91998658485585" height="405.1956763305577"></rect><rect x="301.89557252235585" y="104.26559046393717" fill="#000" width="120.048828125" height="46" opacity="1"></rect></mask><g transform="translate(301.8955725223559 104.2655904639372) rotate(0 33.831123952831206 79.65953047919555)"><text x="60.0244140625" y="0" font-family="Helvetica, Segoe UI Emoji" font-size="20px" fill="#1971c2" text-anchor="middle" style="white-space: pre;" direction="ltr" dominant-baseline="text-before-edge">IP address</text><text x="60.0244140625" y="23" font-family="Helvetica, Segoe UI Emoji" font-size="20px" fill="#1971c2" text-anchor="middle" style="white-space: pre;" direction="ltr" dominant-baseline="text-before-edge">of web server</text></g><g stroke-linecap="round" transform="translate(694.0654639056663 591.7786443050433) rotate(0 62 44)"><path d="M22 0 M22 0 C43.04 0, 64.09 0, 102 0 M22 0 C38.84 0, 55.68 0, 102 0 M102 0 C116.67 0, 124 7.33, 124 22 M102 0 C116.67 0, 124 7.33, 124 22 M124 22 C124 35.31, 124 48.63, 124 66 M124 22 C124 38.03, 124 54.07, 124 66 M124 66 C124 80.67, 116.67 88, 102 88 M124 66 C124 80.67, 116.67 88, 102 88 M102 88 C73.16 88, 44.33 88, 22 88 M102 88 C75.31 88, 48.63 88, 22 88 M22 88 C7.33 88, 0 80.67, 0 66 M22 88 C7.33 88, 0 80.67, 0 66 M0 66 C0 49.69, 0 33.38, 0 22 M0 66 C0 54.71, 0 43.41, 0 22 M0 22 C0 7.33, 7.33 0, 22 0 M0 22 C0 7.33, 7.33 0, 22 0" stroke="#846358" stroke-width="2" fill="none"></path></g><g transform="translate(717.7060889056663 612.7786443050433) rotate(0 38.359375 23)"><text x="38.359375" y="0" font-family="Helvetica, Segoe UI Emoji" font-size="20px" fill="#846358" text-anchor="middle" style="white-space: pre;" direction="ltr" dominant-baseline="text-before-edge">Load </text><text x="38.359375" y="23" font-family="Helvetica, Segoe UI Emoji" font-size="20px" fill="#846358" text-anchor="middle" style="white-space: pre;" direction="ltr" dominant-baseline="text-before-edge">balancer</text></g><g mask="url(#mask-6TQRNZh-qgj0gI6yYPE9T)" stroke-linecap="round"><g transform="translate(357.17855411678335 391.146246444147) rotate(0 164.18029699970464 103.77771431558864)"><path d="M0 0 C54.73 34.59, 273.63 172.96, 328.36 207.56 M0 0 C54.73 34.59, 273.63 172.96, 328.36 207.56" stroke="#e03131" stroke-width="2" fill="none"></path></g><g transform="translate(357.17855411678335 391.146246444147) rotate(0 164.18029699970464 103.77771431558864)"><path d="M299.05 201.17 C309.25 203.39, 319.45 205.61, 328.36 207.56 M299.05 201.17 C305.2 202.51, 311.34 203.85, 328.36 207.56" stroke="#e03131" stroke-width="2" fill="none"></path></g><g transform="translate(357.17855411678335 391.146246444147) rotate(0 164.18029699970464 103.77771431558864)"><path d="M310.01 183.82 C316.4 192.08, 322.79 200.34, 328.36 207.56 M310.01 183.82 C313.86 188.8, 317.71 193.78, 328.36 207.56" stroke="#e03131" stroke-width="2" fill="none"></path></g></g><mask id="mask-6TQRNZh-qgj0gI6yYPE9T"><rect x="0" y="0" fill="#fff" width="785.5391481161926" height="698.7016750753243"></rect><rect x="473.73189799148804" y="483.4239607597357" fill="#000" width="95.25390625" height="23" opacity="1"></rect></mask><g transform="translate(473.73189799148804 483.4239607597357) rotate(0 47.626953125 11.499999999999943)"><text x="47.626953125" y="0" font-family="Helvetica, Segoe UI Emoji" font-size="20px" fill="#e03131" text-anchor="middle" style="white-space: pre;" direction="ltr" dominant-baseline="text-before-edge">IP address</text></g><g mask="url(#mask-8qQDQASmsnbi8VNLBOcJ-)" stroke-linecap="round"><g transform="translate(686.5469751694147 640.8275226047102) rotate(0 -174.92065057097238 -114.37921639905264)"><path d="M0 0 C-26.59 -11.56, -101.26 -31.26, -159.56 -69.38 C-217.87 -107.51, -318.13 -202.2, -349.84 -228.76 M0 0 C-26.59 -11.56, -101.26 -31.26, -159.56 -69.38 C-217.87 -107.51, -318.13 -202.2, -349.84 -228.76" stroke="#846358" stroke-width="2" fill="none"></path></g><g transform="translate(686.5469751694147 640.8275226047102) rotate(0 -174.92065057097238 -114.37921639905264)"><path d="M-321.92 -217.78 C-332.38 -221.9, -342.85 -226.01, -349.84 -228.76 M-321.92 -217.78 C-330.87 -221.3, -339.81 -224.81, -349.84 -228.76" stroke="#846358" stroke-width="2" fill="none"></path></g><g transform="translate(686.5469751694147 640.8275226047102) rotate(0 -174.92065057097238 -114.37921639905264)"><path d="M-335.51 -202.4 C-340.88 -212.28, -346.25 -222.15, -349.84 -228.76 M-335.51 -202.4 C-340.1 -210.85, -344.69 -219.29, -349.84 -228.76" stroke="#846358" stroke-width="2" fill="none"></path></g></g><mask id="mask-8qQDQASmsnbi8VNLBOcJ-"><rect x="0" y="0" fill="#fff" width="1136.3882763113595" height="969.5859554028154"></rect><rect x="478.79628424174325" y="559.9450631368675" fill="#000" width="96.376953125" height="23" opacity="1"></rect></mask><g transform="translate(478.79628424174325 559.9450631368676) rotate(0 32.830040356699214 -33.49675693120989)"><text x="48.1884765625" y="0" font-family="Helvetica, Segoe UI Emoji" font-size="20px" fill="#846358" text-anchor="middle" style="white-space: pre;" direction="ltr" dominant-baseline="text-before-edge">Web page </text></g><g stroke-linecap="round" transform="translate(79.90084121796832 666.0955328810934) rotate(0 62 44)"><path d="M22 0 M22 0 C40.72 0, 59.44 0, 102 0 M22 0 C49.26 0, 76.52 0, 102 0 M102 0 C116.67 0, 124 7.33, 124 22 M102 0 C116.67 0, 124 7.33, 124 22 M124 22 C124 36.71, 124 51.42, 124 66 M124 22 C124 32.65, 124 43.31, 124 66 M124 66 C124 80.67, 116.67 88, 102 88 M124 66 C124 80.67, 116.67 88, 102 88 M102 88 C81.35 88, 60.7 88, 22 88 M102 88 C79.4 88, 56.8 88, 22 88 M22 88 C7.33 88, 0 80.67, 0 66 M22 88 C7.33 88, 0 80.67, 0 66 M0 66 C0 54.98, 0 43.96, 0 22 M0 66 C0 52.16, 0 38.33, 0 22 M0 22 C0 7.33, 7.33 0, 22 0 M0 22 C0 7.33, 7.33 0, 22 0" stroke="#1971c2" stroke-width="2" fill="none"></path></g><g transform="translate(120.23580215546832 698.5955328810934) rotate(0 21.6650390625 11.5)"><text x="21.6650390625" y="0" font-family="Helvetica, Segoe UI Emoji" font-size="20px" fill="#1971c2" text-anchor="middle" style="white-space: pre;" direction="ltr" dominant-baseline="text-before-edge">CDN</text></g><g mask="url(#mask-z2iLw1oQ_5Kf3efWG_zyg)" stroke-linecap="round"><g transform="translate(248.87885427886494 408.29745405364736) rotate(0 -73.15022212113603 124.59345255153033)"><path d="M0 0 C-21.66 9.57, -105.59 15.86, -129.94 57.39 C-154.3 98.92, -143.44 217.22, -146.14 249.19 M0 0 C-21.66 9.57, -105.59 15.86, -129.94 57.39 C-154.3 98.92, -143.44 217.22, -146.14 249.19" stroke="#e03131" stroke-width="2" fill="none"></path></g><g transform="translate(248.87885427886494 408.29745405364736) rotate(0 -73.15022212113603 124.59345255153033)"><path d="M-156.35 220.98 C-154.03 227.37, -151.72 233.77, -146.14 249.19 M-156.35 220.98 C-154.01 227.44, -151.67 233.91, -146.14 249.19" stroke="#e03131" stroke-width="2" fill="none"></path></g><g transform="translate(248.87885427886494 408.29745405364736) rotate(0 -73.15022212113603 124.59345255153033)"><path d="M-135.83 221.01 C-138.17 227.4, -140.5 233.79, -146.14 249.19 M-135.83 221.01 C-138.19 227.47, -140.55 233.93, -146.14 249.19" stroke="#e03131" stroke-width="2" fill="none"></path></g></g><mask id="mask-z2iLw1oQ_5Kf3efWG_zyg"><rect x="0" y="0" fill="#fff" width="495.0175751601864" height="757.484359156708"></rect><rect x="10" y="431.1890814903543" fill="#000" width="217.87109375" height="69" opacity="1"></rect></mask><g transform="translate(10 431.1890814903543) rotate(0 165.7286321577289 101.70182511482341)"><text x="108.935546875" y="0" font-family="Helvetica, Segoe UI Emoji" font-size="20px" fill="#e03131" text-anchor="middle" style="white-space: pre;" direction="ltr" dominant-baseline="text-before-edge">For static</text><text x="108.935546875" y="23" font-family="Helvetica, Segoe UI Emoji" font-size="20px" fill="#e03131" text-anchor="middle" style="white-space: pre;" direction="ltr" dominant-baseline="text-before-edge">contents like js, images, </text><text x="108.935546875" y="46" font-family="Helvetica, Segoe UI Emoji" font-size="20px" fill="#e03131" text-anchor="middle" style="white-space: pre;" direction="ltr" dominant-baseline="text-before-edge">css etc</text></g><g mask="url(#mask-Wtx_9ojTNPlgOjWAVMHVv)" stroke-linecap="round"><g transform="translate(173.65792196684703 658.3621400933991) rotate(0 62.360990609806066 -132.16609277645293)"><path d="M0 0 C6.76 -22.55, 19.78 -91.23, 40.57 -135.28 C61.36 -179.34, 110.7 -242.82, 124.72 -264.33 M0 0 C6.76 -22.55, 19.78 -91.23, 40.57 -135.28 C61.36 -179.34, 110.7 -242.82, 124.72 -264.33" stroke="#f08c00" stroke-width="2" fill="none"></path></g><g transform="translate(173.65792196684703 658.3621400933991) rotate(0 62.360990609806066 -132.16609277645293)"><path d="M116.89 -235.37 C119.6 -245.39, 122.31 -255.41, 124.72 -264.33 M116.89 -235.37 C119.62 -245.47, 122.35 -255.58, 124.72 -264.33" stroke="#f08c00" stroke-width="2" fill="none"></path></g><g transform="translate(173.65792196684703 658.3621400933991) rotate(0 62.360990609806066 -132.16609277645293)"><path d="M100.11 -247.18 C108.62 -253.12, 117.14 -259.05, 124.72 -264.33 M100.11 -247.18 C108.69 -253.17, 117.28 -259.15, 124.72 -264.33" stroke="#f08c00" stroke-width="2" fill="none"></path></g></g><mask id="mask-Wtx_9ojTNPlgOjWAVMHVv"><rect x="0" y="0" fill="#fff" width="398.37990318645916" height="1022.6943256463051"></rect><rect x="169.19800876283426" y="511.5807089270612" fill="#000" width="90.05859375" height="23" opacity="1"></rect></mask><g transform="translate(169.19800876283432 511.5807089270613) rotate(0 66.82090381381883 14.615338389884897)"><text x="45.029296875" y="0" font-family="Helvetica, Segoe UI Emoji" font-size="20px" fill="#f08c00" text-anchor="middle" style="white-space: pre;" direction="ltr" dominant-baseline="text-before-edge">Response</text></g><g stroke-linecap="round" transform="translate(684.9948659936802 199.70259800875195) rotate(0 62 44)"><path d="M22 0 M22 0 C41.87 0, 61.75 0, 102 0 M22 0 C44.81 0, 67.63 0, 102 0 M102 0 C116.67 0, 124 7.33, 124 22 M102 0 C116.67 0, 124 7.33, 124 22 M124 22 C124 36.36, 124 50.71, 124 66 M124 22 C124 37.2, 124 52.4, 124 66 M124 66 C124 80.67, 116.67 88, 102 88 M124 66 C124 80.67, 116.67 88, 102 88 M102 88 C75.84 88, 49.68 88, 22 88 M102 88 C75.66 88, 49.31 88, 22 88 M22 88 C7.33 88, 0 80.67, 0 66 M22 88 C7.33 88, 0 80.67, 0 66 M0 66 C0 52.5, 0 39.01, 0 22 M0 66 C0 55, 0 44, 0 22 M0 22 C0 7.33, 7.33 0, 22 0 M0 22 C0 7.33, 7.33 0, 22 0" stroke="#846358" stroke-width="2" fill="none"></path></g><g transform="translate(708.6354909936802 220.70259800875195) rotate(0 38.359375 23)"><text x="38.359375" y="0" font-family="Helvetica, Segoe UI Emoji" font-size="20px" fill="#846358" text-anchor="middle" style="white-space: pre;" direction="ltr" dominant-baseline="text-before-edge">Load </text><text x="38.359375" y="23" font-family="Helvetica, Segoe UI Emoji" font-size="20px" fill="#846358" text-anchor="middle" style="white-space: pre;" direction="ltr" dominant-baseline="text-before-edge">balancer</text></g><g mask="url(#mask-JFQQ2yqCKwWDWPNqz8G5R)" stroke-linecap="round"><g transform="translate(352.83350020195667 322.8647236723392) rotate(0 159.72198201725055 -36.262593751000594)"><path d="M0 0 C35.37 -11.03, 159 -54.44, 212.24 -66.17 C265.48 -77.9, 301.58 -69.67, 319.44 -70.37 M0 0 C35.37 -11.03, 159 -54.44, 212.24 -66.17 C265.48 -77.9, 301.58 -69.67, 319.44 -70.37" stroke="#e03131" stroke-width="2" fill="none"></path></g><g transform="translate(352.83350020195667 322.8647236723392) rotate(0 159.72198201725055 -36.262593751000594)"><path d="M290.8 -61.46 C296.93 -63.37, 303.06 -65.28, 319.44 -70.37 M290.8 -61.46 C298.19 -63.76, 305.59 -66.06, 319.44 -70.37" stroke="#e03131" stroke-width="2" fill="none"></path></g><g transform="translate(352.83350020195667 322.8647236723392) rotate(0 159.72198201725055 -36.262593751000594)"><path d="M291.77 -81.96 C297.7 -79.48, 303.62 -77, 319.44 -70.37 M291.77 -81.96 C298.92 -78.97, 306.06 -75.98, 319.44 -70.37" stroke="#e03131" stroke-width="2" fill="none"></path></g></g><mask id="mask-JFQQ2yqCKwWDWPNqz8G5R"><rect x="0" y="0" fill="#fff" width="772.2774642364577" height="493.23384249980603"></rect><rect x="525.0498215657694" y="233.6969287491384" fill="#000" width="80.048828125" height="46" opacity="1"></rect></mask><g transform="translate(525.0498215657693 233.69692874913835) rotate(0 -12.494339346562157 52.90520117220021)"><text x="40.0244140625" y="0" font-family="Helvetica, Segoe UI Emoji" font-size="20px" fill="#e03131" text-anchor="middle" style="white-space: pre;" direction="ltr" dominant-baseline="text-before-edge">Request:</text><text x="40.0244140625" y="23" font-family="Helvetica, Segoe UI Emoji" font-size="20px" fill="#e03131" text-anchor="middle" style="white-space: pre;" direction="ltr" dominant-baseline="text-before-edge">long url</text></g><g mask="url(#mask--zlsT7u3K1H3lEH7R2GVm)" stroke-linecap="round"><g transform="translate(727.1857135397836 296.76278186533) rotate(0 -182.30323264126844 35.192979088546764)"><path d="M0 0 C-20.34 8.12, -61.28 37, -122.05 48.73 C-182.81 60.46, -324.18 66.78, -364.61 70.39 M0 0 C-20.34 8.12, -61.28 37, -122.05 48.73 C-182.81 60.46, -324.18 66.78, -364.61 70.39" stroke="#846358" stroke-width="2" fill="none"></path></g><g transform="translate(727.1857135397836 296.76278186533) rotate(0 -182.30323264126844 35.192979088546764)"><path d="M-337.19 58.21 C-344.22 61.33, -351.24 64.45, -364.61 70.39 M-337.19 58.21 C-344.42 61.42, -351.66 64.64, -364.61 70.39" stroke="#846358" stroke-width="2" fill="none"></path></g><g transform="translate(727.1857135397836 296.76278186533) rotate(0 -182.30323264126844 35.192979088546764)"><path d="M-335.78 78.68 C-343.16 76.56, -350.55 74.43, -364.61 70.39 M-335.78 78.68 C-343.38 76.49, -350.99 74.3, -364.61 70.39" stroke="#846358" stroke-width="2" fill="none"></path></g></g><mask id="mask--zlsT7u3K1H3lEH7R2GVm"><rect x="0" y="0" fill="#fff" width="1191.7921788223205" height="467.1487400424235"></rect><rect x="560.110791869461" y="322.49152214177934" fill="#000" width="90.05859375" height="46" opacity="1"></rect></mask><g transform="translate(560.1107918694611 322.4915221417794) rotate(0 -15.228310970945927 9.46423881209742)"><text x="45.029296875" y="0" font-family="Helvetica, Segoe UI Emoji" font-size="20px" fill="#846358" text-anchor="middle" style="white-space: pre;" direction="ltr" dominant-baseline="text-before-edge">Response</text><text x="45.029296875" y="23" font-family="Helvetica, Segoe UI Emoji" font-size="20px" fill="#846358" text-anchor="middle" style="white-space: pre;" direction="ltr" dominant-baseline="text-before-edge">short url</text></g><g stroke-linecap="round" transform="translate(1052.0847094095984 126.06805714656181) rotate(0 61 44)"><path d="M22 0 M22 0 C50.11 0, 78.22 0, 100 0 M22 0 C40.97 0, 59.94 0, 100 0 M100 0 C114.67 0, 122 7.33, 122 22 M100 0 C114.67 0, 122 7.33, 122 22 M122 22 C122 35.98, 122 49.95, 122 66 M122 22 C122 30.99, 122 39.99, 122 66 M122 66 C122 80.67, 114.67 88, 100 88 M122 66 C122 80.67, 114.67 88, 100 88 M100 88 C72.87 88, 45.74 88, 22 88 M100 88 C79.6 88, 59.19 88, 22 88 M22 88 C7.33 88, 0 80.67, 0 66 M22 88 C7.33 88, 0 80.67, 0 66 M0 66 C0 49.18, 0 32.36, 0 22 M0 66 C0 55.15, 0 44.3, 0 22 M0 22 C0 7.33, 7.33 0, 22 0 M0 22 C0 7.33, 7.33 0, 22 0" stroke="#9c36b5" stroke-width="2" fill="none"></path></g><g transform="translate(1058.0651781595984 158.5680571465618) rotate(0 55.01953125 11.5)"><text x="55.01953125" y="0" font-family="Helvetica, Segoe UI Emoji" font-size="20px" fill="#9c36b5" text-anchor="middle" style="white-space: pre;" direction="ltr" dominant-baseline="text-before-edge">API server 1</text></g><g stroke-linecap="round" transform="translate(1054.1675703046305 225.69125948952487) rotate(0 61 44)"><path d="M22 0 M22 0 C43.7 0, 65.4 0, 100 0 M22 0 C47.2 0, 72.41 0, 100 0 M100 0 C114.67 0, 122 7.33, 122 22 M100 0 C114.67 0, 122 7.33, 122 22 M122 22 C122 31.57, 122 41.13, 122 66 M122 22 C122 38.32, 122 54.63, 122 66 M122 66 C122 80.67, 114.67 88, 100 88 M122 66 C122 80.67, 114.67 88, 100 88 M100 88 C78.35 88, 56.69 88, 22 88 M100 88 C72.64 88, 45.29 88, 22 88 M22 88 C7.33 88, 0 80.67, 0 66 M22 88 C7.33 88, 0 80.67, 0 66 M0 66 C0 48.51, 0 31.02, 0 22 M0 66 C0 51.85, 0 37.7, 0 22 M0 22 C0 7.33, 7.33 0, 22 0 M0 22 C0 7.33, 7.33 0, 22 0" stroke="#9c36b5" stroke-width="2" fill="none"></path></g><g transform="translate(1060.1480390546305 258.1912594895249) rotate(0 55.01953125 11.5)"><text x="55.01953125" y="0" font-family="Helvetica, Segoe UI Emoji" font-size="20px" fill="#9c36b5" text-anchor="middle" style="white-space: pre;" direction="ltr" dominant-baseline="text-before-edge">API server 1</text></g><g stroke-linecap="round" transform="translate(1058.499013884759 328.56304451758456) rotate(0 61 44)"><path d="M22 0 M22 0 C45.98 0, 69.97 0, 100 0 M22 0 C38.23 0, 54.46 0, 100 0 M100 0 C114.67 0, 122 7.33, 122 22 M100 0 C114.67 0, 122 7.33, 122 22 M122 22 C122 36.89, 122 51.78, 122 66 M122 22 C122 31.6, 122 41.2, 122 66 M122 66 C122 80.67, 114.67 88, 100 88 M122 66 C122 80.67, 114.67 88, 100 88 M100 88 C79.33 88, 58.66 88, 22 88 M100 88 C82.53 88, 65.05 88, 22 88 M22 88 C7.33 88, 0 80.67, 0 66 M22 88 C7.33 88, 0 80.67, 0 66 M0 66 C0 53.78, 0 41.57, 0 22 M0 66 C0 48.6, 0 31.2, 0 22 M0 22 C0 7.33, 7.33 0, 22 0 M0 22 C0 7.33, 7.33 0, 22 0" stroke="#9c36b5" stroke-width="2" fill="none"></path></g><g transform="translate(1064.479482634759 361.06304451758456) rotate(0 55.01953125 11.5)"><text x="55.01953125" y="0" font-family="Helvetica, Segoe UI Emoji" font-size="20px" fill="#9c36b5" text-anchor="middle" style="white-space: pre;" direction="ltr" dominant-baseline="text-before-edge">API server n</text></g><g stroke-linecap="round" transform="translate(1026.3729769119898 96.4335162843717) rotate(0 89.87745428767312 173.79917365266925)"><path d="M32 0 M32 0 C64.14 0, 96.28 0, 147.75 0 M147.75 0 C169.09 0, 179.75 10.67, 179.75 32 M179.75 32 C179.75 97.23, 179.75 162.46, 179.75 315.6 M179.75 315.6 C179.75 336.93, 169.09 347.6, 147.75 347.6 M147.75 347.6 C111.37 347.6, 74.99 347.6, 32 347.6 M32 347.6 C10.67 347.6, 0 336.93, 0 315.6 M0 315.6 C0 229.39, 0 143.18, 0 32 M0 32 C0 10.67, 10.67 0, 32 0" stroke="#9c36b5" stroke-width="2.5" fill="none" stroke-dasharray="1.5 8"></path></g><g mask="url(#mask-UPYVHl7roGAovJpOt8i5b)" stroke-linecap="round"><g transform="translate(821.7122677509026 243.7025980087519) rotate(0 102.87178502805966 0)"><path d="M0 0 C34.29 0, 171.45 0, 205.74 0 M0 0 C34.29 0, 171.45 0, 205.74 0" stroke="#846358" stroke-width="2" fill="none"></path></g><g transform="translate(821.7122677509026 243.7025980087519) rotate(0 102.87178502805966 0)"><path d="M177.55 10.26 C185.35 7.42, 193.14 4.59, 205.74 0 M177.55 10.26 C186.33 7.07, 195.1 3.87, 205.74 0" stroke="#846358" stroke-width="2" fill="none"></path></g><g transform="translate(821.7122677509026 243.7025980087519) rotate(0 102.87178502805966 0)"><path d="M177.55 -10.26 C185.35 -7.42, 193.14 -4.59, 205.74 0 M177.55 -10.26 C186.33 -7.07, 195.1 -3.87, 205.74 0" stroke="#846358" stroke-width="2" fill="none"></path></g></g><mask id="mask-UPYVHl7roGAovJpOt8i5b"><rect x="0" y="0" fill="#fff" width="1127.455837807022" height="343.7025980087519"></rect><rect x="887.3379590289624" y="232.20259800875186" fill="#000" width="74.4921875" height="23" opacity="1"></rect></mask><g transform="translate(887.3379590289622 232.20259800875186) rotate(0 37.24609375 11.5)"><text x="37.24609375" y="0" font-family="Helvetica, Segoe UI Emoji" font-size="20px" fill="#846358" text-anchor="middle" style="white-space: pre;" direction="ltr" dominant-baseline="text-before-edge">Request</text></g><g stroke-linecap="round" transform="translate(1061.8304574648882 569.4995936622507) rotate(0 61 44)"><path d="M22 0 M22 0 C43.98 0, 65.96 0, 100 0 M22 0 C46.35 0, 70.71 0, 100 0 M100 0 C114.67 0, 122 7.33, 122 22 M100 0 C114.67 0, 122 7.33, 122 22 M122 22 C122 38.13, 122 54.27, 122 66 M122 22 C122 30.8, 122 39.61, 122 66 M122 66 C122 80.67, 114.67 88, 100 88 M122 66 C122 80.67, 114.67 88, 100 88 M100 88 C69.74 88, 39.48 88, 22 88 M100 88 C82.89 88, 65.78 88, 22 88 M22 88 C7.33 88, 0 80.67, 0 66 M22 88 C7.33 88, 0 80.67, 0 66 M0 66 C0 56.25, 0 46.51, 0 22 M0 66 C0 55.49, 0 44.97, 0 22 M0 22 C0 7.33, 7.33 0, 22 0 M0 22 C0 7.33, 7.33 0, 22 0" stroke="#2f9e44" stroke-width="2" fill="none"></path></g><g transform="translate(1069.1048715273882 590.4995936622507) rotate(0 53.7255859375 23)"><text x="53.7255859375" y="0" font-family="Helvetica, Segoe UI Emoji" font-size="20px" fill="#2f9e44" text-anchor="middle" style="white-space: pre;" direction="ltr" dominant-baseline="text-before-edge">Web server </text><text x="53.7255859375" y="23" font-family="Helvetica, Segoe UI Emoji" font-size="20px" fill="#2f9e44" text-anchor="middle" style="white-space: pre;" direction="ltr" dominant-baseline="text-before-edge">1</text></g><g stroke-linecap="round" transform="translate(1063.9133183599206 669.1227960052138) rotate(0 61 44)"><path d="M22 0 M22 0 C40.1 0, 58.21 0, 100 0 M22 0 C49.32 0, 76.65 0, 100 0 M100 0 C114.67 0, 122 7.33, 122 22 M100 0 C114.67 0, 122 7.33, 122 22 M122 22 C122 33.86, 122 45.72, 122 66 M122 22 C122 31.07, 122 40.15, 122 66 M122 66 C122 80.67, 114.67 88, 100 88 M122 66 C122 80.67, 114.67 88, 100 88 M100 88 C75.45 88, 50.91 88, 22 88 M100 88 C70.29 88, 40.59 88, 22 88 M22 88 C7.33 88, 0 80.67, 0 66 M22 88 C7.33 88, 0 80.67, 0 66 M0 66 C0 50.2, 0 34.39, 0 22 M0 66 C0 54.09, 0 42.18, 0 22 M0 22 C0 7.33, 7.33 0, 22 0 M0 22 C0 7.33, 7.33 0, 22 0" stroke="#2f9e44" stroke-width="2" fill="none"></path></g><g transform="translate(1071.1877324224206 690.1227960052138) rotate(0 53.7255859375 23)"><text x="53.7255859375" y="0" font-family="Helvetica, Segoe UI Emoji" font-size="20px" fill="#2f9e44" text-anchor="middle" style="white-space: pre;" direction="ltr" dominant-baseline="text-before-edge">Web server </text><text x="53.7255859375" y="23" font-family="Helvetica, Segoe UI Emoji" font-size="20px" fill="#2f9e44" text-anchor="middle" style="white-space: pre;" direction="ltr" dominant-baseline="text-before-edge">1</text></g><g stroke-linecap="round" transform="translate(1068.244761940049 771.9945810332736) rotate(0 61 44)"><path d="M22 0 M22 0 C40.02 0, 58.05 0, 100 0 M22 0 C48.11 0, 74.23 0, 100 0 M100 0 C114.67 0, 122 7.33, 122 22 M100 0 C114.67 0, 122 7.33, 122 22 M122 22 C122 32.52, 122 43.04, 122 66 M122 22 C122 36.74, 122 51.48, 122 66 M122 66 C122 80.67, 114.67 88, 100 88 M122 66 C122 80.67, 114.67 88, 100 88 M100 88 C70.01 88, 40.01 88, 22 88 M100 88 C80.89 88, 61.78 88, 22 88 M22 88 C7.33 88, 0 80.67, 0 66 M22 88 C7.33 88, 0 80.67, 0 66 M0 66 C0 50.59, 0 35.19, 0 22 M0 66 C0 56.58, 0 47.15, 0 22 M0 22 C0 7.33, 7.33 0, 22 0 M0 22 C0 7.33, 7.33 0, 22 0" stroke="#2f9e44" stroke-width="2" fill="none"></path></g><g transform="translate(1075.519176002549 792.9945810332736) rotate(0 53.7255859375 23)"><text x="53.7255859375" y="0" font-family="Helvetica, Segoe UI Emoji" font-size="20px" fill="#2f9e44" text-anchor="middle" style="white-space: pre;" direction="ltr" dominant-baseline="text-before-edge">Web server </text><text x="53.7255859375" y="23" font-family="Helvetica, Segoe UI Emoji" font-size="20px" fill="#2f9e44" text-anchor="middle" style="white-space: pre;" direction="ltr" dominant-baseline="text-before-edge">n</text></g><g stroke-linecap="round" transform="translate(1036.1187249672794 539.8650528000607) rotate(0 89.87745428767312 173.79917365266925)"><path d="M32 0 M32 0 C66.14 0, 100.28 0, 147.75 0 M147.75 0 C169.09 0, 179.75 10.67, 179.75 32 M179.75 32 C179.75 96.67, 179.75 161.34, 179.75 315.6 M179.75 315.6 C179.75 336.93, 169.09 347.6, 147.75 347.6 M147.75 347.6 C122.51 347.6, 97.26 347.6, 32 347.6 M32 347.6 C10.67 347.6, 0 336.93, 0 315.6 M0 315.6 C0 219.43, 0 123.27, 0 32 M0 32 C0 10.67, 10.67 0, 32 0" stroke="#2f9e44" stroke-width="2.5" fill="none" stroke-dasharray="1.5 8"></path></g><g mask="url(#mask-reiDRsfJjhTRIbEryvf8O)" stroke-linecap="round"><g transform="translate(828.209433121096 634.6153811153788) rotate(0 101.2474936855113 41.14871401122383)"><path d="M0 0 C17.69 4.69, 72.37 14.44, 106.12 28.15 C139.87 41.87, 186.43 73.27, 202.49 82.3 M0 0 C17.69 4.69, 72.37 14.44, 106.12 28.15 C139.87 41.87, 186.43 73.27, 202.49 82.3" stroke="#846358" stroke-width="2" fill="none"></path></g><g transform="translate(828.209433121096 634.6153811153788) rotate(0 101.2474936855113 41.14871401122383)"><path d="M173.08 76.42 C182.72 78.35, 192.36 80.27, 202.49 82.3 M173.08 76.42 C179.31 77.67, 185.55 78.91, 202.49 82.3" stroke="#846358" stroke-width="2" fill="none"></path></g><g transform="translate(828.209433121096 634.6153811153788) rotate(0 101.2474936855113 41.14871401122383)"><path d="M183.73 58.89 C189.88 66.56, 196.03 74.23, 202.49 82.3 M183.73 58.89 C187.71 63.85, 191.69 68.81, 202.49 82.3" stroke="#846358" stroke-width="2" fill="none"></path></g></g><mask id="mask-reiDRsfJjhTRIbEryvf8O"><rect x="0" y="0" fill="#fff" width="1130.7044204921185" height="816.9128091378265"></rect><rect x="897.0837070842523" y="651.269764386216" fill="#000" width="74.4921875" height="23" opacity="1"></rect></mask><g transform="translate(897.0837070842522 651.2697643862161) rotate(0 32.37321972235503 24.4943307403866)"><text x="37.24609375" y="0" font-family="Helvetica, Segoe UI Emoji" font-size="20px" fill="#846358" text-anchor="middle" style="white-space: pre;" direction="ltr" dominant-baseline="text-before-edge">Request</text></g><g mask="url(#mask-VS5rTIrdMiD-mie12Kuge)" stroke-linecap="round"><g transform="translate(1023.1243942268932 751.564357778857) rotate(0 -103.9546459230919 -32.48582685096619)"><path d="M0 0 C-20.94 -1.44, -90.96 2.17, -125.61 -8.66 C-160.26 -19.49, -194.19 -55.59, -207.91 -64.97 M0 0 C-20.94 -1.44, -90.96 2.17, -125.61 -8.66 C-160.26 -19.49, -194.19 -55.59, -207.91 -64.97" stroke="#2f9e44" stroke-width="2" fill="none"></path></g><g transform="translate(1023.1243942268932 751.564357778857) rotate(0 -103.9546459230919 -32.48582685096619)"><path d="M-179.63 -54.94 C-186.49 -57.37, -193.34 -59.8, -207.91 -64.97 M-179.63 -54.94 C-190.78 -58.9, -201.93 -62.85, -207.91 -64.97" stroke="#2f9e44" stroke-width="2" fill="none"></path></g><g transform="translate(1023.1243942268932 751.564357778857) rotate(0 -103.9546459230919 -32.48582685096619)"><path d="M-192.7 -39.12 C-196.38 -45.38, -200.07 -51.65, -207.91 -64.97 M-192.7 -39.12 C-198.69 -49.31, -204.69 -59.5, -207.91 -64.97" stroke="#2f9e44" stroke-width="2" fill="none"></path></g></g><mask id="mask-VS5rTIrdMiD-mie12Kuge"><rect x="0" y="0" fill="#fff" width="1331.033686073077" height="916.5360114807894"></rect><rect x="852.4832335281571" y="731.4014706185992" fill="#000" width="90.05859375" height="23" opacity="1"></rect></mask><g transform="translate(852.4832335281571 731.4014706185994) rotate(0 66.68651477564413 -12.322939690708495)"><text x="45.029296875" y="0" font-family="Helvetica, Segoe UI Emoji" font-size="20px" fill="#2f9e44" text-anchor="middle" style="white-space: pre;" direction="ltr" dominant-baseline="text-before-edge">Response</text></g><g mask="url(#mask-N7iSGODE5vq-0PH9zjwc6)" stroke-linecap="round"><g transform="translate(1015.5443679616678 295.67992097029787) rotate(0 -94.7503283153182 2.7360776175801504)"><path d="M0 0 C-16.24 1.8, -65.87 11.73, -97.46 10.83 C-129.04 9.93, -174.16 -2.71, -189.5 -5.41 M0 0 C-16.24 1.8, -65.87 11.73, -97.46 10.83 C-129.04 9.93, -174.16 -2.71, -189.5 -5.41" stroke="#9c36b5" stroke-width="2" fill="none"></path></g><g transform="translate(1015.5443679616678 295.67992097029787) rotate(0 -94.7503283153182 2.7360776175801504)"><path d="M-159.77 -9.4 C-170.51 -7.96, -181.26 -6.52, -189.5 -5.41 M-159.77 -9.4 C-169.17 -8.14, -178.58 -6.88, -189.5 -5.41" stroke="#9c36b5" stroke-width="2" fill="none"></path></g><g transform="translate(1015.5443679616678 295.67992097029787) rotate(0 -94.7503283153182 2.7360776175801504)"><path d="M-164.16 10.64 C-173.32 4.84, -182.47 -0.96, -189.5 -5.41 M-164.16 10.64 C-172.18 5.56, -180.2 0.48, -189.5 -5.41" stroke="#9c36b5" stroke-width="2" fill="none"></path></g></g><mask id="mask-N7iSGODE5vq-0PH9zjwc6"><rect x="0" y="0" fill="#fff" width="1305.0450245923043" height="411.922834395781"></rect><rect x="873.0575905337689" y="295.00852992061994" fill="#000" width="90.05859375" height="23" opacity="1"></rect></mask><g transform="translate(873.057590533769 295.00852992061994) rotate(0 47.7364491125806 3.4074686672580867)"><text x="45.029296875" y="0" font-family="Helvetica, Segoe UI Emoji" font-size="20px" fill="#9c36b5" text-anchor="middle" style="white-space: pre;" direction="ltr" dominant-baseline="text-before-edge">Response</text></g><g stroke-linecap="round"><g transform="translate(1471.882516772191 217.09613978239472) rotate(0 50.75128431714609 47.80261809972785)" fill-rule="evenodd"><path d="M0 0 L0.13 93.33 L1.78 95.94 L6.85 99.29 L22.66 103.74 L32.25 105.6 L51.73 106.71 L68.36 105.61 L83.96 102.89 L92.65 99.84 L99.53 95.36 L100.98 92.22 L101.32 0.75 L94.65 -3.9 L87.54 -6.45 L73.39 -9.9 L49.56 -11.1 L31.32 -10.33 L18.46 -8.69 L7.68 -4.21 L0 0" stroke="none" stroke-width="0" fill="#ced4da" fill-rule="evenodd"></path><path d="M0 0 C0 13.54, -0.3 65.26, 0 81.25 C0.3 97.23, -0.55 92.59, 1.78 95.94 C4.11 99.29, 8.9 99.72, 13.98 101.34 C19.05 102.95, 25.95 104.71, 32.25 105.6 C38.54 106.5, 45.71 106.71, 51.73 106.71 C57.75 106.71, 62.99 106.24, 68.36 105.61 C73.74 104.97, 78.77 104.6, 83.96 102.89 C89.16 101.18, 96.75 98.97, 99.53 95.36 C102.3 91.75, 100.27 95.29, 100.59 81.25 C100.91 67.2, 101.51 24.67, 101.43 11.07 C101.36 -2.53, 102.47 2.56, 100.15 -0.35 C97.84 -3.27, 92 -4.86, 87.54 -6.45 C83.08 -8.04, 78.82 -9.15, 73.39 -9.9 C67.97 -10.64, 60.01 -10.75, 55 -10.91 C49.99 -11.08, 49.41 -11.25, 43.32 -10.88 C37.23 -10.51, 25.68 -10.5, 18.46 -8.69 C11.24 -6.87, 3.08 -1.45, 0 0 M0 0 C0 13.54, -0.3 65.26, 0 81.25 C0.3 97.23, -0.55 92.59, 1.78 95.94 C4.11 99.29, 8.9 99.72, 13.98 101.34 C19.05 102.95, 25.95 104.71, 32.25 105.6 C38.54 106.5, 45.71 106.71, 51.73 106.71 C57.75 106.71, 62.99 106.24, 68.36 105.61 C73.74 104.97, 78.77 104.6, 83.96 102.89 C89.16 101.18, 96.75 98.97, 99.53 95.36 C102.3 91.75, 100.27 95.29, 100.59 81.25 C100.91 67.2, 101.51 24.67, 101.43 11.07 C101.36 -2.53, 102.47 2.56, 100.15 -0.35 C97.84 -3.27, 92 -4.86, 87.54 -6.45 C83.08 -8.04, 78.82 -9.15, 73.39 -9.9 C67.97 -10.64, 60.01 -10.75, 55 -10.91 C49.99 -11.08, 49.41 -11.25, 43.32 -10.88 C37.23 -10.51, 25.68 -10.5, 18.46 -8.69 C11.24 -6.87, 3.08 -1.45, 0 0" stroke="#1971c2" stroke-width="2" fill="none"></path></g></g><mask></mask><g stroke-linecap="round" transform="translate(1471.5090544949155 204.77128575475044) rotate(0 50.62648340191515 13.765081576212367)"><path d="M101.25 13.77 C101.25 14.48, 101.04 15.21, 100.63 15.92 C100.22 16.63, 99.59 17.34, 98.78 18.02 C97.96 18.7, 96.93 19.37, 95.74 20.01 C94.54 20.65, 93.14 21.28, 91.58 21.86 C90.03 22.44, 88.29 22.99, 86.42 23.5 C84.56 24.01, 82.52 24.48, 80.38 24.9 C78.25 25.32, 75.96 25.7, 73.61 26.03 C71.26 26.36, 68.78 26.63, 66.27 26.86 C63.76 27.08, 61.15 27.25, 58.55 27.36 C55.94 27.47, 53.27 27.53, 50.63 27.53 C47.99 27.53, 45.31 27.47, 42.71 27.36 C40.1 27.25, 37.49 27.08, 34.98 26.86 C32.47 26.63, 29.99 26.36, 27.64 26.03 C25.29 25.7, 23 25.32, 20.87 24.9 C18.73 24.48, 16.69 24.01, 14.83 23.5 C12.96 22.99, 11.22 22.44, 9.67 21.86 C8.12 21.28, 6.72 20.65, 5.52 20.01 C4.32 19.37, 3.29 18.7, 2.48 18.02 C1.66 17.34, 1.04 16.63, 0.62 15.92 C0.21 15.21, 0 14.48, 0 13.77 C0 13.05, 0.21 12.32, 0.62 11.61 C1.04 10.9, 1.66 10.19, 2.48 9.51 C3.29 8.83, 4.32 8.16, 5.52 7.52 C6.72 6.88, 8.12 6.25, 9.67 5.67 C11.22 5.09, 12.96 4.54, 14.83 4.03 C16.69 3.52, 18.73 3.05, 20.87 2.63 C23 2.21, 25.29 1.83, 27.64 1.5 C29.99 1.17, 32.47 0.9, 34.98 0.67 C37.49 0.45, 40.1 0.28, 42.71 0.17 C45.31 0.06, 47.99 0, 50.63 0 C53.27 0, 55.94 0.06, 58.55 0.17 C61.15 0.28, 63.76 0.45, 66.27 0.67 C68.78 0.9, 71.26 1.17, 73.61 1.5 C75.96 1.83, 78.25 2.21, 80.38 2.63 C82.52 3.05, 84.56 3.52, 86.42 4.03 C88.29 4.54, 90.03 5.09, 91.58 5.67 C93.14 6.25, 94.54 6.88, 95.74 7.52 C96.93 8.16, 97.96 8.83, 98.78 9.51 C99.59 10.19, 100.22 10.9, 100.63 11.61 C101.04 12.32, 101.15 13.41, 101.25 13.77 C101.36 14.12, 101.36 13.41, 101.25 13.77" stroke="none" stroke-width="0" fill="#ffffff"></path><path d="M101.25 13.77 C101.25 14.48, 101.04 15.21, 100.63 15.92 C100.22 16.63, 99.59 17.34, 98.78 18.02 C97.96 18.7, 96.93 19.37, 95.74 20.01 C94.54 20.65, 93.14 21.28, 91.58 21.86 C90.03 22.44, 88.29 22.99, 86.42 23.5 C84.56 24.01, 82.52 24.48, 80.38 24.9 C78.25 25.32, 75.96 25.7, 73.61 26.03 C71.26 26.36, 68.78 26.63, 66.27 26.86 C63.76 27.08, 61.15 27.25, 58.55 27.36 C55.94 27.47, 53.27 27.53, 50.63 27.53 C47.99 27.53, 45.31 27.47, 42.71 27.36 C40.1 27.25, 37.49 27.08, 34.98 26.86 C32.47 26.63, 29.99 26.36, 27.64 26.03 C25.29 25.7, 23 25.32, 20.87 24.9 C18.73 24.48, 16.69 24.01, 14.83 23.5 C12.96 22.99, 11.22 22.44, 9.67 21.86 C8.12 21.28, 6.72 20.65, 5.52 20.01 C4.32 19.37, 3.29 18.7, 2.48 18.02 C1.66 17.34, 1.04 16.63, 0.62 15.92 C0.21 15.21, 0 14.48, 0 13.77 C0 13.05, 0.21 12.32, 0.62 11.61 C1.04 10.9, 1.66 10.19, 2.48 9.51 C3.29 8.83, 4.32 8.16, 5.52 7.52 C6.72 6.88, 8.12 6.25, 9.67 5.67 C11.22 5.09, 12.96 4.54, 14.83 4.03 C16.69 3.52, 18.73 3.05, 20.87 2.63 C23 2.21, 25.29 1.83, 27.64 1.5 C29.99 1.17, 32.47 0.9, 34.98 0.67 C37.49 0.45, 40.1 0.28, 42.71 0.17 C45.31 0.06, 47.99 0, 50.63 0 C53.27 0, 55.94 0.06, 58.55 0.17 C61.15 0.28, 63.76 0.45, 66.27 0.67 C68.78 0.9, 71.26 1.17, 73.61 1.5 C75.96 1.83, 78.25 2.21, 80.38 2.63 C82.52 3.05, 84.56 3.52, 86.42 4.03 C88.29 4.54, 90.03 5.09, 91.58 5.67 C93.14 6.25, 94.54 6.88, 95.74 7.52 C96.93 8.16, 97.96 8.83, 98.78 9.51 C99.59 10.19, 100.22 10.9, 100.63 11.61 C101.04 12.32, 101.15 13.41, 101.25 13.77 C101.36 14.12, 101.36 13.41, 101.25 13.77" stroke="#1971c2" stroke-width="2" fill="none"></path></g><g transform="translate(1472.8799580315892 324.77128575475047) rotate(0 42.8076171875 11.5)"><text x="42.8076171875" y="0" font-family="Helvetica, Segoe UI Emoji" font-size="20px" fill="#1971c2" text-anchor="middle" style="white-space: pre;" direction="ltr" dominant-baseline="text-before-edge">Database</text></g><g stroke-linecap="round"><g transform="translate(1225.619381597916 275.10556396468587) rotate(0 119.11469845354281 -1.0828608950321552)"><path d="M0 0 C39.7 -0.36, 198.52 -1.8, 238.23 -2.17 M0 0 C39.7 -0.36, 198.52 -1.8, 238.23 -2.17" stroke="#1971c2" stroke-width="2" fill="none"></path></g><g transform="translate(1225.619381597916 275.10556396468587) rotate(0 119.11469845354281 -1.0828608950321552)"><path d="M28.1 -10.52 C21.44 -8.02, 14.78 -5.53, 0 0 M28.1 -10.52 C18.95 -7.09, 9.8 -3.67, 0 0" stroke="#1971c2" stroke-width="2" fill="none"></path></g><g transform="translate(1225.619381597916 275.10556396468587) rotate(0 119.11469845354281 -1.0828608950321552)"><path d="M28.28 10 C21.58 7.63, 14.88 5.26, 0 0 M28.28 10 C19.07 6.75, 9.86 3.49, 0 0" stroke="#1971c2" stroke-width="2" fill="none"></path></g><g transform="translate(1225.619381597916 275.10556396468587) rotate(0 119.11469845354281 -1.0828608950321552)"><path d="M210.13 8.35 C216.79 5.86, 223.45 3.37, 238.23 -2.17 M210.13 8.35 C219.28 4.93, 228.43 1.5, 238.23 -2.17" stroke="#1971c2" stroke-width="2" fill="none"></path></g><g transform="translate(1225.619381597916 275.10556396468587) rotate(0 119.11469845354281 -1.0828608950321552)"><path d="M209.95 -12.17 C216.65 -9.8, 223.35 -7.43, 238.23 -2.17 M209.95 -12.17 C219.16 -8.91, 228.37 -5.65, 238.23 -2.17" stroke="#1971c2" stroke-width="2" fill="none"></path></g></g><mask></mask></svg>