<svg version="1.1" xmlns="http://www.w3.org/2000/svg" viewBox="0 0 764.1766710987661 651.4779997977439" width="2292.5300132962984" height="1954.4339993932317">
  <!-- svg-source:excalidraw -->
  <!-- payload-type:application/vnd.excalidraw+json --><!-- payload-version:2 --><!-- payload-start -->eyJ2ZXJzaW9uIjoiMSIsImVuY29kaW5nIjoiYnN0cmluZyIsImNvbXByZXNzZWQiOnRydWUsImVuY29kZWQiOiJ4nO1cXNl22khcdTAwMTB9z1dwPK+xprfqJW/eXHUwMDEyO3a84TFJZub4yCBjxSBcdTAwMTHAXHUwMDBinpN/n2ps0FxuSFx1MDAwNGN7JnrIoqVV3V1169ZcIv55U6ms9Fx1MDAwN1x1MDAxZG/lXWXFu6u7Lb/RdW9X3trzN16354dcdTAwMDFeYsP/98Lrbn1452W/3+m9+/336Fx0p1x1MDAxZbZcdTAwMWae8lpe21x1MDAwYvo9vO9P/H+l8s/wT7ziN+yzW52rWut88yTc3zq41d/Wa0f0YzB8dHjTSJiuV++7QbPlRZfu8DynzKFcdTAwMDSY5Fx1MDAxNJQ2Qo+vXHUwMDBl7FXJnNhFxcX48q3f6F/iLZRF5y49v3nZx5M6XHUwMDFh5uGd7ypkfKbX74ZX3kbYXG67VrDfPMIpp5FY5279qtlccq+DxvieftdccnpcdTAwMWS3i+tcdTAwMTDdd+G3WtX+oPWwgm798rpcdTAwMWKb3MNbao9SstT58XO9XHUwMDEw1zt6XG5f27xcZrxeLyFx2HHrft8uXGIl0VkrY2enMdyYvyOpum7b27E7XHUwMDEzXFy3WvGBg8bjwKNccox2hz+e+Vx1MDAxMYnpeXZcZq4kXGKpIFrPSImUTJ/cXHUwMDBmg6E+UVwiXHUwMDA1MCpJdIff20RF6lx1MDAwZlx1MDAwN71wWz0vWm4r2VZayeKKltCjvndcdTAwMTftQUxccq+q539cdTAwMTDT3e1cXIQ79a/m7L13s763Mr7vx9v8YVx1MDAxZlx1MDAxZT45/by1Mdg4WL1fpyfH692w4X70k29cdTAwMTm93+12w9ui41x1MDAxZYWHg++yI8XZXrfhXHUwMDFkrzdcdTAwMDNaXHUwMDE3XHUwMDBiXHUwMDE4V55cdTAwMWNcdTAwMWTvf71cXP3e/EaaO3Lw5XDLnCxgXFz9/WjzaK3a7lx1MDAwNee+Pt3fWz+of1xcXcC498zfu6Xh0Vx1MDAxOexecO+i9uHsftBcXMC4tf7dmVx0v53sXHUwMDFmtppcdTAwMDffamunn7ZPb4qN+/ivyHCuO1xy90E/qTSUMyGYXHUwMDAwTsfXW35wlbaqVli/ilT6TUzgXHUwMDE0SOZrZ1x1MDAwNiRcdTAwMTPK/YCPXFw5glx1MDAxM1x1MDAwMVoowjP4aIRcdTAwMDPT8VFxh1x1MDAwYiOJ4VxuskDJ+H9cdTAwMDAooz1aMFAmLjxcIlwi1YJcdTAwMTJcdTAwMDO4JzmQyCdDomRcdTAwMWP1iologsUhMSFHRk+5pFxc6lx1MDAxMnpcdTAwMWGpnVU3XFxbXHUwMDA0vNue143tWFx1MDAxOPSr/r1cdTAwMTWckcTZ927bb1xyXHUwMDEyXHUwMDFiZUdZa/lNu1x1MDAwMCt1XHUwMDE0OT5cdTAwMTIuQ99HUjG+oe03XHUwMDFhcVx1MDAxMnDu9jxcdTAwMTR5uEbRJOr4Klx1MDAxN892d4pwjLDrN/3AbZ1Mmo99wfZI56lDIddUp1CVaItpzGSybo+C5pxcdTAwMTTZ41x1MDAwN1xcWDd37YvVs4v2Llx1MDAxY37w3tfWOVx1MDAxY92+XHUwMDFjipHFXHUwMDA0i0lCR0gyfIKaiZhBjaJ1Vlx1MDAxZTOK0ruRVSq0SaM0LIlcdTAwMWUtiLQ0atUv21vntZv6RufqYGuPXHUwMDFkXHUwMDA06vhcdTAwMTWTltlOtTRYTbXUpL+MjNSwSTYqOFOSMVmEmU7bo1x1MDAxN+Pc8k1cdTAwMTRcdTAwMTg4WktFtUrZKlBcdTAwMDeezFpcdTAwMDVzcG1BsulU49FolTFcdTAwMTQ9qWY/b7OJXHUwMDBiXHUwMDE541xcpD7O7yPt6m3uV1dcdTAwMTIn53ecKVx1MDAxNznDk6RdZEKQjHvM985T+O10LErhRZLgSuFwgshtUFWRz9KEunKQM1x1MDAxM1x1MDAwMJQ6SKyoIOgrJIGYc1x1MDAxOOtcdTAwMWVV4Fx1MDAxOIGRLKeKXG5h9H+B9i4xP8AyXHUwMDBlcOR3JVBJcUHzmFx1MDAxMpj02YhcciNLXCKUqui5J09cdTAwMTC8P9xtnX+6r25eXG7OXHUwMDBmtjbPXHUwMDBm6sdhSd/F4lxuWFx1MDAwMis6oZ+W/c+YhCQuLlx1MDAxOf/777e5d3OS0neIP75KOU+ZzKxcdTAwMDEnW9DDgFx1MDAxOeOJXHUwMDA2zCxay+31N8J22+/j0lx1MDAxZNppZ+Kovtvtr/tBw1x1MDAwZppJZXvMNFx1MDAxNqH8Q6StX9slXSVcdTAwMGUzIIFRxXGbXGJ6+NhdTbeD98iM/npBY7ZcZtMxNSZcdTAwMDOKIKU0XHUwMDA0XGbyf4mqQiEjg8nakF2JNVx1MDAwYomXnpuxSJQwfi3OtfIxOF/BM1x1MDAxOJyTY9A8nywwXHUwMDFhJ1x1MDAwYiPAZcWc/C9gXHUwMDFkXHI8NZ9gMGQ0Qqi8dFx1MDAwMs2cXHUwMDFjXHUwMDAxKOcgQGqYXHUwMDA3P586m3Ddbb3cTMJcZqKSpkmJuVx1MDAxNMtcIlx1MDAxNFx0oqZcdTAwMTFcIlDM0UqhgWlqSDz1/mCS0lFAXHUwMDA1glx1MDAxZLpdkseHJFJ/pFJcXFx1MDAxMFx1MDAwNowoXHUwMDEzhTpcdTAwMTFcdTAwMWZcdTAwMTJcdTAwMWNJXHUwMDE3RchnUiBimsiUZ5vtvEHCqzXbXHUwMDEyfEhxpTTRJJNcdTAwMDe0Nssm8iFGjNCKzWXOc9KhtnnfomubO7J3U/28fbd28lx1MDAwN3y+K0mHNCuVXHUwMDFmf1x1MDAxYTq0au2FIGpcdGGD+2jp7aGII4iWXHUwMDFj2Vx1MDAwMYBQwGaONtl87JE1nGVwocI8XHUwMDA0uZBcdTAwMDKlkFxiXHTCXHRqXHUwMDE0U1lcdTAwMWWSwFx1MDAwZm6yulxciFx1MDAxYpXiZ1RjkKAkXHUwMDEzjGimZUamXHUwMDFje1osN8rX9lx1MDAwMtxIUOZcdTAwMThcdTAwMDWA8SlPsyNcdTAwMTHZc5SuJFx1MDAwZVx1MDAxMVx1MDAxYSdJ8+iRiHDhXHUwMDE3zo5cdTAwMDaeSo8kQZSRQDJcdD0rfCbqjDLxXHUwMDFjkM/GajQvh1x1MDAxZe1cdTAwMWNW3Eaji1P+K1xiLyq33nml53Vvnr/8XHUwMDEyS72kSNNcZjKTJk1cdTAwMDVmuMiCXGaHSWpg3arQnMdY0qxsLzmkQfPglvTAbG9e7XpcXH6v6pdjW/nZXqWRXHUwMDE0olpcbvbQSpOAKYxcdTAwMTScWDZATq7VsFx1MDAwYuNcdFFcdTAwMWVwytZq0Fx1MDAxYlxiKbmK7n5ccrWa9uA2rK9290G4e19PXHUwMDBl6nuDs2t4xVxyXHUwMDFiRVxi3jJqNZSoSfaLLItxQFGKXHUwMDE3VPN3aWn2O1+1XHUwMDA2SaZDqbGtVjn2a417OfZLwGFcXMxqXHUwMDE0XHUwMDE5l1xchZZIhFx1MDAxN+z3X3DxpoaOrJpyZFx1MDAwYq3hzHA+aT+bJ8/Pl3KmQ9W0zIVcdTAwMTDKiZxcdTAwMTBcdTAwMDWZ0GOMp1x1MDAxY5HrpUb6xzlx4olrlZO5IFx1MDAwZdJiwlx1MDAxNVx1MDAxMZIqYsO6X1x1MDAxOcfFpC6AUlwiMXLMK+XIiT0vzOCOKbLMQk5DX3WEf//5+PrGlX7jw+6O3lkvX8iRcZt5nkLORH23x2qOqkcjZib5LIVcdTAwMTeiXHRTIFxilXjwqN5XXHUwMDE5XHUwMDA19raA8Oi3tFxy/mmWnlx1MDAxNco2TEfGlFCGUC241kpZ6sCzKVx1MDAxMJ1YdimePP2Qr7JcdTAwMTlMzaZcdTAwMWZAgsNcdTAwMTlcdTAwMTFcdTAwMTSYsdwgmYHghjhcIo6pXHUwMDE5SDXo0Vx1MDAwMW/7Vaz5OVYy4jxC4DIwo/Pyu3Ri01x1MDAxMWpcdTAwMWFQXHUwMDAxks3TXHUwMDBmv7x8xHMnICZXbWZwkslcdIj5ijfTo6ppXHUwMDE0SHPh4J4oTahhYGSym0VcYuMoTYfRLzFa82xxVVx1MDAxMOUwXHUwMDA2eKdcdTAwMDJcdTAwMDDDc5pZgDtEYWRkXHUwMDE0I2A9RFx0K543RHi1Vlxcglx1MDAwMOFqcoK2XHJ5pViWPTu2bqq1NpTO1do9J1x1MDAwN4KdWutL5+v23TE9PVx1MDAwZq9cdTAwMDLDTk+vynEgLVxyPD9cdTAwMDdaRVLgMDRcdTAwMWJcdTAwMDWaarBeOf58RtdnjjfRgOxBpWN7tDHCZdooW8BZXHUwMDA2oypDXjQhXHUwMDE2Nlx1MDAwNIJcdTAwMDTTOkrJjrmLclx1MDAwMNlccpJcdTAwMWIksehU1Hx8qjDJQ4mMVvhGg6uppFA5XHUwMDFjXHUwMDBmXHUwMDFjZVxiIDnRlFAgkFx1MDAxMWnBbCpf+YuwKaCOUVx1MDAxMtkqUm+VXGZPXHUwMDAxiGNccoPhNFx1MDAxMZhjPnXMpaSDXHUwMDE03Vx1MDAwMM8t7ZRcIlP/O1x1MDAxOM4lU1x1MDAwNlGIUZ7f+jLtK1x1MDAwYlx1MDAwMIHbVCSpX5JM2eL9XFxccn7xXHUwMDE0UcdtepWXy6VmkJu8JFNqRoss3pjJ+0yJ7W+Jl1x0ZiV/W+qgXHUwMDA2e/5GeNxoXHUwMDA2XHUwMDFmPl5KXHUwMDE4XFxuv1x1MDAxY+vJT/5yjUGcpkApszVcdTAwMTGdwiUpbdpMXHUwMDE5Y5RRSvDJ6d9cdTAwMGKi64Q8efnG9kTY9jPzuso3+1x1MDAxZvjnuzv3VLlcdTAwMDftj4TVbj7IjcP/+PerKv6x2lOVb+TkKrztaDKE0FwiZfhpu7Q0XHUwMDBinq98I1x1MDAxOLIkJGyKMdtBnbFgI5B1LMOCbXNcdTAwMTInROU3n+SUcFx1MDAxON6KcWrMWSy/iFNaTef3rHZcdTAwMDE3NvefqHozw/ukXHUwMDFka0KQny/bTIeoqV/gcONwLVx1MDAwMImV1lx1MDAxYyOthPZcbslRXHUwMDFjIYjB4HiYjc4nxkLaXHUwMDAyptJSijzdXHUwMDEz2nbpc2BGaGCxKO9X6jFrS2U+wCFcdTAwMTidSWJYXoNcdTAwMTSd0iFlXGLGclxuzDwsek5cdTAwMTf8XHTI7iVccm9WXHUwMDFi31x1MDAwN8HuVlx1MDAxNVx1MDAwM9z9coVcdTAwMWJcdTAwMDRPLV5A0kLaXHUwMDBmJrQyTFx1MDAxM4lcdTAwMGWOQbJJlFwio0NQRUZnONNAZ3adcuR4XHUwMDFhNJNcdTAwMWGIkZKa+HBZ24mGyyzZ8stAxCHI4nFjbGQstVR5ZSDEXHUwMDEwQlx1MDAxNVx1MDAxZYxcdTAwMTNtpJkzbTFcdTAwMWRiK4lMijIoXHUwMDBiI1x1MDAwMrFDMSmzQmlHUkpcdTAwMTVeXHUwMDE1XFxcdTAwMDOXWZlcdTAwMTact8jX/1xmRGfzXHUwMDE2OFx1MDAwYkdIglx1MDAwMMw5s120SYhcdTAwMDYuXHUwMDFjJFx1MDAxNri6XHUwMDA0w1xi3ItcZkIzqlx1MDAxY8SJXHQ/XHUwMDAyXHUwMDEyayn5XHUwMDA1xqOBp6cukM1ccqleXlx1MDAxZFxiJtaBcOVwXHUwMDAznyBxIaih5qdcdTAwMTJcdTAwMTfvw25cdTAwMDXVXHUwMDFkXHTPX4HlNfa1lZZ/5VW+9d5W/Lbb9PBvvNbrVbx+/bnTXHUwMDFiMppsioXN4EFpXHUwMDE2VmzemVmXqSZNXHUwMDBm8qY21CiChF5cdTAwMTgjhf06XHUwMDEzY4xkYFx1MDAwMcLRXHUwMDE4jmtlXHUwMDFi/bnKpiw1c4Db7LlcdTAwMDVCmzTOYWaEO0pqXG6SXG6ukFx1MDAxNZRpUZ83YHm1YFCCmUmJ+6Jo7k+nmYnFJGThXHUwMDAwIOfCiDlp2SGvXHUwMDFlNq6DU+1cdTAwMGXu4VP9evt4bf24JC1cdTAwMTMk9lx1MDAxYjDPV0tCVcYoXHUwMDFjlIVmxkS0isPLtlx1MDAxOcJQXHUwMDA1XHUwMDE4oNuKXHUwMDEzn/0x0ET7eXhdxnSWQcxcbnMg4lx1MDAwMCBkaMJRqbigPLZcdTAwMWHjYlx1MDAxMoZsjFwihlx1MDAwMCGSzkfKSjBF3Fx1MDAxN0BcdTAwMWao7UdcdTAwMWT2cyCdkSgrw4JJWL62XHUwMDE3IGGo4nZB7c/CMbRqiLB0yMGQpFx1MDAxM2ZcYkNcdTAwMWGM3CCnsm+QKKc/I5qvevS/Q908XG5cdTAwMDZSSlx1MDAwMJr7M2xcdTAwMTO/s9RcdTAwMWO9pIFcIvnIklx1MDAwNIxL9nNtOMder1x1MDAxM1x1MDAwNj3vuZnV5MLRXGZcdTAwMWWTZlbZXHRNIE1vXHUwMDFlYXLF7XSqSMW8Mdas3Pje7XpWu3+7XHUwMDE4XHUwMDFl1syHRm4121x1MDAxYrrnXHUwMDFmb378XHUwMDBi8K8lXHUwMDFlIn0=<!-- payload-end -->
  <defs>
    <style class="style-fonts">
      @font-face {
        font-family: "Virgil";
        src: url("https://excalidraw.com/Virgil.woff2");
      }
      @font-face {
        font-family: "Cascadia";
        src: url("https://excalidraw.com/Cascadia.woff2");
      }
    </style>
    
  </defs>
  <rect x="0" y="0" width="764.1766710987661" height="651.4779997977439" fill="#ffffff"></rect><g stroke-linecap="round" transform="translate(155.54509215139785 253.05263157894734) rotate(0 62 44)"><path d="M22 0 M22 0 C53.9 0, 85.81 0, 102 0 M22 0 C38.63 0, 55.26 0, 102 0 M102 0 C116.67 0, 124 7.33, 124 22 M102 0 C116.67 0, 124 7.33, 124 22 M124 22 C124 35.11, 124 48.23, 124 66 M124 22 C124 37.78, 124 53.57, 124 66 M124 66 C124 80.67, 116.67 88, 102 88 M124 66 C124 80.67, 116.67 88, 102 88 M102 88 C84.83 88, 67.66 88, 22 88 M102 88 C73.95 88, 45.89 88, 22 88 M22 88 C7.33 88, 0 80.67, 0 66 M22 88 C7.33 88, 0 80.67, 0 66 M0 66 C0 51.28, 0 36.56, 0 22 M0 66 C0 51.08, 0 36.16, 0 22 M0 22 C0 7.33, 7.33 0, 22 0 M0 22 C0 7.33, 7.33 0, 22 0" stroke="#e03131" stroke-width="2" fill="none"></path></g><g transform="translate(180.87028746389785 285.55263157894734) rotate(0 36.6748046875 11.5)"><text x="36.6748046875" y="0" font-family="Helvetica, Segoe UI Emoji" font-size="20px" fill="#e03131" text-anchor="middle" style="white-space: pre;" direction="ltr" dominant-baseline="text-before-edge">Browser</text></g><g stroke-linecap="round" transform="translate(328.43982899350306 10) rotate(0 62 44)"><path d="M22 0 M22 0 C41.7 0, 61.39 0, 102 0 M22 0 C40.66 0, 59.32 0, 102 0 M102 0 C116.67 0, 124 7.33, 124 22 M102 0 C116.67 0, 124 7.33, 124 22 M124 22 C124 32.35, 124 42.7, 124 66 M124 22 C124 39.52, 124 57.05, 124 66 M124 66 C124 80.67, 116.67 88, 102 88 M124 66 C124 80.67, 116.67 88, 102 88 M102 88 C76.19 88, 50.37 88, 22 88 M102 88 C72.76 88, 43.51 88, 22 88 M22 88 C7.33 88, 0 80.67, 0 66 M22 88 C7.33 88, 0 80.67, 0 66 M0 66 C0 54.72, 0 43.45, 0 22 M0 66 C0 49.19, 0 32.39, 0 22 M0 22 C0 7.33, 7.33 0, 22 0 M0 22 C0 7.33, 7.33 0, 22 0" stroke="#1971c2" stroke-width="2" fill="none"></path></g><g transform="translate(369.32654774350306 42.5) rotate(0 21.11328125 11.5)"><text x="21.11328125" y="0" font-family="Helvetica, Segoe UI Emoji" font-size="20px" fill="#1971c2" text-anchor="middle" style="white-space: pre;" direction="ltr" dominant-baseline="text-before-edge">DNS</text></g><g mask="url(#mask-TVXECyCO-zB1TRBrodaJi)" stroke-linecap="round"><g transform="translate(207.74768886889717 247.05263157894734) rotate(0 55.84607006230294 -87.97273158572492)"><path d="M0 0 C5.12 -22.18, 12.08 -103.73, 30.69 -133.05 C49.31 -162.38, 98.19 -168.8, 111.69 -175.95 M0 0 C5.12 -22.18, 12.08 -103.73, 30.69 -133.05 C49.31 -162.38, 98.19 -168.8, 111.69 -175.95" stroke="#e03131" stroke-width="2" fill="none"></path></g><g transform="translate(207.74768886889717 247.05263157894734) rotate(0 55.84607006230294 -87.97273158572492)"><path d="M88.39 -157.05 C95.33 -162.68, 102.27 -168.31, 111.69 -175.95 M88.39 -157.05 C94.05 -161.64, 99.71 -166.23, 111.69 -175.95" stroke="#e03131" stroke-width="2" fill="none"></path></g><g transform="translate(207.74768886889717 247.05263157894734) rotate(0 55.84607006230294 -87.97273158572492)"><path d="M81.7 -176.45 C90.63 -176.3, 99.57 -176.15, 111.69 -175.95 M81.7 -176.45 C88.98 -176.33, 96.27 -176.21, 111.69 -175.95" stroke="#e03131" stroke-width="2" fill="none"></path></g></g><mask id="mask-TVXECyCO-zB1TRBrodaJi"><rect x="0" y="0" fill="#fff" width="419.43982899350306" height="522.9980947503972"></rect><rect x="227.32654774350306" y="102.5" fill="#000" width="22.2265625" height="23" opacity="1"></rect></mask><g transform="translate(227.32654774350306 102.5) rotate(0 36.26721118769706 56.579899993222426)"><text x="11.11328125" y="0" font-family="Helvetica, Segoe UI Emoji" font-size="20px" fill="#e03131" text-anchor="middle" style="white-space: pre;" direction="ltr" dominant-baseline="text-before-edge">url</text></g><g mask="url(#mask-QoPyq6p64_LrdeRBgn1c4)" stroke-linecap="round"><g transform="translate(416.31748581257887 107.75141731490339) rotate(0 -82.93766701260398 71.65060713202197)"><path d="M0 0 C-12.13 11.73, -45.16 46.53, -72.81 70.41 C-100.45 94.29, -150.36 131.15, -165.88 143.3 M0 0 C-12.13 11.73, -45.16 46.53, -72.81 70.41 C-100.45 94.29, -150.36 131.15, -165.88 143.3" stroke="#1971c2" stroke-width="2" fill="none"></path></g><g transform="translate(416.31748581257887 107.75141731490339) rotate(0 -82.93766701260398 71.65060713202197)"><path d="M-149.7 118.04 C-155.49 127.08, -161.28 136.12, -165.88 143.3 M-149.7 118.04 C-155.82 127.59, -161.93 137.14, -165.88 143.3" stroke="#1971c2" stroke-width="2" fill="none"></path></g><g transform="translate(416.31748581257887 107.75141731490339) rotate(0 -82.93766701260398 71.65060713202197)"><path d="M-137.24 134.34 C-147.49 137.55, -157.74 140.76, -165.88 143.3 M-137.24 134.34 C-148.07 137.73, -158.9 141.12, -165.88 143.3" stroke="#1971c2" stroke-width="2" fill="none"></path></g></g><mask id="mask-QoPyq6p64_LrdeRBgn1c4"><rect x="0" y="0" fill="#fff" width="682.1928198377868" height="351.05263157894734"></rect><rect x="283.4869373068083" y="155.1600525304509" fill="#000" width="120.048828125" height="46" opacity="1"></rect></mask><g transform="translate(283.4869373068083 155.1600525304509) rotate(0 49.89288149316661 24.241971916474455)"><text x="60.0244140625" y="0" font-family="Helvetica, Segoe UI Emoji" font-size="20px" fill="#1971c2" text-anchor="middle" style="white-space: pre;" direction="ltr" dominant-baseline="text-before-edge">IP address</text><text x="60.0244140625" y="23" font-family="Helvetica, Segoe UI Emoji" font-size="20px" fill="#1971c2" text-anchor="middle" style="white-space: pre;" direction="ltr" dominant-baseline="text-before-edge">of web server</text></g><g stroke-linecap="round" transform="translate(630.1766710987661 245.26315789473688) rotate(0 62 44)"><path d="M22 0 M22 0 C43.04 0, 64.09 0, 102 0 M22 0 C38.84 0, 55.68 0, 102 0 M102 0 C116.67 0, 124 7.33, 124 22 M102 0 C116.67 0, 124 7.33, 124 22 M124 22 C124 35.31, 124 48.63, 124 66 M124 22 C124 38.03, 124 54.07, 124 66 M124 66 C124 80.67, 116.67 88, 102 88 M124 66 C124 80.67, 116.67 88, 102 88 M102 88 C73.16 88, 44.33 88, 22 88 M102 88 C75.31 88, 48.63 88, 22 88 M22 88 C7.33 88, 0 80.67, 0 66 M22 88 C7.33 88, 0 80.67, 0 66 M0 66 C0 49.69, 0 33.38, 0 22 M0 66 C0 54.71, 0 43.41, 0 22 M0 22 C0 7.33, 7.33 0, 22 0 M0 22 C0 7.33, 7.33 0, 22 0" stroke="#2f9e44" stroke-width="2" fill="none"></path></g><g transform="translate(639.5594835987661 277.7631578947369) rotate(0 52.6171875 11.5)"><text x="52.6171875" y="0" font-family="Helvetica, Segoe UI Emoji" font-size="20px" fill="#2f9e44" text-anchor="middle" style="white-space: pre;" direction="ltr" dominant-baseline="text-before-edge">Web Server</text></g><g mask="url(#mask-6TQRNZh-qgj0gI6yYPE9T)" stroke-linecap="round"><g transform="translate(291.12403951981867 293.4736842105263) rotate(0 165.26315789473688 -0.09851852308526077)"><path d="M0 0 C55.09 -0.03, 275.44 -0.16, 330.53 -0.2 M0 0 C55.09 -0.03, 275.44 -0.16, 330.53 -0.2" stroke="#e03131" stroke-width="2" fill="none"></path></g><g transform="translate(291.12403951981867 293.4736842105263) rotate(0 165.26315789473688 -0.09851852308526077)"><path d="M302.34 10.08 C312.15 6.5, 321.96 2.93, 330.53 -0.2 M302.34 10.08 C308.25 7.92, 314.16 5.77, 330.53 -0.2" stroke="#e03131" stroke-width="2" fill="none"></path></g><g transform="translate(291.12403951981867 293.4736842105263) rotate(0 165.26315789473688 -0.09851852308526077)"><path d="M302.33 -10.44 C312.14 -6.88, 321.96 -3.31, 330.53 -0.2 M302.33 -10.44 C308.24 -8.29, 314.16 -6.14, 330.53 -0.2" stroke="#e03131" stroke-width="2" fill="none"></path></g></g><mask id="mask-6TQRNZh-qgj0gI6yYPE9T"><rect x="0" y="0" fill="#fff" width="721.6503553092924" height="393.6707212566968"></rect><rect x="408.76024428955554" y="281.875165687441" fill="#000" width="95.25390625" height="23" opacity="1"></rect></mask><g transform="translate(408.76024428955554 281.87516568744104) rotate(0 47.626953125 11.5)"><text x="47.626953125" y="0" font-family="Helvetica, Segoe UI Emoji" font-size="20px" fill="#e03131" text-anchor="middle" style="white-space: pre;" direction="ltr" dominant-baseline="text-before-edge">IP address</text></g><g mask="url(#mask-8qQDQASmsnbi8VNLBOcJ-)" stroke-linecap="round"><g transform="translate(677.8766091860991 340.78164663098835) rotate(0 -203.6127248777969 26.61304214206882)"><path d="M0 0 C-34.71 8.85, -140.41 50.4, -208.28 53.07 C-276.15 55.75, -374.07 22.23, -407.23 16.06 M0 0 C-34.71 8.85, -140.41 50.4, -208.28 53.07 C-276.15 55.75, -374.07 22.23, -407.23 16.06" stroke="#2f9e44" stroke-width="2" fill="none"></path></g><g transform="translate(677.8766091860991 340.78164663098835) rotate(0 -203.6127248777969 26.61304214206882)"><path d="M-377.39 12.96 C-388.57 14.12, -399.75 15.29, -407.23 16.06 M-377.39 12.96 C-386.95 13.96, -396.5 14.95, -407.23 16.06" stroke="#2f9e44" stroke-width="2" fill="none"></path></g><g transform="translate(677.8766091860991 340.78164663098835) rotate(0 -203.6127248777969 26.61304214206882)"><path d="M-382.38 32.87 C-391.69 26.57, -401 20.27, -407.23 16.06 M-382.38 32.87 C-390.34 27.48, -398.3 22.1, -407.23 16.06" stroke="#2f9e44" stroke-width="2" fill="none"></path></g></g><mask id="mask-8qQDQASmsnbi8VNLBOcJ-"><rect x="0" y="0" fill="#fff" width="1185.102058941693" height="493.8558763515854"></rect><rect x="421.4046568050361" y="382.3558763515854" fill="#000" width="96.376953125" height="23" opacity="1"></rect></mask><g transform="translate(421.404656805036 382.3558763515854) rotate(0 52.859227503266254 -14.961187578528211)"><text x="48.1884765625" y="0" font-family="Helvetica, Segoe UI Emoji" font-size="20px" fill="#2f9e44" text-anchor="middle" style="white-space: pre;" direction="ltr" dominant-baseline="text-before-edge">Web page </text></g><g stroke-linecap="round" transform="translate(223.9213402572518 553.4779997977439) rotate(0 62 44)"><path d="M22 0 M22 0 C40.72 0, 59.44 0, 102 0 M22 0 C49.26 0, 76.52 0, 102 0 M102 0 C116.67 0, 124 7.33, 124 22 M102 0 C116.67 0, 124 7.33, 124 22 M124 22 C124 36.71, 124 51.42, 124 66 M124 22 C124 32.65, 124 43.31, 124 66 M124 66 C124 80.67, 116.67 88, 102 88 M124 66 C124 80.67, 116.67 88, 102 88 M102 88 C81.35 88, 60.7 88, 22 88 M102 88 C79.4 88, 56.8 88, 22 88 M22 88 C7.33 88, 0 80.67, 0 66 M22 88 C7.33 88, 0 80.67, 0 66 M0 66 C0 54.98, 0 43.96, 0 22 M0 66 C0 52.16, 0 38.33, 0 22 M0 22 C0 7.33, 7.33 0, 22 0 M0 22 C0 7.33, 7.33 0, 22 0" stroke="#f08c00" stroke-width="2" fill="none"></path></g><g transform="translate(264.2563011947518 585.9779997977439) rotate(0 21.6650390625 11.5)"><text x="21.6650390625" y="0" font-family="Helvetica, Segoe UI Emoji" font-size="20px" fill="#f08c00" text-anchor="middle" style="white-space: pre;" direction="ltr" dominant-baseline="text-before-edge">CDN</text></g><g mask="url(#mask-z2iLw1oQ_5Kf3efWG_zyg)" stroke-linecap="round"><g transform="translate(182.82433968190026 354.15440930203704) rotate(0 -15.87754375393746 124.14767647426157)"><path d="M0 0 C-10.65 18.41, -69.3 69.07, -63.89 110.45 C-58.47 151.83, 16.42 225.32, 32.49 248.3 M0 0 C-10.65 18.41, -69.3 69.07, -63.89 110.45 C-58.47 151.83, 16.42 225.32, 32.49 248.3" stroke="#e03131" stroke-width="2" fill="none"></path></g><g transform="translate(182.82433968190026 354.15440930203704) rotate(0 -15.87754375393746 124.14767647426157)"><path d="M6.52 233.27 C12.41 236.68, 18.29 240.09, 32.49 248.3 M6.52 233.27 C12.47 236.72, 18.42 240.16, 32.49 248.3" stroke="#e03131" stroke-width="2" fill="none"></path></g><g transform="translate(182.82433968190026 354.15440930203704) rotate(0 -15.87754375393746 124.14767647426157)"><path d="M22.25 220.1 C24.57 226.49, 26.89 232.88, 32.49 248.3 M22.25 220.1 C24.59 226.56, 26.94 233.02, 32.49 248.3" stroke="#e03131" stroke-width="2" fill="none"></path></g></g><mask id="mask-z2iLw1oQ_5Kf3efWG_zyg"><rect x="0" y="0" fill="#fff" width="379.1989593397667" height="702.4497622505602"></rect><rect x="10" y="430.10622059532216" fill="#000" width="217.87109375" height="69" opacity="1"></rect></mask><g transform="translate(10 430.10622059532216) rotate(0 156.9467959279628 48.195865180976455)"><text x="108.935546875" y="0" font-family="Helvetica, Segoe UI Emoji" font-size="20px" fill="#e03131" text-anchor="middle" style="white-space: pre;" direction="ltr" dominant-baseline="text-before-edge">For static</text><text x="108.935546875" y="23" font-family="Helvetica, Segoe UI Emoji" font-size="20px" fill="#e03131" text-anchor="middle" style="white-space: pre;" direction="ltr" dominant-baseline="text-before-edge">contents like js, images, </text><text x="108.935546875" y="46" font-family="Helvetica, Segoe UI Emoji" font-size="20px" fill="#e03131" text-anchor="middle" style="white-space: pre;" direction="ltr" dominant-baseline="text-before-edge">css etc</text></g><g mask="url(#mask-Wtx_9ojTNPlgOjWAVMHVv)" stroke-linecap="round"><g transform="translate(313.7748254149112 545.8207877227378) rotate(0 -41.26614886022443 -101.88407807189523)"><path d="M0 0 C-3.96 -15.88, -9.99 -61.33, -23.75 -95.29 C-37.5 -129.25, -72.73 -185.69, -82.53 -203.77 M0 0 C-3.96 -15.88, -9.99 -61.33, -23.75 -95.29 C-37.5 -129.25, -72.73 -185.69, -82.53 -203.77" stroke="#f08c00" stroke-width="2" fill="none"></path></g><g transform="translate(313.7748254149112 545.8207877227378) rotate(0 -41.26614886022443 -101.88407807189523)"><path d="M-59.55 -184.48 C-67.51 -191.15, -75.46 -197.83, -82.53 -203.77 M-59.55 -184.48 C-67.57 -191.21, -75.59 -197.94, -82.53 -203.77" stroke="#f08c00" stroke-width="2" fill="none"></path></g><g transform="translate(313.7748254149112 545.8207877227378) rotate(0 -41.26614886022443 -101.88407807189523)"><path d="M-77.33 -174.22 C-79.13 -184.45, -80.93 -194.67, -82.53 -203.77 M-77.33 -174.22 C-79.14 -184.53, -80.96 -194.84, -82.53 -203.77" stroke="#f08c00" stroke-width="2" fill="none"></path></g></g><mask id="mask-Wtx_9ojTNPlgOjWAVMHVv"><rect x="0" y="0" fill="#fff" width="496.3071231353601" height="849.5889438665283"></rect><rect x="244.99827141508877" y="439.02902895990337" fill="#000" width="90.05859375" height="23" opacity="1"></rect></mask><g transform="translate(244.99827141508877 439.0290289599035) rotate(0 27.51040513959802 4.907680690939088)"><text x="45.029296875" y="0" font-family="Helvetica, Segoe UI Emoji" font-size="20px" fill="#f08c00" text-anchor="middle" style="white-space: pre;" direction="ltr" dominant-baseline="text-before-edge">Response</text></g></svg>