<svg version="1.1" xmlns="http://www.w3.org/2000/svg" viewBox="0 0 1701.634166865495 477.5" width="5104.902500596485" height="1432.5">
  <!-- svg-source:excalidraw -->
  <!-- payload-type:application/vnd.excalidraw+json --><!-- payload-version:2 --><!-- payload-start -->eyJ2ZXJzaW9uIjoiMSIsImVuY29kaW5nIjoiYnN0cmluZyIsImNvbXByZXNzZWQiOnRydWUsImVuY29kZWQiOiJ4nO1daVPjyLL9zq8g+n55L2KsqX2ZiFx1MDAxNy8w4IZm35rlzY1cdTAwMGVhXHUwMDBiI7zISLJcctyY/35TXHUwMDA2rF22XHUwMDFhm5H7PkV0XHUwMDAzWlNVdTJPZmWl/rW2vv7Ff1x1MDAxZVhf/lj/Yj01za7dcs3xl9+C/SPL9WynXHUwMDBmh8jkb89cdTAwMTm6zcmZ974/8P74/fee6XYsf9A1m5Yxsr2h2fX8Yct2jKbT+932rZ73v8H/h2bP+p+B02v5rlx1MDAxMT6kZrVs33Ffn2V1rZ7V9z24+//B3+vr/5r8XHUwMDFmkc61mr7Zb3etyVx1MDAwNZNDoYCY4+TeQ6c/XHUwMDExliDJlCCIq+lcdTAwMTm2t1x1MDAwNc/zrVx1MDAxNlx1MDAxY75cdTAwMDOZrfBIsOuLsvvaPGxdnJlbT6PazuiQtFUzfOyd3e2e+c/d16Ywm/dDN1wilOe7Tse6tFv+/XvLRfZPr/NcdTAwMWNohfAq11x1MDAxObbv+5ZcdTAwMTc0QPgqzsBs2v5zsFx1MDAwZqHp3tdW+GNcdTAwMWRcdTAwMTlcYlGuXHUwMDE4wVxmMUI0oULQ6VlPcFx1MDAwNuyd/j25XHUwMDBiRioh0KbThT5cdTAwMDCB/nGHVFx1MDAxM6FQpFuz2WmDXFz91vRcdTAwMWPfNfvewHShp8Lzxm+vKvl0171lt+/9+D7PmrQ3Y0Izokj4OsEzXHUwMDA2u61J1/8z2iD91luDvI+FcDTQtz1/hdJcdTAwMDbnbydHUXQkxUaTbz2Fr1x1MDAxMOn60dnVznjcXCJcdTAwMGZH157ffVHNJ2t8+2V63l+/Zd/29eJ79kT2m+rAbDfQ3vFJ29OnyIw/5f35pus643nve3kt9nXroXXUYJ2Tx++qje9GXHUwMDA389337bewXYeDlvk68rHQmCpGOWIsXHUwMDFjNl2734GD/WG3XHUwMDFi7nOanVx1MDAxMCxrXHUwMDExgVMojbVrXHUwMDE0oJjnXHUwMDAxXHUwMDE0U8JcdTAwMTBcdTAwMTFEs7lcdTAwMDGa3UurXGJQSlxyTSnXNIKUV6RStjSkcmxAoytMMlx1MDAxMEtoXHUwMDEysUJcIkwp0qRcdTAwMDRiY8MnXHUwMDA1zUWOxrDTnb5/Zr+8qvzY3obZs7vPsb6eXGZTaKbNrlx1MDAxZGuhYP9G125cdTAwMDdD9ktcdTAwMTNcdTAwMGVZbmw0+zZYr+lcdD271YraoyY8zLT7lrs7j1x1MDAxOXFcXLtt983ueY4s8O7Wznu3QI/xSH97VnA02K9cbuH4qlx1MDAwZTLwyHQuXHUwMDFlYVxcUKU5XHUwMDEzc8OxWO9VXHUwMDA3jjHocVxm0FMwriXVXGLYgUzgjyODXHUwMDAyXGK1XG6MJpNcIiHY4tCItTZcdTAwMTBcZn/QgUhrhllcYvxcdTAwMTCVXHUwMDA2VVxuOkVcblwiXHUwMDE5xoqn7CpcdTAwMDHgUOi3MihN21Uy264uXHUwMDA1vJ5vun7d7rfsfjsu2Fx1MDAxYjGcXHUwMDA3UVx1MDAxM7g3h95E82KQRmJoUIWUhmbjkbPa5iBcdTAwMTBapl7W6rdmXHUwMDBiUb+53t+r955cdTAwMWRiPW5Qh1x1MDAxZI898yhbXGKEocsoXHUwMDE1VFLGpVx1MDAxNjJDXG5mMFx1MDAxZG5KiZRUXdPzN51ez/ahtY9cdTAwMWS77ydbddJ8XHUwMDFiXHUwMDAx1u8ts5U8XG5vXHUwMDE1PZZUXG6D4I5xylx1MDAxNP62XHUwMDFlombyx/T3f/6WeXb+YFx1MDAwZbZaelx1MDAxY4c3XFyL/sxTaIVegKI6l2QogIcg4Fx0zK3V9lx1MDAwN+Pm5sO1/XD1coNcdTAwMWE7531NzreqrtW00kaCSSDEXCK7XHUwMDE2rb0oXHJcdTAwMTXnVF1FWvlNPWGJXHUwMDA15USJivL+7eehu9XeXHUwMDFk1Z5ebtnj921v1DxsVJJHU5E3xsGQSSFwxOebNcSz37riQ1x1MDAxY15QgXpHXHUwMDExnf4+0PVcdTAwMTJcdTAwMDe6pkaCp1x1MDAxN3BmUONacsZ/Rc68cby77lnuKEqNY7zZnTRLPm32nUEuZ56hdJOcOUuWRfDmQjNDXHUwMDEwSe6dcmfw8aRcdTAwMDDDNjdcdTAwMDSf+u4p9ravmyfHbkucOZd7jafRgiHYMr17a7FmhsdcdTAwMDNLWi3PW1x1MDAwNeZk6OiWXHUwMDA2II2I84ZAjVx1MDAwNddalELgXHUwMDAy7c1yXHUwMDAzQtdO5+XJ8etcdTAwMGbtXHUwMDE3vNU4eNkze2Svmlx1MDAwMaFCJIF7lUvYhFx1MDAwMKdcZtFcdTAwMTJRoWJiXlFrJolMXHUwMDEyNvA3l2jHVFx1MDAwNn6kTsJcdTAwMDcjXHUwMDFjRKwqy9dMizb6XHUwMDBml82bfu3wuXnx2K/Xj1p/d5x2hWCZxy8pz41cdTAwMGJphDlcdTAwMDdNO79cdTAwMDeV3UlVXHUwMDA3JKWGyGCX0WjpwqdOhCGxyqKWLO1JXHUwMDA1rjXwy0hE6tfhlvuO2Vr/s39rdk1cdTAwMTh0eVx1MDAwNPOjgdlcdTAwMTmGXCJJMidCpUWai2cyXFxcYsPc+KxcdTAwMTAsuTecL2GYXGJVXHUwMDAyh8V6qaI4hFx1MDAxNzTAoyOIS6EpZkk4cmwgilx01lJxzvDywFx0bFx1MDAxZVx1MDAwNFx0N1x1MDAxY77PXHUwMDE0pshcdTAwMDBcdTAwMDaMQFx1MDAxMsmlZKApI9Os7/FZTDHivFxmalcuPlsmNCqYJEpgqolGimtcdTAwMTk56zUyXG7OfKT7mUi/+1xc4dpiXHUwMDA3Ky5cdTAwMTOlUmKOXHUwMDE0XHUwMDE1XHUwMDFhvFx1MDAwZYFFSqjAXHUwMDE1QVIzQpFQnFx1MDAxMZZcdTAwMTJqpaK1uUN7cnlqUIf3W4v+/Cnuj1Vuylx1MDAwNoZup4jAQ+dWcVdPjtXm2/1ccvcrXHUwMDFiWldbo9ZGXVZdxVx1MDAwMZdKcH948SVS//kyNFxiXCJcYsvAyFST+lx1MDAwZrzhtiBcdTAwMWRe11x1MDAwZlx1MDAxYmqkz6XbbXj/SalcdTAwMTRM5Vx1MDAwMUdzYIdwfP5cYnB2Y1ZcdTAwMWQ3jFx1MDAxOFx1MDAwMVx1MDAwM45R5lx0fJhYXCJ84KmEXGIu5kubXHUwMDAwJcZ4MFx1MDAwM6ZKwGhVePrW4dmSuPlcZkWe5OYxQZaaMUHyYYdcdTAwMTktwcaLVVBFIVx1MDAwN/TLXHUwMDAwi00kXHT4kVx1MDAxMDRcdTAwMWNrbzEraiCGkFx1MDAxNIQx8E6WXHUwMDE3XHUwMDBlllx1MDAxOfRcdTAwMWJjbTBClFaYgaNOeDgn+Y5GwkA5Ks0+XHUwMDE2z6o4/y6RXHUwMDFmQVx1MDAxNCGEalx1MDAwZVx1MDAxZVx0ZTQyS/9GdJmhhSZcdTAwMDJcdTAwMTNcdTAwMWVMZ0DL/lx1MDAxY/suhnNMXCLMhVSUIVx1MDAwNVx1MDAwNJtcdTAwMTONU1wigUOw0my7hkVcdTAwMDJD8eRcYsHjXHUwMDEw4rNuyJmhwFx1MDAwNlx1MDAxMqlcdTAwMTiMLyqEiN0vjYqF8neeO1x1MDAxMVxyo51TREtkkG3+cFx1MDAxZtD5mXWnvPPak9to9ztcdTAwMTes6jpcdTAwMTEjnJyBpsmnLzBcZsFwzFdDWfNgiZmydFhfXHUwMDEzXHUwMDE4K5yrMqTkXHUwMDEzuX1rcHd3f3u9+aTc2+tv6GSDNVx1MDAwN725uf29d7C36zqjm1x1MDAwNjdrZ3qgre6c3L7wvr3vl0dfxenp1qG4Ifut56uXl6G3gPt6ncHRw7hHWofehfp6MNpVXHLrbLV8XHUwMDExmatcdTAwMDOo5Fx1MDAxY0nC53fhs/u+8jqAspxcZm5El5mOXHUwMDAyyqdMXHUwMDEyN0Y8yFxmXCKIlVx1MDAwMP6qeCOn8PT1rlxyJGBpU1x1MDAwNjNcZlTSLcmWaPmZKTg/pkZcdTAwMTlQXHUwMDBlJfH8gOxvNLr8pGZt7nUsdrF7dfFo79xUXHUwMDFlkIIoQypEKJFMXHUwMDAywVxyLd3kXHUwMDA2XHUwMDA0U0NcdTAwMDSrMaREXHUwMDE4OPDy1kPhSFx1MDAwMG2KTJEyyYJcIsVwZVx1MDAxN0T9sHYw08fju11h9Vx1MDAxZXdvwak4tH9Vi/xQP26Oj87d3W/fW5tnL/u3d1x1MDAwN7q1gPu6XHUwMDE3L/JRXVx1MDAxMlx1MDAxOMWt05OvW/7ZXf/HXHUwMDAy7nt2uXXkYzw+UMSuXHUwMDBm+fb1bu/4crVcdTAwMThcdTAwMDSWucl0giCJXHUwMDE4LTFcdTAwMGKQPVgrr7G4MpDmXHUwMDAy/D5Q0mmNRcUnaSxOXHJcbn1cdTAwMWZPfiggXHUwMDE1QfxcdTAwMDCEL6O5VoVSNGF0WEviXHUwMDEyM+xqkkskRFlqkJOj3CAnXHJcdTAwMDJcdIiVWEZdrP2Xjsawr0uhXHUwMDEx4GgwhekkfVvxyDLM11x1MDAxYjDwsaWkQaI9ONKRaOTCp1x1MDAxYoQ2XHUwMDA0XHUwMDA2V50hXHUwMDEwhaKMZWGYS4NRXHUwMDAyslwiSlxiRSiVdoBcdTAwMTWVSmhgflx1MDAxZqJcdTAwMTdcdTAwMTWPe1x1MDAxNrPz9TDKWENcdTAwMDZcdTAwMDeLoyjHnEkpsrJcdTAwMGWinU+1Tr35XFxxz2KMr0fjnlxmacFAtUtBXHSWYUbsVCRlYM2AvXNcdTAwMTYsJ+ZvKUWrXHUwMDFhXHUwMDA1xZhcdTAwMWJIUVx1MDAxNSzXYIjgWMwymmKQfXkuKiaXp/BcdTAwMTDebi368+eWlyma3Dv1roKYrmZcbs1cdTAwMWbyrG3ffatcdHrNz2y7tlHfxl9rm8Oqc5WM5WVcdTAwMTjTxOM/f3FcdTAwMTm4WoxpjD+WXFy1NFx1MDAxZspSXHUwMDBmnf1h70rXtTw96rnmqHYqq8jFcYTLpXNyXHUwMDE05lx1MDAxNDjo3CM8+7UrPsJzV5dFXHUwMDE39fyta8uEXHUwMDAyW8Ak/f+1ZSXXls3QuFx1MDAxNVlbllx1MDAxYlHHWmhKJPTI3FxivG5fWb3BVnNjs3NxqNHR8zZcdTAwMTlVsU5KXHUwMDFjgalpNUz5MiPpi5hYo0DfhCyXlP+JXHUwMDE26OFH7/rHXrfz0tj7SpU/5HW65f7d0baXm55113GO/X3zXHUwMDFixd1Hj927q1x1MDAxNr1cIrmUUClNmS6Ti5fdSZVHa+5cdTAwMDRcdTAwMThmy2OGJae/JJWCXHUwMDEzXFxq2ntVbOYnzH7NsCNcdTAwMTWZ/VIqv8ZcdTAwMTjXSFx1MDAxMoLR/GisXV1/l7XRV9G83kCtPe09nHvnVUejXHUwMDA2JplAIbz13+2fXHTNwEGWsqJcdOVH98PbXHUwMDFks9X2XHUwMDFivZshuXB7wv7xvYrGXHUwMDA2q9y5XHUwMDEySjBcdTAwMTFSlki3yH7rio9vsLck0zsjZHlcdTAwMDW6SnlnmDCFkChcdTAwMTeLWFx1MDAxNVOzXFz3rFjhVsQ9y+V7mlxuSjEukVxi/vBy0rh7luOD8c7mjumNvGtzZ1x1MDAwNfhcdTAwMWVOzk8yWXXvjCDAr5Dkg7Mgy1x1MDAwYlx1MDAxMF7d2L3zx9atal5u71p7Vt2sbXxC0kJlLFx1MDAxYslf7Sy00kRSOv+8Y3ZrVlx1MDAxZVfBKM70o1xir0xcdTAwMWGh5mCAtS61inlVjNsn+FEzNP7n+VH5dVx1MDAwN1huXHUwMDA2oVx1MDAwMidKlVqUW1x1MDAxYziqblx1MDAwMlx1MDAwMDVcdTAwMThXSDNcdTAwMTjtWkXq5bxcdTAwMTVcdTAwMWWQXHUwMDA2XHSWRINRgXOZTEi22MJXXG7cVqWh4bFcdTAwMTRcdTAwMTlcdTAwMGKfJDIw0UJoXHUwMDE5TGpHXHUwMDFjvVe4csGCOdZcdTAwMGZcdTAwMTbxqfjkf3FwYj22wJ8gJiRihCpcdTAwMWWsXHUwMDFlRel6rDLW94qr9JqjRSdcdTAwMDBgoTjFijPJtUSRylx1MDAxZlx1MDAxMaE4ZooprFx1MDAwNaFIqnTl2pXKXHUwMDAwoCw/XHUwMDAzgM26Olx1MDAxN1x1MDAxNcGWwEN4r7Xoz9JaUaH8yFJQXGJCc1misGwxYauyWlx1MDAxNFxilFx0Zlx1MDAxY2mc8lx1MDAwMqDpXHUwMDE5XHUwMDEzXHUwMDE4mFx1MDAxYbjnPN9cdTAwMWK3hJRcdTAwMWbTisggXGJcdTAwMDZcdTAwMDCSWDLw+8NHhXlRXHUwMDEyzGJQbp+AL1x1MDAxZdQyjyxHfV9cYlx1MDAwNTwmcNR/6byoYr5cdTAwMTFTQpRqXHRcbkZS0EIoUuFyPVxcXHUwMDEwXHUwMDFh6/20L7RYtVhcdTAwMDNtrUBTS6JBXHUwMDFhwoP8qJRMmFx1MDAxOVpqOMilRlwiWFm52opcdTAwMTEglqtcdTAwMThrs1OjcpExuT5ccoqS6rF4OWhYwSeVx62EXHUwMDAyk1tcInO0f2l2vrXkeHCw6Vx1MDAxMfU8ti7NceVcdTAwMGJWgYWOL4pXsqiOIzRcdTAwMThukp/Xg9FE8FDxRSY4wlx1MDAwZu6Ad4dKLfz6xNBHY6s3Uk/Hx4NcdTAwMWaXzubZzWOHdu+dT1hBWXjfX2BmmuTPTGOJmVx1MDAwNuelRGnV7F6qPCC1MLRAqYhcbtiKZVx1MDAwMlx1MDAxM4HpktlcdTAwMTGVjHKOQIco49HE+18npDJZuvBn/7/cMJDRWu9Zvlx0Ypn/vazlXHUwMDE1xcYjc3nFXHUwMDFjMi613KPKr4OMqWBcZpUpKV6sXHUwMDE1q+pfsCRIXHUwMDBiPoD1UYhSlVx1MDAxMUuJfFx1MDAxMenddFx1MDAwMmLA5f5gUlfFfYRiuMRcdTAwMTk5dJJWwLaZxCiQLO0l/GSZmDJcdTAwMGI4wL2kSFx1MDAwMu1cdTAwMDe6L1x1MDAxMUtHS9JLNlbJXHSoXHUwMDAxfY/xdjHzishwXHUwMDBlNqXDK9aiP8vXvEL58zJSKkExXHUwMDEz88c9illVZfWSXCLJXCKNglx1MDAxYoRcdTAwMDVcdTAwMGJMXHUwMDA0/FP56TVcdTAwMWZWUzgrtqHSVV1cdTAwMTRcdTAwMDLXUVx1MDAxMfYxjv+rKKqJilCEc1xm3YODOeOMz279nJ4qXHUwMDExa5aYaqWIXG4+/igyQlx1MDAxN2jlq1mFXHUwMDFlRrCB6zlbUSVXe5XVVIUhXGJGcnPng5Xkklx1MDAwNvXf5tZWXHUwMDE3yj7+uj3st8foUl1a9tFu96byXHUwMDFmNcSKstT3v0hRXHUwMDFkXHUwMDFhXHUwMDBiUUzxXHUwMDA3JpCzwlx1MDAxMFx1MDAxOd+TIExcdTAwMDRcdTAwMWanqmpcdTAwMGXg+MxWXHUwMDBl3/P3wbU9XHUwMDFj2HLrnPKjecNcdTAwMDU/dk5N0rg4Pbo6+e7YtZeXg8b5yVx1MDAwMsJcdTAwMTDLKlx1MDAxYvEwJrLndlx1MDAxZY+t8cvR6fFx3dpcdTAwMWJcXK9WeIOT/Eo3Qlx1MDAxMsU1LlHpJrv3K491Rlxmylx0pzrjW2isYFx1MDAwNuajkMfEIJppMv8nK1x1MDAxOFx1MDAwMmNYrvj9qsQ46tPWW/+zP3bcztKyR2ZYpGRgI1wiWFKspcYyZK7PoFGwSlx1MDAxYVxcyLmBWaxZq+oyKE1cclwiYSAyXHUwMDE1pGRHWPybQc5fXHUwMDE382FsqvijeVx1MDAwNkBVqkpcdTAwMDSQZaCr9IPGueL+QzF8YtxcdTAwMWS0m1x1MDAwMFx1MDAxM6JcdTAwMTFcdTAwMDX3TrB0mENkkPeYXHUwMDAzXHUwMDExl3uVaD1PXHUwMDBlIFx1MDAxZb2+JmeHI/LH4OSwKluUoSA8kU9cdTAwMDLAbcealyFcdTAwMDHFbKuyuoZJg1xuyZhcdTAwMTRcXCCOXHUwMDEz5WqgXHUwMDAxXGbFJjP2glx1MDAxM8ryY6pcdTAwMWbVPFpDp0uAXHJRwEaiXHUwMDFmhFxmQ1x1MDAxN0RcdTAwMWGIXHUwMDEypKjE4Fx1MDAwYnCWUVxmj2uqKfqlXHUwMDEz1kooXCKuucCghTQ0rYpcdTAwMTU7mSpcIlx1MDAxYeldKpefrcaD8sGBVFIy6MF0mW5cdTAwMTiPKMieXHUwMDEzk/rikmfItFJcblFcdTAwMTlcdTAwMDJeRlx1MDAwN7UvXHUwMDE44lxcx9PVZqvDXFxgXHUwMDA0W1x1MDAxYVx1MDAxMiWVY3FEhOXHb5lcZr5IVWa9inOAj0fXm9YzuXhpOPWnraaFK1+gXHUwMDE3bEQyXCKiVNGCXHUwMDE13aTilv+8XHUwMDFlnO/7mopcYqlcdTAwMTEuNev7md/YecZcdTAwMWWvbVx1MDAwZc36xWCM9rr7++Rx5z8ovMCKPk5cdTAwMDXaWFxihucvw5HdmpVcdTAwMDdcdTAwMGXhhlxiMlx1MDAxM+K5XGavXHRcdTAwMTT5POKj+Fx1MDAxMcKQSIGazFxccJlcdTAwMGUuKMawxuVcdTAwMTI5Vya20HVu1//se77jmu1llaOcodZTYYVAppRES40oXHUwMDE0fGpcdTAwMDJzMJtcdTAwMDKBLp1cdTAwMWKNxeqpojyfIIFcclx1MDAxOaxcdTAwMGZcdTAwMDPVxFx1MDAxNI/TfC3za1N9XHUwMDE0j1x1MDAxYUWfS2U4+sPMXHRcdTAwMTl8zpExXHUwMDFlfLM7lqryXHUwMDFlXHUwMDAwlEohXCKp+KUnKIuBtFx1MDAxZUtioEqLoJYvx+C6XHSRMUGJZ4VcdTAwMThcdTAwMTbgXlxiKYOUXHUwMDBlXGZigLMs0+6FWvlJSlx1MDAxNVx1MDAxYr2RlYvBNlx1MDAwZnvPXHUwMDFi/sGWXHUwMDFh+Hnkfe3tXHUwMDAxX8zB4MyHcTntvy8j21x1MDAxYdfTmPzH3WRcdTAwMGK40aTpXHUwMDAzvWRNYPHX2l//XHUwMDA2Z8Zi9yJ9<!-- payload-end -->
  <defs>
    <style class="style-fonts">
      @font-face {
        font-family: "Virgil";
        src: url("https://file%2B.vscode-resource.vscode-cdn.net/Users/naveenrai/.vscode/extensions/pomdtr.excalidraw-editor-3.5.1/public//dist/excalidraw-assets/Virgil.woff2");
      }
      @font-face {
        font-family: "Cascadia";
        src: url("https://file%2B.vscode-resource.vscode-cdn.net/Users/naveenrai/.vscode/extensions/pomdtr.excalidraw-editor-3.5.1/public//dist/excalidraw-assets/Cascadia.woff2");
      }
    </style>
  </defs>
  <rect x="0" y="0" width="1701.634166865495" height="477.5" fill="#ffffff"></rect><g stroke-linecap="round" transform="translate(10.134166865495047 239.5) rotate(0.20536033749487695 37.5 37.5)"><path d="M18.75 0 M18.75 0 C29.7 1.41, 37.32 0.86, 56.25 0 M18.75 0 C32.5 0.5, 44.33 -0.92, 56.25 0 M56.25 0 C70.64 -1.1, 74.58 6.35, 75 18.75 M56.25 0 C67.26 -1.56, 76.68 7.13, 75 18.75 M75 18.75 C73.34 30.86, 76.25 42.35, 75 56.25 M75 18.75 C74.98 26.7, 74.39 33.65, 75 56.25 M75 56.25 C75.07 69.47, 68.6 75.01, 56.25 75 M75 56.25 C75.05 70.64, 68.84 74.14, 56.25 75 M56.25 75 C46.06 73.78, 37.5 73.94, 18.75 75 M56.25 75 C45.09 75.24, 32.69 75.69, 18.75 75 M18.75 75 C5.16 76.91, 0.75 70.23, 0 56.25 M18.75 75 C7.08 75.61, -0.31 68.57, 0 56.25 M0 56.25 C0.23 47.48, -1.32 36.02, 0 18.75 M0 56.25 C-0.26 45.68, 0.01 36.62, 0 18.75 M0 18.75 C-1.93 6.95, 8.09 -1.53, 18.75 0 M0 18.75 C-1.21 4.22, 6.29 -0.37, 18.75 0" stroke="#f08c00" stroke-width="2" fill="none"></path></g><g transform="translate(22.067760615495047 265.5) rotate(0.20536033749487695 25.56640625 11.5)"><text x="25.56640625" y="0" font-family="Helvetica, Segoe UI Emoji" font-size="20px" fill="#f08c00" text-anchor="middle" style="white-space: pre;" direction="ltr" dominant-baseline="text-before-edge">Client</text></g><g stroke-linecap="round"><g transform="translate(102.11726425555372 281.8134981108476) rotate(0 98.99924553565631 -1.463104190319541)"><path d="M0.02 -0.19 C33.36 -0.47, 166.3 -2.45, 199.42 -2.73 M-1.43 -1.34 C31.85 -1.35, 165.47 -0.93, 198.69 -1.38" stroke="#f08c00" stroke-width="2" fill="none"></path></g><g transform="translate(102.11726425555372 281.8134981108476) rotate(0 98.99924553565631 -1.463104190319541)"><path d="M170.22 9.67 C177.02 6.05, 185.34 4.92, 198.19 -0.54 M169.94 9.45 C180.8 5.4, 191.49 1.51, 198.3 -1.25" stroke="#f08c00" stroke-width="2" fill="none"></path></g><g transform="translate(102.11726425555372 281.8134981108476) rotate(0 98.99924553565631 -1.463104190319541)"><path d="M170.14 -10.85 C176.78 -9.4, 185.11 -5.45, 198.19 -0.54 M169.86 -11.07 C180.82 -7.38, 191.55 -3.52, 198.3 -1.25" stroke="#f08c00" stroke-width="2" fill="none"></path></g></g><mask></mask><g stroke-linecap="round" transform="translate(577.634166865495 136) rotate(0 168.5 43)"><path d="M21.5 0 M21.5 0 C84.6 -0.32, 147.32 0.71, 315.5 0 M21.5 0 C133.17 -0.01, 245.67 0.6, 315.5 0 M315.5 0 C330.66 0.44, 336.76 6.71, 337 21.5 M315.5 0 C331.88 2.05, 338.1 7.85, 337 21.5 M337 21.5 C335.56 33.13, 336.73 45.14, 337 64.5 M337 21.5 C337.06 31.09, 336.52 40.01, 337 64.5 M337 64.5 C335.88 80.2, 330.09 85.43, 315.5 86 M337 64.5 C337.78 76.54, 329.08 84.59, 315.5 86 M315.5 86 C241.01 85.7, 162.75 85.65, 21.5 86 M315.5 86 C240.4 87.5, 164.83 88.27, 21.5 86 M21.5 86 C6.17 85.8, 1.69 79.07, 0 64.5 M21.5 86 C5.71 84.08, -2.01 79.08, 0 64.5 M0 64.5 C-0.24 52.56, 0.85 40.84, 0 21.5 M0 64.5 C0.38 49.17, 0.31 35.88, 0 21.5 M0 21.5 C1.35 7.69, 6.79 1.69, 21.5 0 M0 21.5 C0.28 7.32, 7.1 -1.49, 21.5 0" stroke="#f08c00" stroke-width="2" fill="none"></path></g><g transform="translate(816.274791865495 141) rotate(0 46.6796875 11.5)"><text x="93.359375" y="0" font-family="Helvetica, Segoe UI Emoji" font-size="20px" fill="#f08c00" text-anchor="end" style="white-space: pre;" direction="ltr" dominant-baseline="text-before-edge">API server</text></g><g stroke-linecap="round" transform="translate(540.134166865495 115.5) rotate(0 229 176)"><path d="M32 0 M32 0 C131.86 -1.07, 230.95 0.84, 426 0 M426 0 C447.02 -1.63, 458.01 9.66, 458 32 M458 32 C456.75 100.51, 458.88 169.81, 458 320 M458 320 C458.12 341.8, 447.24 353.09, 426 352 M426 352 C319.75 351.79, 211.81 351.55, 32 352 M32 352 C10.67 351.51, 1.63 340.12, 0 320 M0 320 C-0.74 250.56, 0.29 184.33, 0 32 M0 32 C-1.94 9.73, 11.96 0.77, 32 0" stroke="#f08c00" stroke-width="2.5" fill="none" stroke-dasharray="8 10"></path></g><g stroke-linecap="round" transform="translate(315.63416686549505 240) rotate(0 44.5 39.5)"><path d="M19.75 0 M19.75 0 C38.07 -1.76, 53.32 2.01, 69.25 0 M19.75 0 C35.17 -0.35, 50 -0.78, 69.25 0 M69.25 0 C81.71 -1.78, 89.17 5.24, 89 19.75 M69.25 0 C84.56 -1.28, 88.18 8.53, 89 19.75 M89 19.75 C89.26 29.99, 90.13 39.79, 89 59.25 M89 19.75 C88.61 27.13, 88.5 36.19, 89 59.25 M89 59.25 C90.71 74.14, 82.5 80.79, 69.25 79 M89 59.25 C89.56 70.31, 81.9 79.63, 69.25 79 M69.25 79 C57.66 77.43, 46.22 77.94, 19.75 79 M69.25 79 C50.63 80.2, 33.36 79.74, 19.75 79 M19.75 79 C6.16 79.46, -0.52 73.94, 0 59.25 M19.75 79 C5.28 76.78, 0.41 70.57, 0 59.25 M0 59.25 C-1.37 45.22, -1.04 36.33, 0 19.75 M0 59.25 C-0.13 47.67, 0.93 36.93, 0 19.75 M0 19.75 C-0.11 7.64, 8.37 -0.28, 19.75 0 M0 19.75 C-0.46 7.59, 4.5 -0.85, 19.75 0" stroke="#f08c00" stroke-width="2" fill="none"></path></g><g transform="translate(321.77479186549505 256.5) rotate(0 38.359375 23)"><text x="38.359375" y="0" font-family="Helvetica, Segoe UI Emoji" font-size="20px" fill="#f08c00" text-anchor="middle" style="white-space: pre;" direction="ltr" dominant-baseline="text-before-edge">Load </text><text x="38.359375" y="23" font-family="Helvetica, Segoe UI Emoji" font-size="20px" fill="#f08c00" text-anchor="middle" style="white-space: pre;" direction="ltr" dominant-baseline="text-before-edge">balancer</text></g><g stroke-linecap="round"><g transform="translate(414.1433726348095 282.53121978554145) rotate(0 58.68889669626958 0.02489901990247745)"><path d="M-0.46 -0.19 C19 -0.33, 97.89 -0.01, 117.84 0.24 M1.5 -1.33 C20.7 -0.82, 97.21 0.7, 116.8 1.38" stroke="#f08c00" stroke-width="2" fill="none"></path></g><g transform="translate(414.1433726348095 282.53121978554145) rotate(0 58.68889669626958 0.02489901990247745)"><path d="M88.04 10.63 C98.08 9.3, 110.89 3.33, 116.44 0.64 M88.01 11.43 C94.22 8.31, 101.15 6.84, 117.17 2.08" stroke="#f08c00" stroke-width="2" fill="none"></path></g><g transform="translate(414.1433726348095 282.53121978554145) rotate(0 58.68889669626958 0.02489901990247745)"><path d="M88.58 -9.89 C98.59 -3.24, 111.19 -1.25, 116.44 0.64 M88.55 -9.09 C94.8 -7.85, 101.61 -4.96, 117.17 2.08" stroke="#f08c00" stroke-width="2" fill="none"></path></g></g><mask></mask><g stroke-linecap="round" transform="translate(114.63416686549505 52) rotate(0 37.5 37.5)"><path d="M18.75 0 M18.75 0 C26.87 0.07, 39.45 -1.88, 56.25 0 M18.75 0 C30.13 -1.09, 39.93 -0.17, 56.25 0 M56.25 0 C70.62 -0.7, 75.1 4.95, 75 18.75 M56.25 0 C67.45 0.75, 75.88 7.39, 75 18.75 M75 18.75 C72.8 29.08, 76.16 38.22, 75 56.25 M75 18.75 C75.26 30.19, 75.69 40.44, 75 56.25 M75 56.25 C74.05 68.2, 66.99 74.51, 56.25 75 M75 56.25 C76.24 69.88, 68.03 74.01, 56.25 75 M56.25 75 C44.76 73.3, 33.71 73.92, 18.75 75 M56.25 75 C41.02 75.29, 26.71 75.2, 18.75 75 M18.75 75 C5.6 73.33, 0.84 70.61, 0 56.25 M18.75 75 C6.04 77.1, 1.82 69.47, 0 56.25 M0 56.25 C-1.13 46.42, 2.27 35.07, 0 18.75 M0 56.25 C0.53 45.25, 0.51 31.88, 0 18.75 M0 18.75 C1.54 7.29, 4.83 -1.42, 18.75 0 M0 18.75 C0.52 7.35, 4.14 1.67, 18.75 0" stroke="#f08c00" stroke-width="2" fill="none"></path></g><g transform="translate(131.02088561549505 78) rotate(0 21.11328125 11.5)"><text x="21.11328125" y="0" font-family="Helvetica, Segoe UI Emoji" font-size="20px" fill="#f08c00" text-anchor="middle" style="white-space: pre;" direction="ltr" dominant-baseline="text-before-edge">DNS</text></g><g stroke-linecap="round"><g transform="translate(50.31543901636138 234.54007624426845) rotate(0 18.08306841240335 -59.89440494804421)"><path d="M-1 0.3 C-3.78 -10.48, -25.86 -45.56, -16.41 -65.63 C-6.97 -85.69, 43.99 -111.12, 55.68 -120.08 M0.67 -0.6 C-2.31 -11.13, -26.6 -44.64, -17.48 -64.4 C-8.37 -84.15, 43.56 -110.13, 55.37 -119.11" stroke="#f08c00" stroke-width="2" fill="none"></path></g><g transform="translate(50.31543901636138 234.54007624426845) rotate(0 18.08306841240335 -59.89440494804421)"><path d="M37.43 -95.83 C42.08 -101.46, 47.88 -112.33, 55.38 -119.99 M36.99 -95.07 C42.74 -102.5, 47.23 -108.12, 55.09 -120.01" stroke="#f08c00" stroke-width="2" fill="none"></path></g><g transform="translate(50.31543901636138 234.54007624426845) rotate(0 18.08306841240335 -59.89440494804421)"><path d="M26.53 -113.22 C34.54 -113.17, 43.84 -118.45, 55.38 -119.99 M26.09 -112.46 C34.64 -115.28, 42.08 -116.19, 55.09 -120.01" stroke="#f08c00" stroke-width="2" fill="none"></path></g></g><mask></mask><g stroke-linecap="round" transform="translate(603.134166865495 163.5) rotate(0 70.5 19)"><path d="M9.5 0 M9.5 0 C47.23 0.78, 87.15 0.27, 131.5 0 M9.5 0 C46.3 -0.89, 84.5 0.62, 131.5 0 M131.5 0 C138.38 1.9, 139.33 3.02, 141 9.5 M131.5 0 C139.82 1.32, 141.18 1.68, 141 9.5 M141 9.5 C141.6 14.09, 139.79 20.45, 141 28.5 M141 9.5 C141.49 15.54, 141.56 19.8, 141 28.5 M141 28.5 C142.69 34.79, 139.7 36.93, 131.5 38 M141 28.5 C142.57 34.99, 137.35 37.04, 131.5 38 M131.5 38 C85.22 36.92, 39.87 38.96, 9.5 38 M131.5 38 C93.03 37.15, 53.91 37.47, 9.5 38 M9.5 38 C3.73 36.23, -1.66 34.87, 0 28.5 M9.5 38 C3.33 36.71, -0.49 35.65, 0 28.5 M0 28.5 C0.32 23.61, -1.73 17.5, 0 9.5 M0 28.5 C0.49 23.79, 0.05 19.22, 0 9.5 M0 9.5 C-1.77 4.33, 2.65 0.61, 9.5 0 M0 9.5 C-0.93 4.31, 4.83 -1.78, 9.5 0" stroke="#f08c00" stroke-width="2" fill="none"></path></g><g transform="translate(623.067760615495 171) rotate(0 50.56640625 11.5)"><text x="50.56640625" y="0" font-family="Helvetica, Segoe UI Emoji" font-size="20px" fill="#f08c00" text-anchor="middle" style="white-space: pre;" direction="ltr" dominant-baseline="text-before-edge">Rate limiter</text></g><g stroke-linecap="round" transform="translate(1216.9143996128907 345.10422770182277) rotate(0 56 34.5)"><path d="M17.25 0 M17.25 0 C32.67 1.59, 50.77 0.87, 94.75 0 M17.25 0 C41.41 -0.06, 66.07 -0.97, 94.75 0 M94.75 0 C107.32 -1.92, 113.96 6, 112 17.25 M94.75 0 C106.09 -1.62, 111.58 7.31, 112 17.25 M112 17.25 C112.45 30.98, 110.66 41.53, 112 51.75 M112 17.25 C111.83 30.12, 112.65 45.11, 112 51.75 M112 51.75 C110.35 64.64, 104.29 68.98, 94.75 69 M112 51.75 C112.73 63.31, 104.37 68.85, 94.75 69 M94.75 69 C62.3 68.44, 32.07 68.43, 17.25 69 M94.75 69 C74.6 68.42, 52.06 69.12, 17.25 69 M17.25 69 C4.81 68.95, 1.39 61.28, 0 51.75 M17.25 69 C6.47 71.2, 0.18 63.34, 0 51.75 M0 51.75 C-0.35 38.03, -0.96 28.7, 0 17.25 M0 51.75 C0.46 39.69, 0.35 26.57, 0 17.25 M0 17.25 C-0.67 7.18, 5.58 0.74, 17.25 0 M0 17.25 C0.72 5.66, 5.77 2.22, 17.25 0" stroke="#f08c00" stroke-width="2" fill="none"></path></g><g transform="translate(1246.2298293003907 368.10422770182277) rotate(0 26.6845703125 11.5)"><text x="26.6845703125" y="0" font-family="Helvetica, Segoe UI Emoji" font-size="20px" fill="#f08c00" text-anchor="middle" style="white-space: pre;" direction="ltr" dominant-baseline="text-before-edge">cache</text></g><g stroke-linecap="round"><g transform="translate(753.6155423183484 179.47736612955714) rotate(0 234.8079420272652 78.71618751611504)"><path d="M0 0 C19.18 3, 36.81 -8.24, 115.08 18 C193.35 44.24, 410.53 134.19, 469.62 157.43 M0 0 C19.18 3, 36.81 -8.24, 115.08 18 C193.35 44.24, 410.53 134.19, 469.62 157.43" stroke="#f08c00" stroke-width="2" fill="none"></path></g><g transform="translate(753.6155423183484 179.47736612955714) rotate(0 234.8079420272652 78.71618751611504)"><path d="M439.63 156.41 C448.73 156.72, 457.82 157.03, 469.62 157.43 M439.63 156.41 C451.15 156.8, 462.66 157.2, 469.62 157.43" stroke="#f08c00" stroke-width="2" fill="none"></path></g><g transform="translate(753.6155423183484 179.47736612955714) rotate(0 234.8079420272652 78.71618751611504)"><path d="M447.3 137.38 C454.07 143.46, 460.84 149.54, 469.62 157.43 M447.3 137.38 C455.87 145.08, 464.44 152.78, 469.62 157.43" stroke="#f08c00" stroke-width="2" fill="none"></path></g></g><mask></mask><g stroke-linecap="round" transform="translate(577.634166865495 244.5) rotate(0 168.5 43)"><path d="M21.5 0 M21.5 0 C112.18 0.72, 204.49 1.86, 315.5 0 M21.5 0 C127.01 -0.54, 231.41 0.03, 315.5 0 M315.5 0 C331.1 -0.76, 336.8 7.98, 337 21.5 M315.5 0 C327.62 0.41, 334.75 6.78, 337 21.5 M337 21.5 C337.05 39.28, 335.45 55.13, 337 64.5 M337 21.5 C336.9 34.75, 336.16 46.69, 337 64.5 M337 64.5 C337.06 78.27, 329.61 87.39, 315.5 86 M337 64.5 C335.26 76.7, 331.89 87.42, 315.5 86 M315.5 86 C249.14 85.43, 183.05 85.33, 21.5 86 M315.5 86 C241.25 87.35, 167.86 88.64, 21.5 86 M21.5 86 C8.08 84.21, -1.57 79.29, 0 64.5 M21.5 86 C8.4 84.38, 2.1 76.65, 0 64.5 M0 64.5 C2.31 49.29, -1.01 38.48, 0 21.5 M0 64.5 C-0.55 46.98, 0.22 29.73, 0 21.5 M0 21.5 C-0.13 8.35, 8.93 0.05, 21.5 0 M0 21.5 C-1.11 5.88, 6.98 1.6, 21.5 0" stroke="#f08c00" stroke-width="2" fill="none"></path></g><g transform="translate(816.274791865495 249.5) rotate(0 46.6796875 11.5)"><text x="93.359375" y="0" font-family="Helvetica, Segoe UI Emoji" font-size="20px" fill="#f08c00" text-anchor="end" style="white-space: pre;" direction="ltr" dominant-baseline="text-before-edge">API server</text></g><g stroke-linecap="round" transform="translate(603.134166865495 267) rotate(0 70.5 19)"><path d="M9.5 0 M9.5 0 C47.59 -1.94, 83.27 -0.12, 131.5 0 M9.5 0 C36.07 -0.25, 61.26 0.54, 131.5 0 M131.5 0 C135.91 0.35, 139.05 2.83, 141 9.5 M131.5 0 C139.7 0.82, 141.45 3.04, 141 9.5 M141 9.5 C140.76 14.63, 142.7 24.18, 141 28.5 M141 9.5 C140.95 15.92, 140.82 23.54, 141 28.5 M141 28.5 C139.49 32.98, 139.62 39.24, 131.5 38 M141 28.5 C139.25 33.8, 135.89 37.28, 131.5 38 M131.5 38 C83.45 39.95, 39.17 37.92, 9.5 38 M131.5 38 C105.68 38.2, 78.16 39.32, 9.5 38 M9.5 38 C4.24 36.59, 1.83 32.94, 0 28.5 M9.5 38 C3.34 35.91, -0.36 37.04, 0 28.5 M0 28.5 C1.98 26.25, 0.45 20.49, 0 9.5 M0 28.5 C-0.17 24.22, 0.73 18.84, 0 9.5 M0 9.5 C-0.96 2.05, 3.01 1.39, 9.5 0 M0 9.5 C-2.28 5.15, 1.86 -1.46, 9.5 0" stroke="#f08c00" stroke-width="2" fill="none"></path></g><g transform="translate(623.067760615495 274.5) rotate(0 50.56640625 11.5)"><text x="50.56640625" y="0" font-family="Helvetica, Segoe UI Emoji" font-size="20px" fill="#f08c00" text-anchor="middle" style="white-space: pre;" direction="ltr" dominant-baseline="text-before-edge">Rate limiter</text></g><g stroke-linecap="round" transform="translate(581.634166865495 352.5) rotate(0 168.5 43)"><path d="M21.5 0 M21.5 0 C115.25 -0.96, 206.1 -0.71, 315.5 0 M21.5 0 C84.9 1, 147.56 -0.02, 315.5 0 M315.5 0 C331.61 1.68, 338.77 5.67, 337 21.5 M315.5 0 C330.43 -1.32, 336.39 8.59, 337 21.5 M337 21.5 C335.51 34.35, 337.76 48.09, 337 64.5 M337 21.5 C337.1 31.93, 337.61 42.32, 337 64.5 M337 64.5 C336.84 78.45, 328.49 86.96, 315.5 86 M337 64.5 C338.87 77.6, 328 86.48, 315.5 86 M315.5 86 C239.87 86.53, 165.83 85.74, 21.5 86 M315.5 86 C239.05 88.31, 162.57 87.39, 21.5 86 M21.5 86 C5.19 87.85, -0.9 80.78, 0 64.5 M21.5 86 C8.84 84.72, -0.9 78.54, 0 64.5 M0 64.5 C-1.43 53.75, 1.19 39.57, 0 21.5 M0 64.5 C0.89 49.73, 0.9 36.2, 0 21.5 M0 21.5 C1.12 7.14, 5.97 1.76, 21.5 0 M0 21.5 C1.59 8.33, 6.84 0.79, 21.5 0" stroke="#f08c00" stroke-width="2" fill="none"></path></g><g transform="translate(820.274791865495 357.5) rotate(0 46.6796875 11.5)"><text x="93.359375" y="0" font-family="Helvetica, Segoe UI Emoji" font-size="20px" fill="#f08c00" text-anchor="end" style="white-space: pre;" direction="ltr" dominant-baseline="text-before-edge">API server</text></g><g stroke-linecap="round" transform="translate(606.134166865495 379) rotate(0 70.5 19)"><path d="M9.5 0 M9.5 0 C40.13 0.26, 73.64 1.49, 131.5 0 M9.5 0 C53.38 1.87, 96.37 0.28, 131.5 0 M131.5 0 C138.35 -1.15, 140.47 4.4, 141 9.5 M131.5 0 C137.53 -1.89, 141.4 1.86, 141 9.5 M141 9.5 C140.04 14.65, 140.31 22.54, 141 28.5 M141 9.5 C141.08 14.91, 140.52 21.14, 141 28.5 M141 28.5 C142.63 33.76, 136.23 38.42, 131.5 38 M141 28.5 C139.94 36.9, 138.31 36.4, 131.5 38 M131.5 38 C93.42 36.95, 58.75 36.97, 9.5 38 M131.5 38 C88.03 38.01, 46.09 38.05, 9.5 38 M9.5 38 C4.62 36.89, -0.78 34.58, 0 28.5 M9.5 38 C2.83 38.3, 1.92 33.26, 0 28.5 M0 28.5 C0.31 19.93, 0.14 15.28, 0 9.5 M0 28.5 C0.42 24.5, -0.68 21.36, 0 9.5 M0 9.5 C1.38 4.18, 2.88 0.68, 9.5 0 M0 9.5 C-1.61 2.79, 2.01 -1.64, 9.5 0" stroke="#f08c00" stroke-width="2" fill="none"></path></g><g transform="translate(626.067760615495 386.5) rotate(0 50.56640625 11.5)"><text x="50.56640625" y="0" font-family="Helvetica, Segoe UI Emoji" font-size="20px" fill="#f08c00" text-anchor="middle" style="white-space: pre;" direction="ltr" dominant-baseline="text-before-edge">Rate limiter</text></g><g stroke-linecap="round"><g transform="translate(751.5922618184838 288.75757205116474) rotate(0 228.90364479908806 33.92795763629795)"><path d="M0 0 C22.35 0.67, 57.78 -7.69, 134.08 4 C210.39 15.69, 403.85 59.11, 457.81 70.13 M0 0 C22.35 0.67, 57.78 -7.69, 134.08 4 C210.39 15.69, 403.85 59.11, 457.81 70.13" stroke="#f08c00" stroke-width="2" fill="none"></path></g><g transform="translate(751.5922618184838 288.75757205116474) rotate(0 228.90364479908806 33.92795763629795)"><path d="M428.1 74.28 C438.14 72.87, 448.19 71.47, 457.81 70.13 M428.1 74.28 C437.98 72.9, 447.87 71.52, 457.81 70.13" stroke="#f08c00" stroke-width="2" fill="none"></path></g><g transform="translate(751.5922618184838 288.75757205116474) rotate(0 228.90364479908806 33.92795763629795)"><path d="M432.38 54.21 C440.98 59.59, 449.58 64.98, 457.81 70.13 M432.38 54.21 C440.84 59.51, 449.3 64.8, 457.81 70.13" stroke="#f08c00" stroke-width="2" fill="none"></path></g></g><mask></mask><g stroke-linecap="round"><g transform="translate(751.7344283164068 401.94617334065606) rotate(0 225.10036035871133 -8.579618140044772)"><path d="M0 0 C27.18 -1.33, 88.05 -5.14, 163.08 -8 C238.12 -10.86, 402.35 -15.63, 450.2 -17.16 M0 0 C27.18 -1.33, 88.05 -5.14, 163.08 -8 C238.12 -10.86, 402.35 -15.63, 450.2 -17.16" stroke="#e67700" stroke-width="2" fill="none"></path></g><g transform="translate(751.7344283164068 401.94617334065606) rotate(0 225.10036035871133 -8.579618140044772)"><path d="M422.34 -6.04 C430.15 -9.16, 437.97 -12.28, 450.2 -17.16 M422.34 -6.04 C432.33 -10.03, 442.32 -14.01, 450.2 -17.16" stroke="#e67700" stroke-width="2" fill="none"></path></g><g transform="translate(751.7344283164068 401.94617334065606) rotate(0 225.10036035871133 -8.579618140044772)"><path d="M421.71 -26.55 C429.7 -23.92, 437.69 -21.28, 450.2 -17.16 M421.71 -26.55 C431.93 -23.18, 442.14 -19.82, 450.2 -17.16" stroke="#e67700" stroke-width="2" fill="none"></path></g></g><mask></mask><g stroke-linecap="round" transform="translate(1071.134166865495 10) rotate(0 114 51)"><path d="M25.5 0 M25.5 0 C76.5 2.78, 124.64 0.37, 202.5 0 M25.5 0 C95.16 1.61, 166.06 0.55, 202.5 0 M202.5 0 C221.06 -0.56, 228.73 6.78, 228 25.5 M202.5 0 C219.16 1.63, 230.24 8.55, 228 25.5 M228 25.5 C229.13 44.99, 227.23 62.64, 228 76.5 M228 25.5 C228.22 40.03, 226.81 54.92, 228 76.5 M228 76.5 C226.05 93.89, 219.96 100.28, 202.5 102 M228 76.5 C228.08 93.26, 219.59 103.17, 202.5 102 M202.5 102 C161.18 101.13, 119.56 99.14, 25.5 102 M202.5 102 C138.54 101.48, 73.32 100.64, 25.5 102 M25.5 102 C9.99 100.8, -0.76 91.54, 0 76.5 M25.5 102 C10.6 103, 0.5 93.53, 0 76.5 M0 76.5 C-0.48 57.18, -1.04 34.82, 0 25.5 M0 76.5 C0.72 59.94, -1.07 42.36, 0 25.5 M0 25.5 C1.57 10.11, 9.67 1.73, 25.5 0 M0 25.5 C-2.02 7.66, 8.73 -0.69, 25.5 0" stroke="#1971c2" stroke-width="2" fill="none"></path></g><g transform="translate(1085.095104365495 38) rotate(0 100.0390625 23)"><text x="100.0390625" y="0" font-family="Helvetica, Segoe UI Emoji" font-size="20px" fill="#1971c2" text-anchor="middle" style="white-space: pre;" direction="ltr" dominant-baseline="text-before-edge">cache</text><text x="100.0390625" y="23" font-family="Helvetica, Segoe UI Emoji" font-size="20px" fill="#1971c2" text-anchor="middle" style="white-space: pre;" direction="ltr" dominant-baseline="text-before-edge">(rate limited metadata)</text></g><g stroke-linecap="round"><g transform="translate(1063.134166865495 65.5) rotate(0 -190.5 38.75677637761913)"><path d="M0 0 C-34.5 -1, -143.5 -20.83, -207 -6 C-270.5 8.83, -352 73.17, -381 89 M0 0 C-34.5 -1, -143.5 -20.83, -207 -6 C-270.5 8.83, -352 73.17, -381 89" stroke="#1971c2" stroke-width="2" fill="none"></path></g><g transform="translate(1063.134166865495 65.5) rotate(0 -190.5 38.75677637761913)"><path d="M-362.85 65.11 C-369.27 73.57, -375.7 82.02, -381 89 M-362.85 65.11 C-368.41 72.44, -373.98 79.76, -381 89" stroke="#1971c2" stroke-width="2" fill="none"></path></g><g transform="translate(1063.134166865495 65.5) rotate(0 -190.5 38.75677637761913)"><path d="M-351.74 82.37 C-362.1 84.72, -372.45 87.06, -381 89 M-351.74 82.37 C-360.71 84.4, -369.68 86.43, -381 89" stroke="#1971c2" stroke-width="2" fill="none"></path></g></g><mask></mask><g stroke-linecap="round"><g transform="translate(1070.634166865495 96.74322362238104) rotate(0 -158 94.5)"><path d="M0 0 C-20.5 17, -70.33 70.5, -123 102 C-175.67 133.5, -283.83 174.5, -316 189 M0 0 C-20.5 17, -70.33 70.5, -123 102 C-175.67 133.5, -283.83 174.5, -316 189" stroke="#1971c2" stroke-width="2" fill="none"></path></g><g transform="translate(1070.634166865495 96.74322362238104) rotate(0 -158 94.5)"><path d="M-293.96 168.65 C-298.85 173.16, -303.74 177.68, -316 189 M-293.96 168.65 C-301.39 175.51, -308.83 182.37, -316 189" stroke="#1971c2" stroke-width="2" fill="none"></path></g><g transform="translate(1070.634166865495 96.74322362238104) rotate(0 -158 94.5)"><path d="M-286.03 187.57 C-292.68 187.89, -299.33 188.21, -316 189 M-286.03 187.57 C-296.14 188.05, -306.25 188.54, -316 189" stroke="#1971c2" stroke-width="2" fill="none"></path></g></g><mask></mask><g stroke-linecap="round" transform="translate(1422.634166865495 161) rotate(0 64 39.5)"><path d="M19.75 0 M19.75 0 C51.48 1.41, 80.12 1.68, 108.25 0 M19.75 0 C51.93 -1.22, 85.7 -1.4, 108.25 0 M108.25 0 C121.13 -0.41, 127.43 5.92, 128 19.75 M108.25 0 C121.62 -2.3, 126.81 5.78, 128 19.75 M128 19.75 C130.13 30.55, 126.78 38.22, 128 59.25 M128 19.75 C128.82 34.47, 127.55 47.8, 128 59.25 M128 59.25 C127.28 71.52, 122.11 77.12, 108.25 79 M128 59.25 C125.78 72.66, 119.19 79.94, 108.25 79 M108.25 79 C79.58 80.02, 52.04 79.33, 19.75 79 M108.25 79 C85.52 79.45, 60.97 79.73, 19.75 79 M19.75 79 C5.9 80.23, 1.61 74.3, 0 59.25 M19.75 79 C6.21 78.99, 1.81 71.25, 0 59.25 M0 59.25 C-2.39 47.88, -0.1 37.43, 0 19.75 M0 59.25 C0.87 45.87, -0.9 34, 0 19.75 M0 19.75 C-1.93 7.01, 6.95 -0.52, 19.75 0 M0 19.75 C0.45 5.85, 5.83 -0.3, 19.75 0" stroke="#e03131" stroke-width="2" fill="none"></path></g><g transform="translate(1430.486705927995 177.5) rotate(0 56.1474609375 23)"><text x="56.1474609375" y="0" font-family="Helvetica, Segoe UI Emoji" font-size="20px" fill="#e03131" text-anchor="middle" style="white-space: pre;" direction="ltr" dominant-baseline="text-before-edge">Background </text><text x="56.1474609375" y="23" font-family="Helvetica, Segoe UI Emoji" font-size="20px" fill="#e03131" text-anchor="middle" style="white-space: pre;" direction="ltr" dominant-baseline="text-before-edge">worker</text></g><g stroke-linecap="round"><g transform="translate(1481.4085217430365 154.5) rotate(0 -91.63717743877078 -44)"><path d="M0 0 C-8.88 -12.67, -22.73 -61.33, -53.27 -76 C-83.82 -90.67, -161.61 -86, -183.27 -88 M0 0 C-8.88 -12.67, -22.73 -61.33, -53.27 -76 C-83.82 -90.67, -161.61 -86, -183.27 -88" stroke="#e03131" stroke-width="2" fill="none"></path></g><g transform="translate(1481.4085217430365 154.5) rotate(0 -91.63717743877078 -44)"><path d="M-154.86 -97.64 C-162.43 -95.07, -170 -92.5, -183.27 -88 M-154.86 -97.64 C-161.04 -95.54, -167.22 -93.45, -183.27 -88" stroke="#e03131" stroke-width="2" fill="none"></path></g><g transform="translate(1481.4085217430365 154.5) rotate(0 -91.63717743877078 -44)"><path d="M-155.32 -77.12 C-162.77 -80.02, -170.22 -82.92, -183.27 -88 M-155.32 -77.12 C-161.39 -79.49, -167.47 -81.85, -183.27 -88" stroke="#e03131" stroke-width="2" fill="none"></path></g></g><mask></mask><g stroke-linecap="round"><g transform="translate(1435.5016145215463 246.34091186523438) rotate(0 -48.96191558166697 63.516041858307744)"><path d="M0 0 C-1.44 7.67, 7.92 24.83, -8.63 46 C-25.18 67.17, -84.17 113.53, -99.28 127.03 M0 0 C-1.44 7.67, 7.92 24.83, -8.63 46 C-25.18 67.17, -84.17 113.53, -99.28 127.03" stroke="#e03131" stroke-width="2" fill="none"></path></g><g transform="translate(1435.5016145215463 246.34091186523438) rotate(0 -48.96191558166697 63.516041858307744)"><path d="M-84.32 101.03 C-89.11 109.36, -93.91 117.7, -99.28 127.03 M-84.32 101.03 C-89.65 110.29, -94.98 119.56, -99.28 127.03" stroke="#e03131" stroke-width="2" fill="none"></path></g><g transform="translate(1435.5016145215463 246.34091186523438) rotate(0 -48.96191558166697 63.516041858307744)"><path d="M-71.1 116.73 C-80.14 120.03, -89.17 123.33, -99.28 127.03 M-71.1 116.73 C-81.14 120.4, -91.18 124.07, -99.28 127.03" stroke="#e03131" stroke-width="2" fill="none"></path></g></g><mask></mask><g stroke-linecap="round" transform="translate(1602.634166865495 19) rotate(0 44.5 39.5)"><path d="M19.75 0 M19.75 0 C35.47 1.46, 49.63 1.25, 69.25 0 M19.75 0 C33.78 1.12, 49.79 1.28, 69.25 0 M69.25 0 C82.3 -1.06, 89.85 5.14, 89 19.75 M69.25 0 C83.67 2.18, 88.94 7.14, 89 19.75 M89 19.75 C90.6 32.06, 87.68 43.69, 89 59.25 M89 19.75 C89.35 32.04, 88.13 44.38, 89 59.25 M89 59.25 C90.54 71.89, 83.8 78.71, 69.25 79 M89 59.25 C90.38 74.05, 83.86 79.69, 69.25 79 M69.25 79 C52.24 78.63, 34.36 79.09, 19.75 79 M69.25 79 C51.86 78.6, 35.01 78.8, 19.75 79 M19.75 79 C5.01 80.22, -1.42 71.71, 0 59.25 M19.75 79 C6.64 77.94, -0.3 73.92, 0 59.25 M0 59.25 C-0.18 46.32, 0.35 32.6, 0 19.75 M0 59.25 C-0.94 47.96, -0.52 34.49, 0 19.75 M0 19.75 C-0.13 6.48, 5.56 -1.81, 19.75 0 M0 19.75 C-1.58 6.21, 6.7 -2.22, 19.75 0" stroke="#9c36b5" stroke-width="2" fill="none"></path></g><g transform="translate(1613.779674677995 35.5) rotate(0 33.3544921875 23)"><text x="33.3544921875" y="0" font-family="Helvetica, Segoe UI Emoji" font-size="20px" fill="#9c36b5" text-anchor="middle" style="white-space: pre;" direction="ltr" dominant-baseline="text-before-edge">Blob </text><text x="33.3544921875" y="23" font-family="Helvetica, Segoe UI Emoji" font-size="20px" fill="#9c36b5" text-anchor="middle" style="white-space: pre;" direction="ltr" dominant-baseline="text-before-edge">storage</text></g><g stroke-linecap="round"><g transform="translate(1649.927521680349 109.5) rotate(0 -45.396677407426864 48.53222283025059)"><path d="M0 0 C-3.13 7.67, -3.66 29.82, -18.79 46 C-33.93 62.18, -78.79 88.55, -90.79 97.06 M0 0 C-3.13 7.67, -3.66 29.82, -18.79 46 C-33.93 62.18, -78.79 88.55, -90.79 97.06" stroke="#9c36b5" stroke-width="2" fill="none"></path></g><g transform="translate(1649.927521680349 109.5) rotate(0 -45.396677407426864 48.53222283025059)"><path d="M-72.78 73.07 C-76.98 78.66, -81.17 84.25, -90.79 97.06 M-72.78 73.07 C-78.18 80.26, -83.57 87.44, -90.79 97.06" stroke="#9c36b5" stroke-width="2" fill="none"></path></g><g transform="translate(1649.927521680349 109.5) rotate(0 -45.396677407426864 48.53222283025059)"><path d="M-61.57 90.26 C-68.38 91.85, -75.19 93.43, -90.79 97.06 M-61.57 90.26 C-70.33 92.3, -79.08 94.34, -90.79 97.06" stroke="#9c36b5" stroke-width="2" fill="none"></path></g></g><mask></mask></svg>