<svg version="1.1" xmlns="http://www.w3.org/2000/svg" viewBox="0 0 1225.8736335426256 897.4634001053992" width="3677.620900627877" height="2692.3902003161975">
  <!-- svg-source:excalidraw -->
  <!-- payload-type:application/vnd.excalidraw+json --><!-- payload-version:2 --><!-- payload-start -->eyJ2ZXJzaW9uIjoiMSIsImVuY29kaW5nIjoiYnN0cmluZyIsImNvbXByZXNzZWQiOnRydWUsImVuY29kZWQiOiJ4nO1daVfi2Nb+3r/CVfdrk3uGfab+5izOoqVW3X6XiyFcIoqAgONd/d/fvVFMIFx0JFx1MDAxOFFvXHUwMDE1PVUn4XByzlx1MDAxZZ49nv/+sbDwrf/Y8b/9tfDNf6iWm41at3z/7U+6fud3e412XHUwMDBib4nB//fat93q4MmLfr/T++vf/1x1MDAwZb7hVdvXz9/ym/613+r38Ln/4P8vLPx38G+806jRd1c7VyfNyspRe3d1795eLp1cdTAwMWPwzdbgq4OHhpPp+tV+uVVv+sGtXHUwMDA3vC658DhTQkuujHVgX+8+0l0tvNBNI+H19n2j1r/AR7hcYq5d+I36RVx1MDAxZi/aYJjn3/xrgb1e6fW77St/ud1sd2li//KZ5JJcdTAwMDfTqpSrV/Vu+7ZVe32m3y23ep1yXHUwMDE31yF47rzRbFx1MDAxZfZcdTAwMWabzytYrl7cdkMv9/wrJy+zXHUwMDE0Y9dfv9dr43pcdTAwMDffwp+tX7T8Xm9kxu1Oudro04JwXHUwMDE2XFylOXaKtcHG/F8wq2752i/SzrRum83wwK3ay8DDXHJcZnZHvlxc+SeYpu/TXHUwMDE40mhcdTAwMDXaqGA9XHUwMDAzXCIybvzibrs1oCfcUCutXHUwMDA2XHUwMDE5fK3RW0FC6lx1MDAwZlx1MDAwNj0vN3t+sNw0s9VxXCJcdTAwMGJcdTAwMTPaXGJcdTAwMWT1/YdgXHUwMDBmQmR4dVj5zlxcd6tz3i5Wf7qzNf9uafvb63P//Fx1MDAxOT/s85ePjk9Xl1x1MDAxZpf3XG5PS/yotNRt18qbjdFfXHUwMDE5/n65223fp1x1MDAxZPegvf94oztcdTAwMWHOtrs1v7RUb/Eq5DCuPjoo7f68KNzUL1m9qFx1MDAxZn/sr7qjXHUwMDFjxrU3XHUwMDA3K1x1MDAwN4uH171WpWGPd7eX9qqbhVx1MDAxY8Z9XHUwMDEyje173j44U1vn0j8/WT97eqznMO7m2sGBeLxZ3ro/WTnZ3715suuqlMO4hadm78jcyi2+IZurXHUwMDFipiTWj6/Tjfvyp4Ahbzu18jPdc+24XHUwMDE0YKxxKlx1MDAxMFxizUbrapxbm+3qVcAqf4QmPCZ846k+XCJ8R5jmWe5K44FkoCxcdTAwMTgmI3LXgacmy10jPVx0TjMnjYpcbmAh/1x1MDAwN1x1MDAwNDB/L1x1MDAwMTxy40XSclx1MDAwYpw5hXtcdTAwMTIjaqVOXHUwMDE0tVpIpCtcdTAwMDHBXHUwMDBiplx1MDAxN7Uj84jQqdRcXGqbgU5cdTAwMDOyI3LDtUVBet/zu6FcdTAwMWRrt/qHjSeauGAjV9fK143m48hG0SiLzUadXHUwMDE24FtcdTAwMTWnXHUwMDFjXHUwMDFlXHSXod9AsPL6wHWjVlx1MDAwYoOLSrnn45RcdTAwMDdrXHUwMDE0vERcdTAwMTV/qoxXu8U02KXdbdRcdTAwMWKtcvMo6X3oXHUwMDA3NoY0zz2uYll1XHUwMDAyXHUwMDA0XG5BMlx1MDAxNdn44Vx1MDAxZVx1MDAxYuGkcoyl2eJnsbDkXHUwMDFlrs9cdTAwMGJn59dban/dXztZkurg/vMgl6hIIJEktPaEXHUwMDE2zDnBULRIXHUwMDE3XHUwMDEwPVxyoMGzSjtcdTAwMTRLgODCaTU2sUCecGd4VWSXJ2kh5ZBjXHLyqzNWzVx0kuVcdTAwMDSUaieHPzZWKyd31eXO1d7qtthrmdJcdTAwMTdcdTAwMDZK01x1MDAxNa7Gv1x1MDAxZISZdlx1MDAxNoVcdTAwMWKvS0NcZswn4GHgoJlcYsn2aVx1MDAxY1x1MDAxY79Ln0b1xXOwZMbjYC1HgFx1MDAxM8PBznhyPlx1MDAxY1xmwlx1MDAxM0IrLSZDk1x1MDAxN0Y2znHUvFa8nY9HbkRcdTAwMTg2T1x1MDAxYZ1dp9LqrexcdTAwMWV+XHUwMDFiuTi7olx1MDAxZFOpU1TPuEpcdTAwMWSZSESdxmvzXHR4eLJ8XHUwMDFhkyGjtKsl0lxmOGedZVKLXHUwMDExykWyneaHUM7jVklcdTAwMGVcXEum8Vx0XHUwMDFkJT2OsFx1MDAxYSlNXHUwMDFiLSVTypj/XHUwMDAxkDxHL4WIqMShJtaKa1x1MDAwZS7OSyFDpta4WEaswWnTgt18dzfF2v5Ws7LzdLhyXHUwMDAxUu6trlT2qqV2Rm2GcN+FeSatpOi0XHUwMDFi43P/T2iGLDxd9vrn//sz9ulCMsFcdTAwMGZuc4FcZlxmXHUwMDFj98VIRK9oak5cdTAwMWSRO49cdIXSWClmuOWBUfpye4x7glx1MDAwMSOr1iz3+svt6+tGXHUwMDFm126f3jtidvXL3f5So1VrtOqj1Pbi8ExjIVxmXHUwMDA0bfV2wFx1MDAwN1x1MDAxZZpiOHupQEtljVxmTf5bvdwhXHUwMDA0XHUwMDFioV+/VZs+hclcdTAwMTI1NIVcdTAwMDLzlFx1MDAxMKjJjLDWWLTsI1NwUVx1MDAxNqJ1WCR5eOGXI1xmiVx1MDAxM1xm31x1MDAwYoOveFx1MDAwMVx1MDAxY0/fXHUwMDExXHUwMDAxXHUwMDFj45CwwkPBa1HAKnA65FxcXHUwMDFjaDDOvUBcdTAwMWJcZmWuSKfmf1x1MDAwYtfhwFx1MDAxMz1cdTAwMTCOK9RtYOJcdTAwMWNcdTAwMTCcj198XHUwMDE1osjfXHUwMDFh9ytcdTAwMTW2zeaAwH1cdTAwMTU2XHUwMDE4dlx1MDAwNlx1MDAwN8Rtt/l5nVx1MDAwZlOwyjhSXHUwMDFheZd0joc0ttUkTFx1MDAwNIx5jEtF+tVKh7JthClx6z3FuVx1MDAxMswyYM6EfFCvqEh4gJpAaDDKOWZiQJFAsK5QUXBmXGZYXHUwMDA0YFlcdTAwMTh3VkPhyzJuXHUwMDA2VGSkMVx1MDAxNrcm4jukfZFy/OqQoXE3rZNSqDmiomu31uSLK0Xduzs83XhYPPquTlx1MDAxZjKiXCKnzEyyXCJXVJRI7/TR4GkkczQymEU9XHJ82mjac9biXHUwMDA2XG6DOp2BU+HRonwzXHUwMDBmPJRcdTAwMDWMaFx1MDAxNODOXHUwMDE4XHJcdTAwMWHZ1EFcdTAwMTRcdTAwMTA5zyjEiFx1MDAwNkGkY1K6KCmnXHUwMDAySFx1MDAxOTBcdTAwMWFcdTAwMDIjS1xi0zljhVx1MDAxNjyKkGLYKV+EXHUwMDE0T+spXHUwMDEwXHUwMDEyXHUwMDEylueMUlaNxFxcXHUwMDA2elx1MDAwYlx1MDAwMrhcdTAwMTR4MVF4g7XC8jh8XHUwMDE0sk9/i9nhwFx1MDAxM/GRZlx1MDAxYWlGsYg9SZOPmJ6B70+iycLfXHUwMDAxXHUwMDFlvT0+U9xfKNdqXXzlv1vt84V7v7LQ87t3XHUwMDFmXHUwMDFmsYFcdTAwMDBujoGmKWBmXHUwMDFjNKV4wzxjOJDsa+BSXHUwMDAyWlx1MDAxOWmU6rOcYPu8Vd+7Zz3lNlautnypb1x1MDAwZe3nYa14XHUwMDBmsLHgKcNR9kiuuLOjYlxuNYGHxrFcIlx1MDAwYl+CXGZ5McZcdTAwMDWOXHUwMDFkXHUwMDE40e9cdTAwMWbC4Vx1MDAxNuekpVx0nv5cbiGc68f7drXQ3VVQ3v55tFfdfjy7Vf+ruSNdv7FS6p1vXl5cdTAwMWOVipXV7uPdud3LYdzjQ9U9KnZrO42VwnXD52Lrtu6nXHUwMDFidypcdTAwMWNVkmlcclmcdFx1MDAxM4VOYshJJOZcdTAwMDVcdTAwMDC3SNtoXHUwMDAwpJY38UQ1N3kzW8RcdO1cdTAwMWJPoFx1MDAxZFxuKlbeaDMneWO0Z7iNy4RcdOGs17gxWISeOYicWaNNSpCDdX7Rpu12ubbwd6tSbpaROkO6N9fI01x1MDAxNIU5XHUwMDBlXHJcdTAwMDaTik4pVVxm6sV0i1x1MDAwN/iTXHUwMDA17ER/XHUwMDBiIL1aXHUwMDEww4TY0fApoPZkTFxuRvk+SmqtI2QohfWkZmggoIVcdTAwMDMs5EpcdNwtzHhKKVx1MDAxMFx1MDAxNn+BXHUwMDFiI36nyubjblFoiWsjY4NQwiXmXHUwMDA2XGKHX7Nunt6Wmr3qQOPptHR7V9aN2vpW0Vx1MDAxNpeyeVtcdTAwMTQ32oR55kO8LYnkTp8ooVx1MDAwN8NF3nD+8aJcdTAwMDJa55aRZ1x1MDAwN/lcdTAwMTk/UrnQU8++XGJcbno8x5tJKjDLo4gylYNksmRcdTAwMWOblGPcgrTWoNEqhIx6SKxcdTAwMTeOhGt4d49JPL1GXHUwMDA0atRjorTyUF5cdTAwMDJXwiGZiFF0IFx1MDAxZPPgZW1cdTAwMDdcdTAwMTI3XCJOnfJQ0Dr2O8D0NmgyXHUwMDA0PkBcdTAwMTawcDbOI82TTWdFXkKlQ1x1MDAxYvRcdTAwMTldKFx1MDAxZu0zSVx1MDAwZTRNXHUwMDAxJMk+k9niTZNccsFJ+MdcdTAwMTgzkmZcdTAwMTPYXHUwMDA0XHUwMDAzNI/siLxcbmjUoH3lXFzU5SnBeVx1MDAxNrhknFx1MDAwM6dQZqCiXHUwMDAytkWdYVx1MDAxNEo4YZwlts+Cf2Y1XHUwMDEzvixcdTAwMWJnwD+C4a4gc0fzmFx0u4b8MePsXHJcdTAwMTJcdTAwMTj+Y2fJYJ9cdTAwMTFcdTAwMDGp4knzR+fnxkOJXHUwMDFmV9pXLSeOj68yXHUwMDE5+EJcdTAwMDFnMsxcdTAwMWZcdTAwMWaThcOV81A0ojkpXHSU8dEkXHUwMDFj7TxpXHUwMDA1KFx1MDAwN9qgljNq6njJLDS4XHUwMDFk5Z55gKos+Fx1MDAwNZzhiiurQDNcYjlIXuFcdTAwMGLFrC0gvpGo1jlcZrOI3i/mxFxys0YjltLaUVQwXG7ztIezwUVcdTAwMDeDczbi3ZN04sk/XHKgUtxzRiNglTJcdTAwMWPMf1x1MDAxY95DmGU1Yippo9LZaU9cdTAwMWFcdTAwMTTiMjZcdTAwMWWVXHRO/XJyOFx1MDAxNk45XHUwMDA0MILL+IRcdTAwMWQ1fjGoJlGMtGfuXHUwMDAxqTfIxCGaOvErXHUwMDBinXLdX/i8YGpcbrpcdTAwMTlcdTAwMDdTMW+UZ8BJT0hulY5znaou7FkqNM3eidpuLLdLtXprffNCq8eLjc/DO/FcdTAwMGVgXHUwMDE0rlx1MDAxZTCNUp+yJFx1MDAxOFOjhYxGMM9RvYFFu1x1MDAwM6zkY1x1MDAxM5t70ZBgxkmpwH2tiNPuujx9eChcdTAwMWab8t71Jlx1MDAxMyd363p5/6Orf0/6XHUwMDBmZ659ebS736zvXZ4sXHUwMDFl72xcdTAwMWPf5Vx1MDAxNcFhXGZtw/eP4Fx1MDAwNP6VcVx1MDAwNlZcdTAwMGUngkAsPVx1MDAwM8dv0txcdTAwMTh4tlxijuDMM4D2vVVcdTAwMWFcdTAwMTc9wsBKejBcdTAwMTdcdTAwMDZcdTAwMDbpIahhJj5dJlo1xFx1MDAwNT7qXHUwMDEwQtq3c/LMgZzMVDq7XqVcdTAwMDVcXF7ZfafgzVx1MDAxNOUzrlZHJvL2sqHJXHUwMDEyamLZkCRcdTAwMTNcdTAwMGJcdTAwMTQ58SlFdrRuXGJhKk5cdTAwMDfINc1cdTAwMDRDpFx1MDAxNtO/XHUwMDA0tMelNZR2iTvKQ+UqoVx1MDAxNFmqtdCO4c9Ippn+XTiUU+FcdTAwMTBaZlxcMydic7pkctK7XHUwMDA27awzqYRzTip4R7GtXHUwMDBi3r4r1G5cdTAwMWVbW6uHwtrdjFFcdTAwMWJcdTAwMTA65Hv9OJ+FcJ5cdTAwMDOyIIFRm5hcdTAwMDBcdTAwMGLRR1x1MDAxOVx1MDAwZpErojmQ2jDthJ4+YFwiXHUwMDBm0SfKPcGAkUX7kEBcdTAwMTDqPs5cdTAwMTRoqpzlXHUwMDFjQrNcdTAwMWZ6XGJQjDBu8CMks1xiXGZm9FpMlrKjk6KQXHUwMDE00jlcdTAwMTilqf2AikzKUjYzN9KgXHUwMDE5apXU0Tnl7LaI54CIlI66LVx1MDAwNFx1MDAwM1x1MDAwZjRuvpBcdTAwMTJNJlx1MDAxMKNSWknwjFx1MDAwMVxcXUZJJKHU+NdCI248lFx1MDAxNFx0zU50oIB/i+PhwJNdXHUwMDE3xjmGXHUwMDE2U2wkKLlgXHUwMDEzV27WwoTJcSDgjs9WfT1ERmvt7lx1MDAwMpI7Yp6/W1x1MDAwNG3oZ1x1MDAxN5qNK3/hsvfnQuO6XFz38b94r9db8PvVj/Zv6OBlx4DYXHUwMDE0KDRcdTAwMGXE0r135K2zxJMmm3mTwJnQ4HFcdTAwMTRjxkqjpVx0pcNcZkxcdTAwMGKUqoI7Rr1cbrixIVs9ZNN7XHUwMDA2XHUwMDFmQZOAO43/isunwd9AouRWKSVQx9gsefXnzFZcdTAwMTn7hYRBXHUwMDA2bKa1RYnMY1vPieSGSGhFSqbMPPNp9uXhfu22dWzLj09qp3q7UVpcXCplRGZGm4/Pp1x1MDAwMYRcIqjsLVx1MDAwMS+HcEqOlXRL5Vx0y0HyQVx1MDAwMMBYMW3AZFx1MDAwNlx1MDAxYVxmXHUwMDE45Z15ILPUIIiheNBcZvFcdTAwMTZFo4UxMVx1MDAxOMh4RlLhkrFGO0BkMYywJVx1MDAwMLPofPODR/FkmFx1MDAwMlx1MDAxZVx1MDAwMVx1MDAxM56mmJ+UuLEoXG5cdTAwMDPeXHUwMDE5wCNQnlx1MDAxZFx1MDAwNHyQWtHGXHKsotfIXHUwMDBl89h4WdJsgZ1fTiDGoSOltVaKx3aC44ldwrRVlOj2XHUwMDFlddggRSizelx1MDAwNnRU8nuddqvnfzTsSVx1MDAwZetMXHUwMDAxXHUwMDE547An+kI5RnVAJTqFuUJcdTAwMTNXXHSWqrPqs1j4Uaj1q7v7h+6muS/L+ryu2udzzOufsY7IKI+iOUJcdTAwMDBDXHUwMDA1IUYlXHUwMDEymlx1MDAwMJ5SlNQvlKFcdTAwMDYkifJkXnVEilx1MDAwYmmFXHSlqH2FqM7pKdRuz1bXdlx1MDAxYbvd3tlZ8X574yR1XHUwMDFk0SfsvTpx3O/7P443mqbbXl9s32129vq2oSo5jLtrXHUwMDFhh+t7K6vq7qbA9jfc0+V9VedWRyTJXHKWQfROlDpJUSiAXHTZWcZqjZo/fVx1MDAxOCqequYmcGZcdTAwMGJDXHUwMDE551x1MDAwNu2KwMRcblx1MDAxY1x1MDAxMkdzXHUwMDExOJlcbolcdTAwMThz3CFsy1x1MDAxYodkiUBxajIxU+OFT1xcSjRFZ86tlGiyjJ1cXEpE4UzHXHUwMDExS3JqyTjm+5DGkGGmybBh1C4q6vOU3Hk4itPIXHUwMDEwoFioXHUwMDAz0CtJXHUwMDFh5klcblJbVH2A9rqYwGS/vFx1MDAxZjRLKq00VOHFY/vZ6eQ2o9R2jNxZs5hcdTAwMDAzQohiVcrqhliqLfWO9OV+u3pdeHjKpOK45cLO5HvN1feBMt9DsEn92yhcdTAwMDFdjOa9au0hs1x1MDAxOFx1MDAwN05IwZidNlpcIvNcZkaL8E0wXFxkvT4kIMWZpoJZy52i7jIuLotWUJInvpxUXHUwMDBluJzi90ia1GRBOzap55pIyzhcbi1ldEyYTKDyRFx1MDAwNc6NMkLgTkVcdTAwMTksX5dLPPVH5HPU5aK5XHUwMDFhXHUwMDE0pyFJXHUwMDE55Fc+mkorXHUwMDFjxTNRejNBWW0y2vnO5tfb5ZdcdTAwMTPEsb3vpJOGujLFSFxcl+hyIYGrjXIm94hcdTAwMTTCKqTxN1UmlfybW7/X/+vvVrPdqi98glZ4yV1dpuCcqPcl+dWyRJYmm5qT4JXlxqON0lx1MDAwZVWC5GNJa1Jxj3peScM5/uNcdTAwMDJ3ziu4ol5gTINWwlItd6DTR8CVRZtcdTAwMDN/yjAn1e/8+Lza4lx1MDAwMVx1MDAxM5xHuZrmYlx1MDAxMz1vyOeo8EyqXHUwMDA2PjlhK92r/yxcXDjVvtnomurdYuXm7LqVzX1cdTAwMDCaZzpq5n2wVYFcdTAwMGKB+kppXHUwMDAx1Fx1MDAxOV6geFx1MDAwYn9cdTAwMWYs2lwiXHUwMDE29bYwXHUwMDFhkJ1geqvgRP6hT4Rz5lx1MDAwMa+yIFx1MDAxOY1WmXNcdTAwMTSmxHlcdTAwMDKLVlx1MDAwNDmPaYQ5knJi0bw2Q7z5fkVKgCtPyXDgqIZHx1x1MDAxNik5g3h24IGmXG6x98ZW8dSfXHUwMDA2W6lcdTAwMTck77TgXG6CXHUwMDFlfy9Hylx1MDAxOVxcXFyqQlx1MDAxZZSAyYzRrEzQ6pdcdTAwMTPD8dEshjZcdTAwMGUzXHUwMDExXHUwMDE3I00+sUpcdG0jSY3F3SxHyE2BVpri7W+DVs/Rn79bvYt2t/+5sdVcdTAwMTSQk1x1MDAxNNmKfbc8g1xcJlnVWkdcdTAwMTImQ+VDsVFU/fqR2P9RvKverK6JVvnH4+fhp4TSJU5cdTAwMWRcXFx1MDAxZJNcdTAwMWE1XHUwMDE1UiZcdTAwMWJcdTAwMTVUXHUwMDFjbTy0XHUwMDAxXHUwMDE4XHUwMDE1coGjStVEOeOqUldUdjlcdTAwMTNEuWKSzqNRLkBNhJhWf60g1yN029rsfz+XXHUwMDA35ifclEtLS52LbLXeiFx1MDAxODPFvydyRVJcdTAwMTBGscQgjKR8XHUwMDAwy1maXHUwMDA2XHUwMDE4k156blxmMVtcZoZcdTAwMWPVnkIzXFxcIlSMMoTg0oM5MVx1MDAwNEdcZpCi8ctrKVx1MDAxMCdnnjZcdTAwMWZZXG6UmUpn11i0fov7xZdWqlx1MDAwYiHnUa5RmClSfVxcc8XP6C3FQelcdTAwMTSZS87WYLgjytpUyYjPjMvPti7PmjXzcFK7XHUwMDEzx437Jqzu1r+AJkNzzFCLg0F0VIxcdTAwMWTegZqMjtdCjpXGcUg+92tOiowjJkWuUaHi6K+gyVx1MDAxNpvioHe831xcLV5cdTAwMWNdNVTppHK1nKlcdTAwMDJoXposudmLdlxmXHREpHKYTnrpT6/JXHUwMDE0WfmSaExHXHUwMDE5QqImY/NhiGyKXGZNfyZcdTAwMTT81mO56rEpMv2T6DHFXHUwMDEy9ZhgQGVnkKGb8G5D3dUvt693KpXlXHUwMDFmcmOvf9osV76AXHUwMDFlc1x1MDAxZWOgXHJcdTAwMTNcdTAwMGWE46NZQNJcIlx1MDAwMOWDwyM0XHUwMDA1fUJi7oNcdTAwMTRcdTAwMTmVPFx1MDAxYeTur2WRWf3Az7b9XTTxL0q19rr/o3NW+Yx6LLnKxEk6+M7Y9Fx1MDAxNln8S39+PVx1MDAwNp6ziqNcboEoQ1x1MDAwMFeem1x1MDAxM0NkU2RWSqAyllx1MDAwZm2y/WGKrPVOimyKUJ+gyFr5KLKXXHUwMDA0001XX7SbW52l28ZcdTAwMGVbOvzZOb9cblx1MDAxZmebrO2eaXrQb40qWlx1MDAwNqXio7XAXFxxTyCxXHUwMDFirqQw1Fx1MDAxZTRKiobOLaJDnJShXGJbXFyKuFx1MDAwNOMpZ/E/klHcUE1gtLxYJVx1MDAxN1x1MDAxMVJrUyDsw6O3MdGlXHUwMDE3080yy7VxcdFcdTAwMDSVXHUwMDFjTZBaXHRGga1cdTAwMTTyOqWW+zLZ32nS3yflOjjKjKN8XHUwMDE0NGSoUeeYce/sSGq0irY4XHUwMDExTHn4XCLKMKY0507GYJtJmuiXXHUwMDBmq2XpaFx1MDAwMsxYXHUwMDAyqXHpXHLR1qxcdTAwMDHCXHUwMDE3dICG1DkyyNT0htr378d7e1x1MDAxYv7NY/tsZ+1yeffQ/MzGXHUwMDFmwik2U5JUvqmjifQ99vXIXHUwMDFifUD2XHUwMDAxqTdunbKWXHUwMDEyWblcdTAwMTXCL/BoYetYKqWa1if1PVx1MDAwYlvjXHQlXCK6oplcdTAwMDDOXHUwMDE4z1KTb1x1MDAwNdKCg7EsS0vdpidKLlx1MDAwM1x1MDAxZThcdTAwMTFfj/G7YWlq1Dys6KdcIm9cYlx1MDAxZFx1MDAxNJ6qrlUwQLaiY7VnXHUwMDEwTZMzXHUwMDAx0IjjdqbuaWNJllx1MDAxZlx1MDAxZP1PrmudovZcdTAwMTMyK98l4q+SW/xrXHUwMDA1XGKmUymfl/jmzu5mWZYuS3znsF3p1eD+8fBcdTAwMGJcdTAwMDT8lfAkiiPqVYXmNFx1MDAxYpVHaEh4UtFS0JEwwJKNaXHufIDs0iSjd1x00YBcdTAwMDDpvlir0u9VtbTWO7xZ2iwyv9L2105cdTAwMWKVfjbvkkXbPUvW5ESeSPQuQaK5XCLIXHUwMDExqUFm8LfGv/XcXHUwMDE4Ymb3kvM0tZE3TmpcdTAwMTdhXGJQ82JcYmY8UJynL72UzFx1MDAxMJ3IXHUwMDBmjZRkpdPZtVx1MDAxNK3gyevhqVx1MDAwYn+33itWMkWwx7XXnjFWklB4mU6VyURVZoRFuuXpOddcdTAwMWPIZbtYKN1U5eNObalweLR8d/9cdTAwMDVUXHUwMDE5QmNcdTAwMDRPXHUwMDA2qPGNXHUwMDFh66wlJCVcdTAwMGJcdTAwMWLU+EpqJpPjm3PSZEpcdTAwMWGntHVz8lXlpMk6t093XHUwMDE35bXy4+XOaru4XdzcWTnd+YyaTCc3SrWc3EY6Qy5n/Ft/ek2muaedlJbylt04P1x1MDAwMMyLXHUwMDFmsisyYYVELJpDKsxvRVx1MDAxNlJkU8T6Z1FkySeWW4FcYtWJ0OlcIlNj/j93Lztccv1DmVx1MDAwM+FcdTAwMWVONtql07OVL6DJ6EgjhspMXHUwMDAy1VxmjYY4rdCeVVx1MDAxY9lWWOp6Nz6xuasyLlx1MDAxONpcdTAwMDZauFx1MDAxY5DnXHUwMDFjdZlf3NkrfF/9cbl7f9V4uOKn8qR191x1MDAxOXWZkUlcZsElykqUrFx1MDAxOayy+Lf+/LpMe0yAlai66dTRMY5cdTAwMDAzL47IrMws9TtcdTAwMTHhRiS/ljJ7t8D/ZMk+QZllXHL8v0WZuURcdTAwMTiqOdopTKc6YvCZc1x1MDAxZnZv19pcdTAwMDfd/eul7eLpzve9m+P10t4nirUnsS6qK3LaWS6Ntnys9lE5asdK/UtcdTAwMThYUKGzunJn3TflSFxm2VmTo5RJnVx1MDAwMzvnqOqeXHSk6zdWSr3zzcuLo1Kxstp9vDu3e6Oab6Z2cseHqntU7NZ2XHUwMDFhK4Xrhs/F1m3dTzfudFx1MDAxZCqZ1vDmQ43SLMDkhFx1MDAwMkRcXFRHTK2KUIuMZuCgme6BXHUwMDExUmr8XHUwMDBiiTja/Fx1MDAwNI1cdTAwMTVcdTAwMGZcdTAwMWM4S1xyXHUwMDE2WOiMx1x1MDAxMG5cdTAwMTKeoIQ0i7dcdTAwMDHCkYXfsbrhwLNcdTAwMWSYXCKoXHUwMDAxP4ttlKJcdTAwMTPTJblFgG1cdTAwMTjkmX8zXHJxnjXqsHh6+L1UKFx1MDAxNcpL5ZWHXHUwMDBlX1/Pxi1cdTAwMWPAzZTAl2t6XHUwMDAxZ9pDXHUwMDFjJjWdyI5cdTAwMDBntDWVsN4gvC1cdTAwMDVcdTAwMTXOId9MXHUwMDFiLpF76Fx1MDAxM+GbYLTIen3I8a5cdTAwMTJZ01jhXHUwMDE4ioZQ4cTCa95cdTAwMDLzOPXdclT6j6/Chm+QsXXCZP0/OieiXHUwMDE0rTVSXHLgXlx1MDAwNXD5dVLKXHUwMDAznFx1MDAxNKOzVDhcdTAwMWSQyqPslW/GRDztR2RzTMaERZ1sXHUwMDFkSl5w0thQiGrgx1x1MDAxYVCiNtzhfc1UtK/N74SJPFx1MDAxMyaAc+6oLVWMsI30XHUwMDA2fMW6gsw2nio1PWO6XHUwMDA0NWR4Y+OET54uMVx1MDAwNdTklC6RXHUwMDA26U1cdTAwMDJQSFx1MDAxNtLDvWCKIUhcdTAwMDKhRtnUXCKbgkBdIZkwXHUwMDAydJRNXHUwMDA1WtaOOcpcdTAwMDRcdTAwMDNNfWai3KrJZc21koZRRlvokenMO6v18GWZN1x1MDAxM4JyuGlcdTAwMDCx55rY5FxmZkdsjd+bI4Laa+xcdTAwMWPsnen77ZMnvvJQ5/3H02YhI4JynH18b89cdTAwMDJcdTAwMTeKXHUwMDBlK7NaWiFccoVgwt8vWE+jXHUwMDE5MjhcbpBcdTAwMWFLuuknziUy0OBuhHfmgaIyIVx1MDAxNnCI8ph2zOBcdTAwMWZCZ64uhPI/XeiMPsGGPbky4qjU2Fx1MDAwZXFcdTAwMWLCXG5cdTAwMGJUaYi4lFx0iPag0p7lwJRDIExcdTAwMDf9mWjT0ZxxVDxcdTAwMDekwVGA62fx41x1MDAxY9mwblxmR1mNoNGi4LaazpGMyOf8XHUwMDBlVPnlRHFcdTAwMWOOskhOiGxNnMhNTjzlaGQo8qTl34Jqdrn4dU5UmVx1MDAwMm/yOlElTVx1MDAxOc5kLIVoXHSBXHUwMDE0XG5cdTAwMWO0h1x1MDAwNWOj3iipmKektkZcdTAwMTOkRrsm6o7i1tFZJdTUT1x1MDAwZfBYlGU58juVT0pkeTrEOtST8ZPXg312NOWMoI5cdTAwMTIsLqc8+SBJXHUwMDA0YbiZ+M05dkrfWb5dsnvdoilqe165u7SHUvpcdTAwMTm7edrwXHUwMDAx6Fx1MDAxZoamXHUwMDFjheVcZlimlKBWbeFvc+ZZYTX5dplcdTAwMTSC6em9PFx1MDAxM/lncHfEd8Jx3HlgqclcdTAwMTWmo1iKXHUwMDE5o4yhI+wpJTTmjLjRJeHuvVulo8BykpAsaOrsrVRMM08zaFx1MDAxZlx1MDAwZVRhKKm6+92RVDz1p0FSWnpK0ylkXHUwMDAzODreklx1MDAwMZxnXHUwMDA31Vx1MDAwM8gjjLlotW5+UOqXk8OxJ/c6XHJcdTAwMWFcdTAwMTeaxfmkklx1MDAwYjyEoLN7ZzsvfVxulJpZKH5cdTAwMWQoNVx1MDAwNd3MXGal/nhcdTAwMTGe38qdzmFcdTAwMWbX9VX8fLtr+PdLUVx1MDAwMv/X+eBDnD7gc1wibn+gs//545//XHUwMDA3PI1YJyJ9<!-- payload-end -->
  <defs>
    <style class="style-fonts">
      @font-face {
        font-family: "Virgil";
        src: url("https://excalidraw.com/Virgil.woff2");
      }
      @font-face {
        font-family: "Cascadia";
        src: url("https://excalidraw.com/Cascadia.woff2");
      }
    </style>
    
  </defs>
  <rect x="0" y="0" width="1225.8736335426256" height="897.4634001053992" fill="#ffffff"></rect><g stroke-linecap="round" transform="translate(221.59960674836253 307.1956763305577) rotate(0 62 44)"><path d="M22 0 M22 0 C53.9 0, 85.81 0, 102 0 M22 0 C38.63 0, 55.26 0, 102 0 M102 0 C116.67 0, 124 7.33, 124 22 M102 0 C116.67 0, 124 7.33, 124 22 M124 22 C124 35.11, 124 48.23, 124 66 M124 22 C124 37.78, 124 53.57, 124 66 M124 66 C124 80.67, 116.67 88, 102 88 M124 66 C124 80.67, 116.67 88, 102 88 M102 88 C84.83 88, 67.66 88, 22 88 M102 88 C73.95 88, 45.89 88, 22 88 M22 88 C7.33 88, 0 80.67, 0 66 M22 88 C7.33 88, 0 80.67, 0 66 M0 66 C0 51.28, 0 36.56, 0 22 M0 66 C0 51.08, 0 36.16, 0 22 M0 22 C0 7.33, 7.33 0, 22 0 M0 22 C0 7.33, 7.33 0, 22 0" stroke="#e03131" stroke-width="2" fill="none"></path></g><g transform="translate(246.92480206086253 339.6956763305577) rotate(0 36.6748046875 11.5)"><text x="36.6748046875" y="0" font-family="Helvetica, Segoe UI Emoji" font-size="20px" fill="#e03131" text-anchor="middle" style="white-space: pre;" direction="ltr" dominant-baseline="text-before-edge">Browser</text></g><g stroke-linecap="round" transform="translate(175.7564427939617 10) rotate(0 62 44)"><path d="M22 0 M22 0 C41.7 0, 61.39 0, 102 0 M22 0 C40.66 0, 59.32 0, 102 0 M102 0 C116.67 0, 124 7.33, 124 22 M102 0 C116.67 0, 124 7.33, 124 22 M124 22 C124 32.35, 124 42.7, 124 66 M124 22 C124 39.52, 124 57.05, 124 66 M124 66 C124 80.67, 116.67 88, 102 88 M124 66 C124 80.67, 116.67 88, 102 88 M102 88 C76.19 88, 50.37 88, 22 88 M102 88 C72.76 88, 43.51 88, 22 88 M22 88 C7.33 88, 0 80.67, 0 66 M22 88 C7.33 88, 0 80.67, 0 66 M0 66 C0 54.72, 0 43.45, 0 22 M0 66 C0 49.19, 0 32.39, 0 22 M0 22 C0 7.33, 7.33 0, 22 0 M0 22 C0 7.33, 7.33 0, 22 0" stroke="#1971c2" stroke-width="2" fill="none"></path></g><g transform="translate(216.6431615439617 42.5) rotate(0 21.11328125 11.5)"><text x="21.11328125" y="0" font-family="Helvetica, Segoe UI Emoji" font-size="20px" fill="#1971c2" text-anchor="middle" style="white-space: pre;" direction="ltr" dominant-baseline="text-before-edge">DNS</text></g><g mask="url(#mask-TVXECyCO-zB1TRBrodaJi)" stroke-linecap="round"><g transform="translate(272.7193425708297 301.1956763305577) rotate(0 -29.68970467890631 -97.09783816527884)"><path d="M0 0 C-9.86 -20.19, -56.01 -88.78, -59.19 -121.14 C-62.36 -153.51, -25.72 -182.02, -19.03 -194.2 M0 0 C-9.86 -20.19, -56.01 -88.78, -59.19 -121.14 C-62.36 -153.51, -25.72 -182.02, -19.03 -194.2" stroke="#e03131" stroke-width="2" fill="none"></path></g><g transform="translate(272.7193425708297 301.1956763305577) rotate(0 -29.68970467890631 -97.09783816527884)"><path d="M-28.85 -165.85 C-25.93 -174.3, -23 -182.74, -19.03 -194.2 M-28.85 -165.85 C-26.47 -172.74, -24.08 -179.62, -19.03 -194.2" stroke="#e03131" stroke-width="2" fill="none"></path></g><g transform="translate(272.7193425708297 301.1956763305577) rotate(0 -29.68970467890631 -97.09783816527884)"><path d="M-44.77 -178.8 C-37.1 -183.39, -29.43 -187.97, -19.03 -194.2 M-44.77 -178.8 C-38.52 -182.54, -32.26 -186.28, -19.03 -194.2" stroke="#e03131" stroke-width="2" fill="none"></path></g></g><mask id="mask-TVXECyCO-zB1TRBrodaJi"><rect x="0" y="0" fill="#fff" width="431.90465673389707" height="595.3913526611154"></rect><rect x="202.42074715776243" y="168.55451459696468" fill="#000" width="22.2265625" height="23" opacity="1"></rect></mask><g transform="translate(202.42074715776243 168.55451459696462) rotate(0 40.60889073416104 35.54332356831419)"><text x="11.11328125" y="0" font-family="Helvetica, Segoe UI Emoji" font-size="20px" fill="#e03131" text-anchor="middle" style="white-space: pre;" direction="ltr" dominant-baseline="text-before-edge">url</text></g><g mask="url(#mask-QoPyq6p64_LrdeRBgn1c4)" stroke-linecap="round"><g transform="translate(309.5078601088651 62.65456555570776) rotate(0 26.218836366321966 121.27055538742496)"><path d="M0 0 C8.74 10.77, 51.25 24.19, 52.41 64.61 C53.58 105.03, 14.56 212.89, 6.99 242.54 M0 0 C8.74 10.77, 51.25 24.19, 52.41 64.61 C53.58 105.03, 14.56 212.89, 6.99 242.54" stroke="#1971c2" stroke-width="2" fill="none"></path></g><g transform="translate(309.5078601088651 62.65456555570776) rotate(0 26.218836366321966 121.27055538742496)"><path d="M5.39 212.58 C5.96 223.31, 6.54 234.03, 6.99 242.54 M5.39 212.58 C6 223.91, 6.6 235.24, 6.99 242.54" stroke="#1971c2" stroke-width="2" fill="none"></path></g><g transform="translate(309.5078601088651 62.65456555570776) rotate(0 26.218836366321966 121.27055538742496)"><path d="M25.02 218.57 C18.57 227.15, 12.11 235.73, 6.99 242.54 M25.02 218.57 C18.2 227.63, 11.38 236.7, 6.99 242.54" stroke="#1971c2" stroke-width="2" fill="none"></path></g></g><mask id="mask-QoPyq6p64_LrdeRBgn1c4"><rect x="0" y="0" fill="#fff" width="461.91998658485585" height="405.1956763305577"></rect><rect x="301.89557252235585" y="104.26559046393717" fill="#000" width="120.048828125" height="46" opacity="1"></rect></mask><g transform="translate(301.8955725223559 104.2655904639372) rotate(0 33.831123952831206 79.65953047919555)"><text x="60.0244140625" y="0" font-family="Helvetica, Segoe UI Emoji" font-size="20px" fill="#1971c2" text-anchor="middle" style="white-space: pre;" direction="ltr" dominant-baseline="text-before-edge">IP address</text><text x="60.0244140625" y="23" font-family="Helvetica, Segoe UI Emoji" font-size="20px" fill="#1971c2" text-anchor="middle" style="white-space: pre;" direction="ltr" dominant-baseline="text-before-edge">of web server</text></g><g stroke-linecap="round" transform="translate(694.0654639056663 591.7786443050433) rotate(0 62 44)"><path d="M22 0 M22 0 C43.04 0, 64.09 0, 102 0 M22 0 C38.84 0, 55.68 0, 102 0 M102 0 C116.67 0, 124 7.33, 124 22 M102 0 C116.67 0, 124 7.33, 124 22 M124 22 C124 35.31, 124 48.63, 124 66 M124 22 C124 38.03, 124 54.07, 124 66 M124 66 C124 80.67, 116.67 88, 102 88 M124 66 C124 80.67, 116.67 88, 102 88 M102 88 C73.16 88, 44.33 88, 22 88 M102 88 C75.31 88, 48.63 88, 22 88 M22 88 C7.33 88, 0 80.67, 0 66 M22 88 C7.33 88, 0 80.67, 0 66 M0 66 C0 49.69, 0 33.38, 0 22 M0 66 C0 54.71, 0 43.41, 0 22 M0 22 C0 7.33, 7.33 0, 22 0 M0 22 C0 7.33, 7.33 0, 22 0" stroke="#846358" stroke-width="2" fill="none"></path></g><g transform="translate(717.7060889056663 612.7786443050433) rotate(0 38.359375 23)"><text x="38.359375" y="0" font-family="Helvetica, Segoe UI Emoji" font-size="20px" fill="#846358" text-anchor="middle" style="white-space: pre;" direction="ltr" dominant-baseline="text-before-edge">Load </text><text x="38.359375" y="23" font-family="Helvetica, Segoe UI Emoji" font-size="20px" fill="#846358" text-anchor="middle" style="white-space: pre;" direction="ltr" dominant-baseline="text-before-edge">balancer</text></g><g mask="url(#mask-6TQRNZh-qgj0gI6yYPE9T)" stroke-linecap="round"><g transform="translate(357.17855411678335 391.146246444147) rotate(0 164.18029699970464 103.77771431558864)"><path d="M0 0 C54.73 34.59, 273.63 172.96, 328.36 207.56 M0 0 C54.73 34.59, 273.63 172.96, 328.36 207.56" stroke="#e03131" stroke-width="2" fill="none"></path></g><g transform="translate(357.17855411678335 391.146246444147) rotate(0 164.18029699970464 103.77771431558864)"><path d="M299.05 201.17 C309.25 203.39, 319.45 205.61, 328.36 207.56 M299.05 201.17 C305.2 202.51, 311.34 203.85, 328.36 207.56" stroke="#e03131" stroke-width="2" fill="none"></path></g><g transform="translate(357.17855411678335 391.146246444147) rotate(0 164.18029699970464 103.77771431558864)"><path d="M310.01 183.82 C316.4 192.08, 322.79 200.34, 328.36 207.56 M310.01 183.82 C313.86 188.8, 317.71 193.78, 328.36 207.56" stroke="#e03131" stroke-width="2" fill="none"></path></g></g><mask id="mask-6TQRNZh-qgj0gI6yYPE9T"><rect x="0" y="0" fill="#fff" width="785.5391481161926" height="698.7016750753243"></rect><rect x="473.73189799148804" y="483.4239607597357" fill="#000" width="95.25390625" height="23" opacity="1"></rect></mask><g transform="translate(473.73189799148804 483.4239607597357) rotate(0 47.626953125 11.499999999999943)"><text x="47.626953125" y="0" font-family="Helvetica, Segoe UI Emoji" font-size="20px" fill="#e03131" text-anchor="middle" style="white-space: pre;" direction="ltr" dominant-baseline="text-before-edge">IP address</text></g><g mask="url(#mask-8qQDQASmsnbi8VNLBOcJ-)" stroke-linecap="round"><g transform="translate(686.5469751694147 640.8275226047102) rotate(0 -174.92065057097238 -114.37921639905264)"><path d="M0 0 C-26.59 -11.56, -101.26 -31.26, -159.56 -69.38 C-217.87 -107.51, -318.13 -202.2, -349.84 -228.76 M0 0 C-26.59 -11.56, -101.26 -31.26, -159.56 -69.38 C-217.87 -107.51, -318.13 -202.2, -349.84 -228.76" stroke="#846358" stroke-width="2" fill="none"></path></g><g transform="translate(686.5469751694147 640.8275226047102) rotate(0 -174.92065057097238 -114.37921639905264)"><path d="M-321.92 -217.78 C-332.38 -221.9, -342.85 -226.01, -349.84 -228.76 M-321.92 -217.78 C-330.87 -221.3, -339.81 -224.81, -349.84 -228.76" stroke="#846358" stroke-width="2" fill="none"></path></g><g transform="translate(686.5469751694147 640.8275226047102) rotate(0 -174.92065057097238 -114.37921639905264)"><path d="M-335.51 -202.4 C-340.88 -212.28, -346.25 -222.15, -349.84 -228.76 M-335.51 -202.4 C-340.1 -210.85, -344.69 -219.29, -349.84 -228.76" stroke="#846358" stroke-width="2" fill="none"></path></g></g><mask id="mask-8qQDQASmsnbi8VNLBOcJ-"><rect x="0" y="0" fill="#fff" width="1136.3882763113595" height="969.5859554028154"></rect><rect x="478.79628424174325" y="559.9450631368675" fill="#000" width="96.376953125" height="23" opacity="1"></rect></mask><g transform="translate(478.79628424174325 559.9450631368676) rotate(0 32.830040356699214 -33.49675693120989)"><text x="48.1884765625" y="0" font-family="Helvetica, Segoe UI Emoji" font-size="20px" fill="#846358" text-anchor="middle" style="white-space: pre;" direction="ltr" dominant-baseline="text-before-edge">Web page </text></g><g stroke-linecap="round" transform="translate(79.90084121796832 666.0955328810934) rotate(0 62 44)"><path d="M22 0 M22 0 C40.72 0, 59.44 0, 102 0 M22 0 C49.26 0, 76.52 0, 102 0 M102 0 C116.67 0, 124 7.33, 124 22 M102 0 C116.67 0, 124 7.33, 124 22 M124 22 C124 36.71, 124 51.42, 124 66 M124 22 C124 32.65, 124 43.31, 124 66 M124 66 C124 80.67, 116.67 88, 102 88 M124 66 C124 80.67, 116.67 88, 102 88 M102 88 C81.35 88, 60.7 88, 22 88 M102 88 C79.4 88, 56.8 88, 22 88 M22 88 C7.33 88, 0 80.67, 0 66 M22 88 C7.33 88, 0 80.67, 0 66 M0 66 C0 54.98, 0 43.96, 0 22 M0 66 C0 52.16, 0 38.33, 0 22 M0 22 C0 7.33, 7.33 0, 22 0 M0 22 C0 7.33, 7.33 0, 22 0" stroke="#1971c2" stroke-width="2" fill="none"></path></g><g transform="translate(120.23580215546832 698.5955328810934) rotate(0 21.6650390625 11.5)"><text x="21.6650390625" y="0" font-family="Helvetica, Segoe UI Emoji" font-size="20px" fill="#1971c2" text-anchor="middle" style="white-space: pre;" direction="ltr" dominant-baseline="text-before-edge">CDN</text></g><g mask="url(#mask-z2iLw1oQ_5Kf3efWG_zyg)" stroke-linecap="round"><g transform="translate(248.87885427886494 408.29745405364736) rotate(0 -73.15022212113603 124.59345255153033)"><path d="M0 0 C-21.66 9.57, -105.59 15.86, -129.94 57.39 C-154.3 98.92, -143.44 217.22, -146.14 249.19 M0 0 C-21.66 9.57, -105.59 15.86, -129.94 57.39 C-154.3 98.92, -143.44 217.22, -146.14 249.19" stroke="#e03131" stroke-width="2" fill="none"></path></g><g transform="translate(248.87885427886494 408.29745405364736) rotate(0 -73.15022212113603 124.59345255153033)"><path d="M-156.35 220.98 C-154.03 227.37, -151.72 233.77, -146.14 249.19 M-156.35 220.98 C-154.01 227.44, -151.67 233.91, -146.14 249.19" stroke="#e03131" stroke-width="2" fill="none"></path></g><g transform="translate(248.87885427886494 408.29745405364736) rotate(0 -73.15022212113603 124.59345255153033)"><path d="M-135.83 221.01 C-138.17 227.4, -140.5 233.79, -146.14 249.19 M-135.83 221.01 C-138.19 227.47, -140.55 233.93, -146.14 249.19" stroke="#e03131" stroke-width="2" fill="none"></path></g></g><mask id="mask-z2iLw1oQ_5Kf3efWG_zyg"><rect x="0" y="0" fill="#fff" width="495.0175751601864" height="757.484359156708"></rect><rect x="10" y="431.1890814903543" fill="#000" width="217.87109375" height="69" opacity="1"></rect></mask><g transform="translate(10 431.1890814903543) rotate(0 165.7286321577289 101.70182511482341)"><text x="108.935546875" y="0" font-family="Helvetica, Segoe UI Emoji" font-size="20px" fill="#e03131" text-anchor="middle" style="white-space: pre;" direction="ltr" dominant-baseline="text-before-edge">For static</text><text x="108.935546875" y="23" font-family="Helvetica, Segoe UI Emoji" font-size="20px" fill="#e03131" text-anchor="middle" style="white-space: pre;" direction="ltr" dominant-baseline="text-before-edge">contents like js, images, </text><text x="108.935546875" y="46" font-family="Helvetica, Segoe UI Emoji" font-size="20px" fill="#e03131" text-anchor="middle" style="white-space: pre;" direction="ltr" dominant-baseline="text-before-edge">css etc</text></g><g mask="url(#mask-Wtx_9ojTNPlgOjWAVMHVv)" stroke-linecap="round"><g transform="translate(173.65792196684703 658.3621400933991) rotate(0 62.360990609806066 -132.16609277645293)"><path d="M0 0 C6.76 -22.55, 19.78 -91.23, 40.57 -135.28 C61.36 -179.34, 110.7 -242.82, 124.72 -264.33 M0 0 C6.76 -22.55, 19.78 -91.23, 40.57 -135.28 C61.36 -179.34, 110.7 -242.82, 124.72 -264.33" stroke="#f08c00" stroke-width="2" fill="none"></path></g><g transform="translate(173.65792196684703 658.3621400933991) rotate(0 62.360990609806066 -132.16609277645293)"><path d="M116.89 -235.37 C119.6 -245.39, 122.31 -255.41, 124.72 -264.33 M116.89 -235.37 C119.62 -245.47, 122.35 -255.58, 124.72 -264.33" stroke="#f08c00" stroke-width="2" fill="none"></path></g><g transform="translate(173.65792196684703 658.3621400933991) rotate(0 62.360990609806066 -132.16609277645293)"><path d="M100.11 -247.18 C108.62 -253.12, 117.14 -259.05, 124.72 -264.33 M100.11 -247.18 C108.69 -253.17, 117.28 -259.15, 124.72 -264.33" stroke="#f08c00" stroke-width="2" fill="none"></path></g></g><mask id="mask-Wtx_9ojTNPlgOjWAVMHVv"><rect x="0" y="0" fill="#fff" width="398.37990318645916" height="1022.6943256463051"></rect><rect x="169.19800876283426" y="511.5807089270612" fill="#000" width="90.05859375" height="23" opacity="1"></rect></mask><g transform="translate(169.19800876283432 511.5807089270613) rotate(0 66.82090381381883 14.615338389884897)"><text x="45.029296875" y="0" font-family="Helvetica, Segoe UI Emoji" font-size="20px" fill="#f08c00" text-anchor="middle" style="white-space: pre;" direction="ltr" dominant-baseline="text-before-edge">Response</text></g><g stroke-linecap="round" transform="translate(684.9948659936802 199.70259800875195) rotate(0 62 44)"><path d="M22 0 M22 0 C41.87 0, 61.75 0, 102 0 M22 0 C44.81 0, 67.63 0, 102 0 M102 0 C116.67 0, 124 7.33, 124 22 M102 0 C116.67 0, 124 7.33, 124 22 M124 22 C124 36.36, 124 50.71, 124 66 M124 22 C124 37.2, 124 52.4, 124 66 M124 66 C124 80.67, 116.67 88, 102 88 M124 66 C124 80.67, 116.67 88, 102 88 M102 88 C75.84 88, 49.68 88, 22 88 M102 88 C75.66 88, 49.31 88, 22 88 M22 88 C7.33 88, 0 80.67, 0 66 M22 88 C7.33 88, 0 80.67, 0 66 M0 66 C0 52.5, 0 39.01, 0 22 M0 66 C0 55, 0 44, 0 22 M0 22 C0 7.33, 7.33 0, 22 0 M0 22 C0 7.33, 7.33 0, 22 0" stroke="#846358" stroke-width="2" fill="none"></path></g><g transform="translate(708.6354909936802 220.70259800875195) rotate(0 38.359375 23)"><text x="38.359375" y="0" font-family="Helvetica, Segoe UI Emoji" font-size="20px" fill="#846358" text-anchor="middle" style="white-space: pre;" direction="ltr" dominant-baseline="text-before-edge">Load </text><text x="38.359375" y="23" font-family="Helvetica, Segoe UI Emoji" font-size="20px" fill="#846358" text-anchor="middle" style="white-space: pre;" direction="ltr" dominant-baseline="text-before-edge">balancer</text></g><g mask="url(#mask-JFQQ2yqCKwWDWPNqz8G5R)" stroke-linecap="round"><g transform="translate(352.83350020195667 322.8647236723392) rotate(0 159.72198201725055 -36.262593751000594)"><path d="M0 0 C35.37 -11.03, 159 -54.44, 212.24 -66.17 C265.48 -77.9, 301.58 -69.67, 319.44 -70.37 M0 0 C35.37 -11.03, 159 -54.44, 212.24 -66.17 C265.48 -77.9, 301.58 -69.67, 319.44 -70.37" stroke="#e03131" stroke-width="2" fill="none"></path></g><g transform="translate(352.83350020195667 322.8647236723392) rotate(0 159.72198201725055 -36.262593751000594)"><path d="M290.8 -61.46 C296.93 -63.37, 303.06 -65.28, 319.44 -70.37 M290.8 -61.46 C298.19 -63.76, 305.59 -66.06, 319.44 -70.37" stroke="#e03131" stroke-width="2" fill="none"></path></g><g transform="translate(352.83350020195667 322.8647236723392) rotate(0 159.72198201725055 -36.262593751000594)"><path d="M291.77 -81.96 C297.7 -79.48, 303.62 -77, 319.44 -70.37 M291.77 -81.96 C298.92 -78.97, 306.06 -75.98, 319.44 -70.37" stroke="#e03131" stroke-width="2" fill="none"></path></g></g><mask id="mask-JFQQ2yqCKwWDWPNqz8G5R"><rect x="0" y="0" fill="#fff" width="772.2774642364577" height="493.23384249980603"></rect><rect x="525.0498215657694" y="233.6969287491384" fill="#000" width="80.048828125" height="46" opacity="1"></rect></mask><g transform="translate(525.0498215657693 233.69692874913835) rotate(0 -12.494339346562157 52.90520117220021)"><text x="40.0244140625" y="0" font-family="Helvetica, Segoe UI Emoji" font-size="20px" fill="#e03131" text-anchor="middle" style="white-space: pre;" direction="ltr" dominant-baseline="text-before-edge">Request:</text><text x="40.0244140625" y="23" font-family="Helvetica, Segoe UI Emoji" font-size="20px" fill="#e03131" text-anchor="middle" style="white-space: pre;" direction="ltr" dominant-baseline="text-before-edge">long url</text></g><g mask="url(#mask--zlsT7u3K1H3lEH7R2GVm)" stroke-linecap="round"><g transform="translate(727.1857135397836 296.76278186533) rotate(0 -182.30323264126844 35.192979088546764)"><path d="M0 0 C-20.34 8.12, -61.28 37, -122.05 48.73 C-182.81 60.46, -324.18 66.78, -364.61 70.39 M0 0 C-20.34 8.12, -61.28 37, -122.05 48.73 C-182.81 60.46, -324.18 66.78, -364.61 70.39" stroke="#846358" stroke-width="2" fill="none"></path></g><g transform="translate(727.1857135397836 296.76278186533) rotate(0 -182.30323264126844 35.192979088546764)"><path d="M-337.19 58.21 C-344.22 61.33, -351.24 64.45, -364.61 70.39 M-337.19 58.21 C-344.42 61.42, -351.66 64.64, -364.61 70.39" stroke="#846358" stroke-width="2" fill="none"></path></g><g transform="translate(727.1857135397836 296.76278186533) rotate(0 -182.30323264126844 35.192979088546764)"><path d="M-335.78 78.68 C-343.16 76.56, -350.55 74.43, -364.61 70.39 M-335.78 78.68 C-343.38 76.49, -350.99 74.3, -364.61 70.39" stroke="#846358" stroke-width="2" fill="none"></path></g></g><mask id="mask--zlsT7u3K1H3lEH7R2GVm"><rect x="0" y="0" fill="#fff" width="1191.7921788223205" height="467.1487400424235"></rect><rect x="560.110791869461" y="322.49152214177934" fill="#000" width="90.05859375" height="46" opacity="1"></rect></mask><g transform="translate(560.1107918694611 322.4915221417794) rotate(0 -15.228310970945927 9.46423881209742)"><text x="45.029296875" y="0" font-family="Helvetica, Segoe UI Emoji" font-size="20px" fill="#846358" text-anchor="middle" style="white-space: pre;" direction="ltr" dominant-baseline="text-before-edge">Response</text><text x="45.029296875" y="23" font-family="Helvetica, Segoe UI Emoji" font-size="20px" fill="#846358" text-anchor="middle" style="white-space: pre;" direction="ltr" dominant-baseline="text-before-edge">short url</text></g><g stroke-linecap="round" transform="translate(1052.0847094095984 126.06805714656181) rotate(0 61 44)"><path d="M22 0 M22 0 C50.11 0, 78.22 0, 100 0 M22 0 C40.97 0, 59.94 0, 100 0 M100 0 C114.67 0, 122 7.33, 122 22 M100 0 C114.67 0, 122 7.33, 122 22 M122 22 C122 35.98, 122 49.95, 122 66 M122 22 C122 30.99, 122 39.99, 122 66 M122 66 C122 80.67, 114.67 88, 100 88 M122 66 C122 80.67, 114.67 88, 100 88 M100 88 C72.87 88, 45.74 88, 22 88 M100 88 C79.6 88, 59.19 88, 22 88 M22 88 C7.33 88, 0 80.67, 0 66 M22 88 C7.33 88, 0 80.67, 0 66 M0 66 C0 49.18, 0 32.36, 0 22 M0 66 C0 55.15, 0 44.3, 0 22 M0 22 C0 7.33, 7.33 0, 22 0 M0 22 C0 7.33, 7.33 0, 22 0" stroke="#9c36b5" stroke-width="2" fill="none"></path></g><g transform="translate(1058.0651781595984 158.5680571465618) rotate(0 55.01953125 11.5)"><text x="55.01953125" y="0" font-family="Helvetica, Segoe UI Emoji" font-size="20px" fill="#9c36b5" text-anchor="middle" style="white-space: pre;" direction="ltr" dominant-baseline="text-before-edge">API server 1</text></g><g stroke-linecap="round" transform="translate(1054.1675703046305 225.69125948952487) rotate(0 61 44)"><path d="M22 0 M22 0 C43.7 0, 65.4 0, 100 0 M22 0 C47.2 0, 72.41 0, 100 0 M100 0 C114.67 0, 122 7.33, 122 22 M100 0 C114.67 0, 122 7.33, 122 22 M122 22 C122 31.57, 122 41.13, 122 66 M122 22 C122 38.32, 122 54.63, 122 66 M122 66 C122 80.67, 114.67 88, 100 88 M122 66 C122 80.67, 114.67 88, 100 88 M100 88 C78.35 88, 56.69 88, 22 88 M100 88 C72.64 88, 45.29 88, 22 88 M22 88 C7.33 88, 0 80.67, 0 66 M22 88 C7.33 88, 0 80.67, 0 66 M0 66 C0 48.51, 0 31.02, 0 22 M0 66 C0 51.85, 0 37.7, 0 22 M0 22 C0 7.33, 7.33 0, 22 0 M0 22 C0 7.33, 7.33 0, 22 0" stroke="#9c36b5" stroke-width="2" fill="none"></path></g><g transform="translate(1060.1480390546305 258.1912594895249) rotate(0 55.01953125 11.5)"><text x="55.01953125" y="0" font-family="Helvetica, Segoe UI Emoji" font-size="20px" fill="#9c36b5" text-anchor="middle" style="white-space: pre;" direction="ltr" dominant-baseline="text-before-edge">API server 1</text></g><g stroke-linecap="round" transform="translate(1058.499013884759 328.56304451758456) rotate(0 61 44)"><path d="M22 0 M22 0 C45.98 0, 69.97 0, 100 0 M22 0 C38.23 0, 54.46 0, 100 0 M100 0 C114.67 0, 122 7.33, 122 22 M100 0 C114.67 0, 122 7.33, 122 22 M122 22 C122 36.89, 122 51.78, 122 66 M122 22 C122 31.6, 122 41.2, 122 66 M122 66 C122 80.67, 114.67 88, 100 88 M122 66 C122 80.67, 114.67 88, 100 88 M100 88 C79.33 88, 58.66 88, 22 88 M100 88 C82.53 88, 65.05 88, 22 88 M22 88 C7.33 88, 0 80.67, 0 66 M22 88 C7.33 88, 0 80.67, 0 66 M0 66 C0 53.78, 0 41.57, 0 22 M0 66 C0 48.6, 0 31.2, 0 22 M0 22 C0 7.33, 7.33 0, 22 0 M0 22 C0 7.33, 7.33 0, 22 0" stroke="#9c36b5" stroke-width="2" fill="none"></path></g><g transform="translate(1064.479482634759 361.06304451758456) rotate(0 55.01953125 11.5)"><text x="55.01953125" y="0" font-family="Helvetica, Segoe UI Emoji" font-size="20px" fill="#9c36b5" text-anchor="middle" style="white-space: pre;" direction="ltr" dominant-baseline="text-before-edge">API server n</text></g><g stroke-linecap="round" transform="translate(1026.3729769119898 96.4335162843717) rotate(0 89.87745428767312 173.79917365266925)"><path d="M32 0 M32 0 C64.14 0, 96.28 0, 147.75 0 M147.75 0 C169.09 0, 179.75 10.67, 179.75 32 M179.75 32 C179.75 97.23, 179.75 162.46, 179.75 315.6 M179.75 315.6 C179.75 336.93, 169.09 347.6, 147.75 347.6 M147.75 347.6 C111.37 347.6, 74.99 347.6, 32 347.6 M32 347.6 C10.67 347.6, 0 336.93, 0 315.6 M0 315.6 C0 229.39, 0 143.18, 0 32 M0 32 C0 10.67, 10.67 0, 32 0" stroke="#9c36b5" stroke-width="2.5" fill="none" stroke-dasharray="1.5 8"></path></g><g mask="url(#mask-UPYVHl7roGAovJpOt8i5b)" stroke-linecap="round"><g transform="translate(821.7122677509026 243.7025980087519) rotate(0 102.87178502805966 0)"><path d="M0 0 C34.29 0, 171.45 0, 205.74 0 M0 0 C34.29 0, 171.45 0, 205.74 0" stroke="#846358" stroke-width="2" fill="none"></path></g><g transform="translate(821.7122677509026 243.7025980087519) rotate(0 102.87178502805966 0)"><path d="M177.55 10.26 C185.35 7.42, 193.14 4.59, 205.74 0 M177.55 10.26 C186.33 7.07, 195.1 3.87, 205.74 0" stroke="#846358" stroke-width="2" fill="none"></path></g><g transform="translate(821.7122677509026 243.7025980087519) rotate(0 102.87178502805966 0)"><path d="M177.55 -10.26 C185.35 -7.42, 193.14 -4.59, 205.74 0 M177.55 -10.26 C186.33 -7.07, 195.1 -3.87, 205.74 0" stroke="#846358" stroke-width="2" fill="none"></path></g></g><mask id="mask-UPYVHl7roGAovJpOt8i5b"><rect x="0" y="0" fill="#fff" width="1127.455837807022" height="343.7025980087519"></rect><rect x="887.3379590289624" y="232.20259800875186" fill="#000" width="74.4921875" height="23" opacity="1"></rect></mask><g transform="translate(887.3379590289622 232.20259800875186) rotate(0 37.24609375 11.5)"><text x="37.24609375" y="0" font-family="Helvetica, Segoe UI Emoji" font-size="20px" fill="#846358" text-anchor="middle" style="white-space: pre;" direction="ltr" dominant-baseline="text-before-edge">Request</text></g><g stroke-linecap="round" transform="translate(1061.8304574648882 569.4995936622507) rotate(0 61 44)"><path d="M22 0 M22 0 C43.98 0, 65.96 0, 100 0 M22 0 C46.35 0, 70.71 0, 100 0 M100 0 C114.67 0, 122 7.33, 122 22 M100 0 C114.67 0, 122 7.33, 122 22 M122 22 C122 38.13, 122 54.27, 122 66 M122 22 C122 30.8, 122 39.61, 122 66 M122 66 C122 80.67, 114.67 88, 100 88 M122 66 C122 80.67, 114.67 88, 100 88 M100 88 C69.74 88, 39.48 88, 22 88 M100 88 C82.89 88, 65.78 88, 22 88 M22 88 C7.33 88, 0 80.67, 0 66 M22 88 C7.33 88, 0 80.67, 0 66 M0 66 C0 56.25, 0 46.51, 0 22 M0 66 C0 55.49, 0 44.97, 0 22 M0 22 C0 7.33, 7.33 0, 22 0 M0 22 C0 7.33, 7.33 0, 22 0" stroke="#2f9e44" stroke-width="2" fill="none"></path></g><g transform="translate(1069.1048715273882 590.4995936622507) rotate(0 53.7255859375 23)"><text x="53.7255859375" y="0" font-family="Helvetica, Segoe UI Emoji" font-size="20px" fill="#2f9e44" text-anchor="middle" style="white-space: pre;" direction="ltr" dominant-baseline="text-before-edge">Web server </text><text x="53.7255859375" y="23" font-family="Helvetica, Segoe UI Emoji" font-size="20px" fill="#2f9e44" text-anchor="middle" style="white-space: pre;" direction="ltr" dominant-baseline="text-before-edge">1</text></g><g stroke-linecap="round" transform="translate(1063.9133183599206 669.1227960052138) rotate(0 61 44)"><path d="M22 0 M22 0 C40.1 0, 58.21 0, 100 0 M22 0 C49.32 0, 76.65 0, 100 0 M100 0 C114.67 0, 122 7.33, 122 22 M100 0 C114.67 0, 122 7.33, 122 22 M122 22 C122 33.86, 122 45.72, 122 66 M122 22 C122 31.07, 122 40.15, 122 66 M122 66 C122 80.67, 114.67 88, 100 88 M122 66 C122 80.67, 114.67 88, 100 88 M100 88 C75.45 88, 50.91 88, 22 88 M100 88 C70.29 88, 40.59 88, 22 88 M22 88 C7.33 88, 0 80.67, 0 66 M22 88 C7.33 88, 0 80.67, 0 66 M0 66 C0 50.2, 0 34.39, 0 22 M0 66 C0 54.09, 0 42.18, 0 22 M0 22 C0 7.33, 7.33 0, 22 0 M0 22 C0 7.33, 7.33 0, 22 0" stroke="#2f9e44" stroke-width="2" fill="none"></path></g><g transform="translate(1071.1877324224206 690.1227960052138) rotate(0 53.7255859375 23)"><text x="53.7255859375" y="0" font-family="Helvetica, Segoe UI Emoji" font-size="20px" fill="#2f9e44" text-anchor="middle" style="white-space: pre;" direction="ltr" dominant-baseline="text-before-edge">Web server </text><text x="53.7255859375" y="23" font-family="Helvetica, Segoe UI Emoji" font-size="20px" fill="#2f9e44" text-anchor="middle" style="white-space: pre;" direction="ltr" dominant-baseline="text-before-edge">1</text></g><g stroke-linecap="round" transform="translate(1068.244761940049 771.9945810332736) rotate(0 61 44)"><path d="M22 0 M22 0 C40.02 0, 58.05 0, 100 0 M22 0 C48.11 0, 74.23 0, 100 0 M100 0 C114.67 0, 122 7.33, 122 22 M100 0 C114.67 0, 122 7.33, 122 22 M122 22 C122 32.52, 122 43.04, 122 66 M122 22 C122 36.74, 122 51.48, 122 66 M122 66 C122 80.67, 114.67 88, 100 88 M122 66 C122 80.67, 114.67 88, 100 88 M100 88 C70.01 88, 40.01 88, 22 88 M100 88 C80.89 88, 61.78 88, 22 88 M22 88 C7.33 88, 0 80.67, 0 66 M22 88 C7.33 88, 0 80.67, 0 66 M0 66 C0 50.59, 0 35.19, 0 22 M0 66 C0 56.58, 0 47.15, 0 22 M0 22 C0 7.33, 7.33 0, 22 0 M0 22 C0 7.33, 7.33 0, 22 0" stroke="#2f9e44" stroke-width="2" fill="none"></path></g><g transform="translate(1075.519176002549 792.9945810332736) rotate(0 53.7255859375 23)"><text x="53.7255859375" y="0" font-family="Helvetica, Segoe UI Emoji" font-size="20px" fill="#2f9e44" text-anchor="middle" style="white-space: pre;" direction="ltr" dominant-baseline="text-before-edge">Web server </text><text x="53.7255859375" y="23" font-family="Helvetica, Segoe UI Emoji" font-size="20px" fill="#2f9e44" text-anchor="middle" style="white-space: pre;" direction="ltr" dominant-baseline="text-before-edge">n</text></g><g stroke-linecap="round" transform="translate(1036.1187249672794 539.8650528000607) rotate(0 89.87745428767312 173.79917365266925)"><path d="M32 0 M32 0 C66.14 0, 100.28 0, 147.75 0 M147.75 0 C169.09 0, 179.75 10.67, 179.75 32 M179.75 32 C179.75 96.67, 179.75 161.34, 179.75 315.6 M179.75 315.6 C179.75 336.93, 169.09 347.6, 147.75 347.6 M147.75 347.6 C122.51 347.6, 97.26 347.6, 32 347.6 M32 347.6 C10.67 347.6, 0 336.93, 0 315.6 M0 315.6 C0 219.43, 0 123.27, 0 32 M0 32 C0 10.67, 10.67 0, 32 0" stroke="#2f9e44" stroke-width="2.5" fill="none" stroke-dasharray="1.5 8"></path></g><g mask="url(#mask-reiDRsfJjhTRIbEryvf8O)" stroke-linecap="round"><g transform="translate(828.209433121096 634.6153811153788) rotate(0 101.2474936855113 41.14871401122383)"><path d="M0 0 C17.69 4.69, 72.37 14.44, 106.12 28.15 C139.87 41.87, 186.43 73.27, 202.49 82.3 M0 0 C17.69 4.69, 72.37 14.44, 106.12 28.15 C139.87 41.87, 186.43 73.27, 202.49 82.3" stroke="#846358" stroke-width="2" fill="none"></path></g><g transform="translate(828.209433121096 634.6153811153788) rotate(0 101.2474936855113 41.14871401122383)"><path d="M173.08 76.42 C182.72 78.35, 192.36 80.27, 202.49 82.3 M173.08 76.42 C179.31 77.67, 185.55 78.91, 202.49 82.3" stroke="#846358" stroke-width="2" fill="none"></path></g><g transform="translate(828.209433121096 634.6153811153788) rotate(0 101.2474936855113 41.14871401122383)"><path d="M183.73 58.89 C189.88 66.56, 196.03 74.23, 202.49 82.3 M183.73 58.89 C187.71 63.85, 191.69 68.81, 202.49 82.3" stroke="#846358" stroke-width="2" fill="none"></path></g></g><mask id="mask-reiDRsfJjhTRIbEryvf8O"><rect x="0" y="0" fill="#fff" width="1130.7044204921185" height="816.9128091378265"></rect><rect x="897.0837070842523" y="651.269764386216" fill="#000" width="74.4921875" height="23" opacity="1"></rect></mask><g transform="translate(897.0837070842522 651.2697643862161) rotate(0 32.37321972235503 24.4943307403866)"><text x="37.24609375" y="0" font-family="Helvetica, Segoe UI Emoji" font-size="20px" fill="#846358" text-anchor="middle" style="white-space: pre;" direction="ltr" dominant-baseline="text-before-edge">Request</text></g><g mask="url(#mask-VS5rTIrdMiD-mie12Kuge)" stroke-linecap="round"><g transform="translate(1023.1243942268932 751.564357778857) rotate(0 -103.9546459230919 -32.48582685096619)"><path d="M0 0 C-20.94 -1.44, -90.96 2.17, -125.61 -8.66 C-160.26 -19.49, -194.19 -55.59, -207.91 -64.97 M0 0 C-20.94 -1.44, -90.96 2.17, -125.61 -8.66 C-160.26 -19.49, -194.19 -55.59, -207.91 -64.97" stroke="#2f9e44" stroke-width="2" fill="none"></path></g><g transform="translate(1023.1243942268932 751.564357778857) rotate(0 -103.9546459230919 -32.48582685096619)"><path d="M-179.63 -54.94 C-186.49 -57.37, -193.34 -59.8, -207.91 -64.97 M-179.63 -54.94 C-190.78 -58.9, -201.93 -62.85, -207.91 -64.97" stroke="#2f9e44" stroke-width="2" fill="none"></path></g><g transform="translate(1023.1243942268932 751.564357778857) rotate(0 -103.9546459230919 -32.48582685096619)"><path d="M-192.7 -39.12 C-196.38 -45.38, -200.07 -51.65, -207.91 -64.97 M-192.7 -39.12 C-198.69 -49.31, -204.69 -59.5, -207.91 -64.97" stroke="#2f9e44" stroke-width="2" fill="none"></path></g></g><mask id="mask-VS5rTIrdMiD-mie12Kuge"><rect x="0" y="0" fill="#fff" width="1331.033686073077" height="916.5360114807894"></rect><rect x="852.4832335281571" y="731.4014706185992" fill="#000" width="90.05859375" height="23" opacity="1"></rect></mask><g transform="translate(852.4832335281571 731.4014706185994) rotate(0 66.68651477564413 -12.322939690708495)"><text x="45.029296875" y="0" font-family="Helvetica, Segoe UI Emoji" font-size="20px" fill="#2f9e44" text-anchor="middle" style="white-space: pre;" direction="ltr" dominant-baseline="text-before-edge">Response</text></g><g mask="url(#mask-N7iSGODE5vq-0PH9zjwc6)" stroke-linecap="round"><g transform="translate(1015.5443679616678 295.67992097029787) rotate(0 -94.7503283153182 2.7360776175801504)"><path d="M0 0 C-16.24 1.8, -65.87 11.73, -97.46 10.83 C-129.04 9.93, -174.16 -2.71, -189.5 -5.41 M0 0 C-16.24 1.8, -65.87 11.73, -97.46 10.83 C-129.04 9.93, -174.16 -2.71, -189.5 -5.41" stroke="#9c36b5" stroke-width="2" fill="none"></path></g><g transform="translate(1015.5443679616678 295.67992097029787) rotate(0 -94.7503283153182 2.7360776175801504)"><path d="M-159.77 -9.4 C-170.51 -7.96, -181.26 -6.52, -189.5 -5.41 M-159.77 -9.4 C-169.17 -8.14, -178.58 -6.88, -189.5 -5.41" stroke="#9c36b5" stroke-width="2" fill="none"></path></g><g transform="translate(1015.5443679616678 295.67992097029787) rotate(0 -94.7503283153182 2.7360776175801504)"><path d="M-164.16 10.64 C-173.32 4.84, -182.47 -0.96, -189.5 -5.41 M-164.16 10.64 C-172.18 5.56, -180.2 0.48, -189.5 -5.41" stroke="#9c36b5" stroke-width="2" fill="none"></path></g></g><mask id="mask-N7iSGODE5vq-0PH9zjwc6"><rect x="0" y="0" fill="#fff" width="1305.0450245923043" height="411.922834395781"></rect><rect x="873.0575905337689" y="295.00852992061994" fill="#000" width="90.05859375" height="23" opacity="1"></rect></mask><g transform="translate(873.057590533769 295.00852992061994) rotate(0 47.7364491125806 3.4074686672580867)"><text x="45.029296875" y="0" font-family="Helvetica, Segoe UI Emoji" font-size="20px" fill="#9c36b5" text-anchor="middle" style="white-space: pre;" direction="ltr" dominant-baseline="text-before-edge">Response</text></g></svg>